<svg xmlns="http://www.w3.org/2000/svg" viewBox="0 0 478.22 539.63"><defs><style>.cls-1{opacity:0.35;}.cls-2{fill:none;stroke:#fff;stroke-miterlimit:10;}</style></defs><g id="Layer_2" data-name="Layer 2"><g id="Layer_1-2" data-name="Layer 1"><g id="Livello_1" data-name="Livello 1"><g class="cls-1"><path class="cls-2" d="M3.3,294.2c.1-3.3.3-6.6.5-10,.1-1.7.4-3.3.6-5s.5-3.3.9-5a70.39,70.39,0,0,1,2.7-10c.6-1.6,1.1-3.3,1.8-4.9s1.5-3.2,2.2-4.8a86.61,86.61,0,0,1,29.3-33.6c1.6-1.1,3.2-2.2,4.9-3.3s3.5-2,5.2-3c3.6-1.9,7-3.8,10.7-5.4s7.2-3.2,11-4.5,7.3-2.7,11.1-3.7c1.9-.5,3.6-1.1,5.4-1.6A47.47,47.47,0,0,1,95,198c3.6-.9,6.9-1.8,10.4-2.6,1.7-.4,3.3-.8,4.9-1.2l4.9-1.1c1.6-.3,3.1-.7,4.6-1.1s3.1-.7,4.5-1l2.2-.5c.7-.2,1.4-.4,2-.6a13.13,13.13,0,0,0,3.6-1.6,16.22,16.22,0,0,0,2.8-2.5,17,17,0,0,0,2.3-3l1.1-1.6c.2-.3.4-.5.6-.8l.6-.7a17.24,17.24,0,0,1,2.7-2.7c1.9-1.7,4-3.1,5.9-4.7a260.4,260.4,0,0,1,25.4-16.9,218.18,218.18,0,0,1,58.7-23.3,200.73,200.73,0,0,1,67.4-4.4,195,195,0,0,1,70.9,21.8,198,198,0,0,1,62.6,52.3,201.81,201.81,0,0,1,38.4,80.6,214.16,214.16,0,0,1,5.1,47.8,206.1,206.1,0,0,1-6.6,49.6,207.52,207.52,0,0,1-49.2,89.6,204.51,204.51,0,0,1-39.4,32.7,190.86,190.86,0,0,1-45.2,21,172.75,172.75,0,0,1-47.1,7.9,156.55,156.55,0,0,1-44.7-5.2,147.29,147.29,0,0,1-41.8-18.6,156.07,156.07,0,0,1-31.7-27.1,181.21,181.21,0,0,1-22.6-31.2c-1.5-2.8-3-5.4-4.5-8.1-1.3-2.7-2.7-5.4-4.1-8.1-1.2-2.7-2.5-5.4-3.7-8.1a76.26,76.26,0,0,1-3.1-8.4c-.4-1.5-.7-3.2-1-4.7a28.26,28.26,0,0,0-1.2-4.4,10.82,10.82,0,0,0-4.5-6.4c-1-.8-2.1-1.6-3.2-2.4s-2.4-1.4-3.5-2.2-2.5-1.4-3.8-2.1a20,20,0,0,1-2.1-1l-2-1c-1.4-.7-2.9-1.3-4.4-1.9s-3.1-1.3-4.7-1.9-3.4-1.2-5.2-1.8-3.4-1.3-5.3-1.9-3.9-1.2-5.7-1.9-3.9-1.4-5.9-2.1l-3.1-1.1-3-1.2L68,375.8c-2.2-.8-4.2-1.8-6.3-2.7s-4.3-2-6.4-2.9-4.1-2.2-6.1-3.3l-3.1-1.7c-1-.6-2.1-1.2-3.1-1.8-1.9-1.3-3.9-2.6-5.7-3.9l-2.8-2.1a27.46,27.46,0,0,1-2.6-2.2c-1.8-1.5-3.4-3-5-4.5s-3.1-3.2-4.6-4.8-2.8-3.3-4.1-5-2.4-3.5-3.5-5.2-2.1-3.6-3.1-5.4c-.5-.9-.9-1.8-1.3-2.7s-.8-1.8-1.2-2.8c-.7-1.9-1.5-3.7-2.1-5.6-.3-.9-.6-1.9-.8-2.8s-.5-1.9-.7-2.8c-.4-1.9-.8-3.7-1.1-5.6a35.55,35.55,0,0,1-.6-5.5"/><path class="cls-2" d="M3.3,293.9c.1-3.3.3-6.6.5-9.9.1-1.7.4-3.3.6-5s.5-3.3.9-5a89.68,89.68,0,0,1,2.5-9.9,47.49,47.49,0,0,1,1.7-4.9c.6-1.6,1.4-3.2,2.1-4.8a88,88,0,0,1,27.7-33.7c12.3-9.3,26.9-16.1,41.1-21,3.7-1.1,6.9-2.5,10.5-3.4s6.7-2.1,10.1-2.9c6.6-1.8,12.8-3.5,18.7-5,1.5-.4,2.9-.8,4.3-1.2a15.87,15.87,0,0,0,2-.7l1-.4.9-.4c.6-.3,1.1-.7,1.7-1a17.41,17.41,0,0,0,1.4-1.2,34.46,34.46,0,0,0,2.6-2.8,35.53,35.53,0,0,0,2.3-3.1,23.72,23.72,0,0,1,2.5-2.9,34.67,34.67,0,0,1,2.9-2.5c1-.8,2-1.5,3.1-2.3a231.9,231.9,0,0,1,25.6-17,221.91,221.91,0,0,1,58.6-23.5,205.15,205.15,0,0,1,66.8-5.2,196.87,196.87,0,0,1,132.7,69.4,200,200,0,0,1,40.2,77.1A207.06,207.06,0,0,1,454,414.9a204.7,204.7,0,0,1-28.1,42.7,198.49,198.49,0,0,1-37.5,34.1,192.58,192.58,0,0,1-43.7,23A177.79,177.79,0,0,1,298.5,525a159.61,159.61,0,0,1-44.5-2.6,147.1,147.1,0,0,1-42.3-15.8,157.11,157.11,0,0,1-33-24.7,188.84,188.84,0,0,1-24.5-29.2,257.58,257.58,0,0,1-18.1-30.8,44,44,0,0,1-3.4-8.6,15.46,15.46,0,0,0-.7-2.3,20.16,20.16,0,0,0-.7-2.3,24.29,24.29,0,0,0-1.8-4,9.72,9.72,0,0,0-2.8-2.9c-1.1-.8-2.3-1.6-3.5-2.4s-2.6-1.4-3.9-2.2-2.7-1.4-4.1-2.1a21.4,21.4,0,0,0-2.2-1c-.8-.3-1.5-.7-2.2-1-1.5-.7-3.1-1.3-4.8-2s-3.3-1.3-5.1-1.9-3.7-1.3-5.5-1.9-3.6-1.4-5.6-2.1-4.1-1.3-6-2.1c-4-1.5-8.4-3-12.6-4.8l-6.5-2.7c-2.1-1-4.3-2-6.4-3s-4.4-2.1-6.5-3.3-4.1-2.4-6.2-3.7c-1-.6-2.1-1.3-3.1-1.9l-2.9-2.1c-2-1.4-3.8-2.8-5.7-4.3a102.14,102.14,0,0,1-10.1-9.6l-2.2-2.6-2.1-2.6a59.26,59.26,0,0,1-3.8-5.4l-.9-1.4-.8-1.4-1.6-2.8c-.5-.9-1-1.9-1.5-2.8s-.8-1.9-1.3-2.9c-.8-1.9-1.5-3.9-2.2-5.8a57.2,57.2,0,0,1-1.7-5.9,67.91,67.91,0,0,1-1.9-11.7"/><path class="cls-2" d="M3.3,293.6c.1-3.2.3-6.5.5-9.7.1-1.6.4-3.3.6-4.9s.5-3.3.8-4.9a87.41,87.41,0,0,1,2.4-9.8c.5-1.6,1-3.2,1.6-4.8s1.3-3.2,2-4.8a89.82,89.82,0,0,1,26.1-33.8c3-2.3,5.9-4.6,9.1-6.7s6.4-4.1,9.7-5.9,6.7-3.5,10.1-5.1c1.7-.7,3.4-1.5,5.2-2.2s3.3-1.5,5.1-2.1,3.5-1.3,5.1-1.9,3.3-1.3,5-1.9c3.5-1.1,6.7-2.2,9.9-3.3,1.6-.5,3.3-1,4.8-1.5s3.1-1,4.6-1.5l4.6-1.3c1.5-.5,2.9-1,4.4-1.4,2.9-.9,5.8-1.7,8.4-2.7a19.54,19.54,0,0,0,3.5-1.9,17.27,17.27,0,0,0,2.8-2.6,36.12,36.12,0,0,0,2.5-3,34,34,0,0,1,2.5-3.1,40,40,0,0,1,5.8-5.1,252.29,252.29,0,0,1,25.8-17.3,224.66,224.66,0,0,1,58.5-23.8,213.1,213.1,0,0,1,66.2-5.7,195.07,195.07,0,0,1,69.3,18.3A197.81,197.81,0,0,1,464.5,259.5a207.64,207.64,0,0,1,6.1,95.2,204.79,204.79,0,0,1-14.4,48.1,203.51,203.51,0,0,1-61.4,79,186.09,186.09,0,0,1-42.2,24.8,174.3,174.3,0,0,1-45.2,12.5,155.71,155.71,0,0,1-44.2-.1,146.83,146.83,0,0,1-42.7-13c-1.6-.8-3.2-1.6-4.7-2.4l-2.3-1.2-1.1-.6-1.1-.7c-3-1.8-5.9-3.5-8.8-5.3s-5.6-3.9-8.3-5.8-5.2-4.1-7.7-6.2a191.44,191.44,0,0,1-26.3-27.1,275.88,275.88,0,0,1-20.5-29.2c-.8-1.3-1.6-2.6-2.4-3.8l-2.3-4c-.4-.7-.7-1.4-1.1-2.1a20.36,20.36,0,0,1-.9-2.2c-.5-1.6-1.1-3.1-1.6-4.7-.3-.8-.6-1.5-.9-2.2a12.81,12.81,0,0,0-1.1-2,11.07,11.07,0,0,0-3-3.1c-1.2-.8-2.5-1.6-3.8-2.4s-2.8-1.4-4.2-2.2c-5.6-3-12.3-5.5-19.7-8.3-7.6-2.6-15.6-5.7-24.5-9.1-2.2-.9-4.3-1.8-6.5-2.8s-4.5-1.9-6.6-3-4.3-2.2-6.6-3.4l-3.3-1.8c-1.1-.6-2.1-1.3-3.1-1.9-2.1-1.3-4.2-2.6-6.3-4-1.9-1.4-3.9-2.9-5.8-4.4l-2.9-2.3c-1-.8-1.8-1.6-2.7-2.4-1.8-1.6-3.4-3.3-5.1-5.1a99,99,0,0,1-8.6-11l-1.8-2.9c-.6-1-1.1-2-1.6-2.9a53.55,53.55,0,0,1-2.9-5.9,80.23,80.23,0,0,1-6.1-24.4"/><path class="cls-2" d="M3.3,293.3c.1-3.2.2-6.4.5-9.6s.8-6.5,1.4-9.7a90.53,90.53,0,0,1,2.3-9.7c.5-1.6.9-3.2,1.5-4.8s1.2-3.1,1.9-4.7a91.17,91.17,0,0,1,24.5-33.9c2.8-2.4,5.6-4.7,8.6-6.9s6.2-4.2,9.2-6.1q4.8-2.85,9.6-5.4c1.6-.8,3.3-1.6,5-2.4s3.2-1.5,4.8-2.3,3.3-1.4,5-2.1l4.8-2c1.6-.7,3.3-1.2,4.9-1.8l4.7-1.8c1.5-.6,3.1-1.1,4.7-1.7s3-1.1,4.5-1.6c3-1.1,6-2,8.8-3s5.7-1.9,8.4-2.9a31.71,31.71,0,0,0,3.7-1.7,14.31,14.31,0,0,0,3.1-2.4,41.58,41.58,0,0,0,5.1-5.9,35.61,35.61,0,0,1,5.6-5.4A239.85,239.85,0,0,1,161.8,148a224.07,224.07,0,0,1,90.5-29.7,195.6,195.6,0,0,1,33.4-.6,198.72,198.72,0,0,1,68.4,16.7A196.5,196.5,0,0,1,459.5,248.5a204.5,204.5,0,0,1-59.8,222.9A192.53,192.53,0,0,1,359.2,498a178.3,178.3,0,0,1-44,14.8,162.24,162.24,0,0,1-43.7,2.5,149.75,149.75,0,0,1-42.9-10.2,163.59,163.59,0,0,1-35.2-19.5,198.8,198.8,0,0,1-28-24.9,306.47,306.47,0,0,1-22.8-27.4,13.3,13.3,0,0,1-1.4-1.9c-.5-.6-.9-1.3-1.4-1.9-.9-1.3-1.8-2.6-2.8-3.8a61.38,61.38,0,0,1-5.1-8.1,57.37,57.37,0,0,0-4.2-9,10.84,10.84,0,0,0-3.2-3.2l-4.2-2.4c-11.5-6.2-26.8-11.1-44.4-18.3l-3.3-1.4-1.7-.7-1.6-.8-6.7-3.1c-2.3-1.1-4.5-2.2-6.7-3.4s-4.5-2.4-6.6-3.8-4.2-2.7-6.3-4.2c-1.1-.7-2.1-1.4-3.2-2.2l-2.9-2.3c-2-1.6-3.8-3.2-5.8-4.9-.9-.8-1.7-1.7-2.6-2.6s-1.7-1.8-2.6-2.7l-2.5-2.7c-.8-.9-1.5-1.9-2.3-2.8-1.5-1.9-2.8-3.8-4.2-5.8a84.7,84.7,0,0,1-6.6-12.2c-.4-1-.8-2.1-1.3-3.1s-.7-2.1-1.1-3.2A47.07,47.07,0,0,1,6,316.4c-.5-2.1-1-4.3-1.3-6.4-.2-1.1-.4-2.1-.5-3.2s-.2-2.1-.3-3.2"/><path class="cls-2" d="M3.3,293.1c.1-3.2.2-6.3.4-9.5s.8-6.4,1.3-9.6a76.63,76.63,0,0,1,2.1-9.5c.4-1.6.9-3.2,1.4-4.7s1.2-3.1,1.8-4.7a93.26,93.26,0,0,1,23-34c1.3-1.2,2.7-2.4,4-3.6l2-1.7,2.1-1.7c2.9-2.2,5.9-4.3,8.8-6.3s6.1-3.8,9.1-5.6c1.5-.9,3.1-1.7,4.7-2.6l4.7-2.4c.8-.4,1.5-.8,2.3-1.2l2.4-1.1c1.6-.7,3.1-1.5,4.7-2.2l2.3-1.1,2.4-1c1.6-.6,3.1-1.3,4.6-1.9,3-1.3,6.1-2.4,9-3.6s5.9-2.2,8.7-3.3c1.4-.6,2.7-1.1,4.2-1.6l4.1-1.6a28,28,0,0,0,7.3-3.8,41.64,41.64,0,0,0,5.5-5.6l1.3-1.5c.2-.3.4-.5.6-.8l.7-.7c.9-.9,1.9-1.8,2.9-2.7a220.35,220.35,0,0,1,26-17.7A230.36,230.36,0,0,1,216,121.5a222.79,222.79,0,0,1,31.8-5.8,213,213,0,0,1,33-1.1,200.9,200.9,0,0,1,67.5,15.2A190.51,190.51,0,0,1,380.7,147a196.85,196.85,0,0,1,29.6,24,193.44,193.44,0,0,1,44.2,66.9,203.79,203.79,0,0,1,11.8,44.5A204.76,204.76,0,0,1,436.1,423,197.65,197.65,0,0,1,366,489.1a182.76,182.76,0,0,1-42.8,17,161,161,0,0,1-43.1,5,147.09,147.09,0,0,1-42.9-7.4,165.66,165.66,0,0,1-36-16.9,211.28,211.28,0,0,1-29.6-22.5,314.44,314.44,0,0,1-24.9-25.5c-2.1-2.4-4.2-4.9-6.4-7.5-1-1.3-2.1-2.6-3.1-3.8l-1.6-1.9c-.5-.7-1-1.3-1.5-2-1-1.3-2-2.7-2.9-4.1s-1.5-3.2-2.3-4.7c-1.6-3.1-3.3-5.9-6.2-7.6-1.5-.8-3-1.6-4.6-2.4s-3.3-1.5-4.9-2.3-3.4-1.6-5.2-2.3-3.6-1.6-5.5-2.3l-2.9-1.2c-.9-.4-2-.7-2.9-1.2-1.9-.8-4-1.6-6.1-2.4s-4.1-1.7-6.2-2.6-4.4-1.7-6.6-2.7c-4.3-2-9-3.9-13.4-6.2-2.2-1.1-4.6-2.3-6.8-3.5s-4.4-2.6-6.7-3.9a37,37,0,0,1-3.3-2.1c-1.1-.7-2.1-1.5-3.2-2.2-2.1-1.5-4.3-3-6.3-4.6s-3.9-3.3-5.8-5c-.9-.9-1.9-1.7-2.8-2.6L26.9,355c-.9-.9-1.7-1.9-2.5-2.8a33.57,33.57,0,0,1-2.4-2.9c-1.5-2-2.9-4-4.3-6a82.11,82.11,0,0,1-7-12.6l-.7-1.6-.6-1.6-1.2-3.3c-.7-2.2-1.5-4.4-2-6.6-.2-1.1-.5-2.2-.7-3.3L4.9,311a49.81,49.81,0,0,1-.9-6.6"/><path class="cls-2" d="M3.3,292.8c.1-3.1.2-6.2.4-9.4s.7-6.3,1.2-9.5,1.3-6.3,2-9.4c.4-1.6.8-3.1,1.3-4.7s1.1-3.1,1.7-4.6a96.94,96.94,0,0,1,21.5-34c2.5-2.5,5-4.9,7.6-7.2,1.3-1.2,2.7-2.2,4.1-3.3l4.2-3.2a173.68,173.68,0,0,1,17.6-11.2c12-6.7,24.2-11.8,35.3-16.5,5.4-2.5,11.2-4.3,15.8-7.1a18.31,18.31,0,0,0,3.1-2.4c.9-.9,1.9-1.8,2.8-2.8a74.11,74.11,0,0,1,5.4-5.8,58,58,0,0,1,6.2-4.9l3.2-2.3c.5-.4,1-.8,1.6-1.2l1.6-1.1c4.3-3,8.8-5.8,13.3-8.5a226,226,0,0,1,28.2-14.3,220.67,220.67,0,0,1,30-10.2,233.78,233.78,0,0,1,31.5-6.1,207.74,207.74,0,0,1,32.6-1.3,200.13,200.13,0,0,1,33.3,3.9,203.06,203.06,0,0,1,33.2,9.9,193.92,193.92,0,0,1,61.6,38.7,191.31,191.31,0,0,1,45.1,63.5,203.85,203.85,0,0,1-40.1,222.6,192.91,192.91,0,0,1-36.9,29.8,183.3,183.3,0,0,1-41.4,19,168.17,168.17,0,0,1-42.3,7.5,145,145,0,0,1-42.8-4.6,165,165,0,0,1-36.7-14.4,217.07,217.07,0,0,1-31-20.1,318.65,318.65,0,0,1-26.9-23.5c-2.4-2.4-4.9-4.7-7.2-7.2-1.2-1.2-2.4-2.5-3.6-3.7s-2.3-2.6-3.5-3.9c-.6-.6-1.2-1.3-1.8-1.9s-1.1-1.3-1.7-2c-1.1-1.3-2.2-2.7-3.2-4.1s-1.8-3.2-2.7-4.7a34.07,34.07,0,0,0-3-4.4c-2.2-2.7-5.7-4-9-5.7-.9-.4-1.7-.8-2.6-1.2s-1.7-.9-2.6-1.3c-1.8-.8-3.6-1.7-5.5-2.4a23.94,23.94,0,0,1-2.8-1.3c-1-.4-1.9-.8-2.9-1.3l-3-1.2c-1-.4-2-.9-3-1.3-2.1-.9-4.2-1.7-6.4-2.6l-3.2-1.5c-1.1-.5-2.2-1-3.3-1.4s-2.3-1-3.4-1.5l-3.3-1.6c-2.2-1.1-4.6-2.1-6.9-3.3l-6.8-3.7c-2.3-1.2-4.6-2.6-6.8-4s-4.5-2.8-6.7-4.3-4.2-3.1-6.3-4.8a76.45,76.45,0,0,1-6-5.1c-1-.9-1.9-1.8-2.9-2.7a23.67,23.67,0,0,1-2.7-2.8,89.34,89.34,0,0,1-9.5-12c-1.3-2.1-2.8-4.2-3.9-6.4s-2.2-4.4-3.2-6.6a100.12,100.12,0,0,1-4.8-13.6c-.6-2.3-1-4.6-1.4-6.9-.2-1.1-.4-2.3-.6-3.4s-.3-2.3-.4-3.4"/><path class="cls-2" d="M3.3,292.5c.1-3.1.2-6.2.4-9.3s.7-6.2,1.2-9.3,1.2-6.2,1.9-9.3c.4-1.6.8-3.1,1.2-4.6s1-3.1,1.6-4.6a97.77,97.77,0,0,1,20.1-34c1.1-1.3,2.4-2.5,3.5-3.7l3.6-3.6a15.37,15.37,0,0,1,1.9-1.7l2-1.7,4-3.3a96.76,96.76,0,0,1,8.2-6.1c1.4-1,2.7-2,4.2-2.9l4.3-2.7A349,349,0,0,1,95.5,178c1.4-.6,2.8-1.2,4.1-1.9l2-.9c.7-.3,1.4-.6,2-.9l4-1.8c1.3-.6,2.5-1.3,3.8-1.9a27.35,27.35,0,0,0,6.3-4.9c1.9-1.8,3.6-3.9,5.5-5.8a58.86,58.86,0,0,1,6.1-5.1c2.2-1.5,4.3-3.1,6.5-4.6s4.4-2.9,6.6-4.4,4.5-2.7,6.7-4.2A235,235,0,0,1,207,116.9c2.5-.6,5.1-1.3,7.7-2s5.2-1.1,7.8-1.6c1.3-.3,2.6-.5,3.9-.7l3.9-.7c1.3-.2,2.6-.5,4-.6l4-.5,4-.5c1.3-.2,2.7-.2,4-.4l4-.3,2-.2c.7,0,1.3-.1,2-.1l8.1-.3h8.1a216,216,0,0,1,32.8,3.4,185.94,185.94,0,0,1,32.8,9,195.06,195.06,0,0,1,31.7,15.1A189.78,189.78,0,0,1,443,218a200.49,200.49,0,0,1,14.8,42.6,205.4,205.4,0,0,1,5,46.6,208.14,208.14,0,0,1-5.9,47.6A202.27,202.27,0,0,1,439.8,400c-14.9,28.6-36.7,53.4-62.2,70.9a186.24,186.24,0,0,1-39.9,21,170.65,170.65,0,0,1-41.4,9.9,149.17,149.17,0,0,1-42.5-1.7,166.5,166.5,0,0,1-37.4-11.7,222.42,222.42,0,0,1-32.3-17.7,319.15,319.15,0,0,1-28.7-21.4c-1.4-1.1-2.7-2.2-4.1-3.3s-2.7-2.4-4-3.5c-.7-.6-1.3-1.2-2-1.7s-1.3-1.2-2-1.9c-1.3-1.2-2.6-2.5-4-3.7s-2.6-2.6-3.9-3.8c-.6-.6-1.3-1.3-2-1.9a18,18,0,0,1-1.9-2,36.22,36.22,0,0,1-3.6-4.2c-1.1-1.6-2-3.2-3.1-4.8-.5-.8-1.1-1.5-1.6-2.2l-.9-1.1c-.3-.3-.6-.7-.9-1a16.19,16.19,0,0,0-4.6-3.1c-1.7-.9-3.5-1.8-5.3-2.6-.9-.4-1.9-.8-2.8-1.3a23.94,23.94,0,0,0-2.8-1.3l-2.9-1.3c-1-.4-2-.8-3-1.3-1.9-.9-4-1.8-6.1-2.7s-4.1-1.9-6.3-2.8-4.4-1.9-6.6-3-4.5-2.1-6.8-3.2l-6.8-3.5c-1.2-.6-2.3-1.2-3.5-1.8l-3.4-2c-2.3-1.3-4.6-2.7-6.9-4.1a120.38,120.38,0,0,1-13.1-9.4l-3.1-2.6-1.6-1.3a19.2,19.2,0,0,1-1.5-1.4c-1-.9-1.9-1.8-2.9-2.8l-2.9-3A92.46,92.46,0,0,1,3.9,305.4"/><path class="cls-2" d="M3.3,292.2c.1-3,.2-6.1.4-9.2s.7-6.1,1.1-9.2a74.69,74.69,0,0,1,1.8-9.2c.3-1.5.7-3.1,1.1-4.6s1-3,1.5-4.5a101.94,101.94,0,0,1,18.7-33.9c1-1.3,2.2-2.5,3.3-3.8l3.4-3.6c2.3-2.4,4.9-4.6,7.3-6.8,1.3-1.1,2.5-2.2,3.8-3.3l4-3.1,4-3c1.3-1,2.8-1.9,4.1-2.8a292.48,292.48,0,0,1,32.9-18.8l4-2,3.9-2c1.4-.6,2.6-1.2,3.9-1.9s2.6-1.2,3.8-1.9l1.8-1a9.91,9.91,0,0,0,1.7-1.1,26,26,0,0,0,3.1-2.5c2-1.8,3.8-3.7,5.6-5.6,3.6-3.9,8-7,12.4-10,2.1-1.6,4.4-3,6.6-4.4,1.1-.7,2.2-1.5,3.3-2.2l3.4-2a228.44,228.44,0,0,1,57.7-24.9,241.76,241.76,0,0,1,30.9-6.4,240.77,240.77,0,0,1,31.9-1.9l4,.1c1.3,0,2.7,0,4,.1l8.1.5,8.1.9,2,.2,2,.3,4,.7a209.55,209.55,0,0,1,32.3,8.2,198.65,198.65,0,0,1,60.4,34,189.72,189.72,0,0,1,46.3,57.1,197.32,197.32,0,0,1,16.2,41.7,205.06,205.06,0,0,1,6.7,45.9,208.59,208.59,0,0,1-3.9,47.2,201.78,201.78,0,0,1-39.8,85.7A191.87,191.87,0,0,1,382,461.7a181.65,181.65,0,0,1-38.4,22.8,171.43,171.43,0,0,1-40.4,12.2,145.92,145.92,0,0,1-42.1,1,174,174,0,0,1-37.8-8.9,217.06,217.06,0,0,1-33.5-15.3,344.86,344.86,0,0,1-30.4-19.2c-.8-.5-1.5-1-2.3-1.5a18.39,18.39,0,0,1-2.2-1.7l-4.5-3.3c-1.5-1.1-2.9-2.4-4.4-3.5-.7-.6-1.5-1.2-2.2-1.7s-1.4-1.2-2.2-1.8c-1.4-1.2-2.9-2.5-4.4-3.7l-4.2-3.9c-.7-.6-1.4-1.3-2.1-1.9l-2.1-2a52.21,52.21,0,0,1-3.9-4.3c-1.1-1.6-2.3-3.3-3.4-4.9a22.67,22.67,0,0,0-4-4.2l-1.2-.9a14.8,14.8,0,0,0-1.3-.8l-2.7-1.4c-1.8-.9-3.7-1.9-5.7-2.8-1-.4-1.9-1-2.9-1.4l-3-1.4c-1-.5-2.1-.9-3.1-1.4s-2-1-3.1-1.5l-3.2-1.5c-1-.5-2.2-1-3.2-1.5-2.1-1.1-4.3-2.1-6.6-3.2s-4.3-2.3-6.7-3.4l-3.5-1.8c-1.2-.6-2.2-1.3-3.4-1.9-2.3-1.3-4.6-2.6-7-3.9l-6.8-4.3c-9-6-18-12.9-25.3-21A95.62,95.62,0,0,1,3.5,305.6"/><path class="cls-2" d="M3.3,291.9c.1-3,.2-6,.4-9.1s.6-6.1,1.1-9.1a91.25,91.25,0,0,1,1.7-9.1c.3-1.5.7-3,1-4.5s.9-3,1.4-4.5.9-3,1.5-4.5l.8-2.2c.3-.7.6-1.5.9-2.2q1.8-4.35,3.9-8.7c1.5-2.8,3.1-5.6,4.8-8.3s3.7-5.3,5.6-7.9c.9-1.3,2-2.6,3-3.8l3.2-3.7,3.3-3.6,3.5-3.4L43,204c1.2-1.1,2.5-2.1,3.7-3.2a87,87,0,0,1,7.6-6c2.7-1.9,5.1-3.8,7.9-5.6s5.3-3.5,7.9-5.1,5.4-3.2,8-4.7c1.3-.8,2.7-1.5,4-2.2L86,175c2.6-1.5,5.3-2.8,7.8-4.2l1.9-1a18.65,18.65,0,0,0,2-1l3.8-2a48.45,48.45,0,0,0,7-4.3,37.27,37.27,0,0,0,3-2.6c1-.9,1.9-1.8,2.9-2.8l2.8-2.9c1-.9,2-1.8,3-2.6,2.1-1.7,4.2-3.3,6.4-4.8,4.3-3.1,8.8-5.9,13.3-8.7a219.13,219.13,0,0,1,28-14.6A229.15,229.15,0,0,1,197.3,113c2.5-.7,5-1.3,7.5-2,2.5-.5,5.1-1.1,7.6-1.7,1.3-.3,2.5-.5,3.8-.8l3.8-.7c1.3-.2,2.6-.5,3.9-.7l3.9-.5c5.2-.8,10.4-1.2,15.7-1.7,2.6-.1,5.3-.3,7.9-.4,1.3-.1,2.6-.1,4-.1h4a202.43,202.43,0,0,1,31.9,2.4,211.59,211.59,0,0,1,31.7,7.6c2.6.9,5.3,1.7,7.8,2.7l7.8,3.1c2.6,1.1,5.1,2.3,7.7,3.5l1.9.9,1.9,1,3.8,2a195,195,0,0,1,28.9,18.7,189.56,189.56,0,0,1,46.7,54A202.05,202.05,0,0,1,455.4,286a204.27,204.27,0,0,1-2,46.8,200.41,200.41,0,0,1-12.7,45.4A206.4,206.4,0,0,1,418,419.1a192.06,192.06,0,0,1-31.1,33.7,182.59,182.59,0,0,1-36.7,24.6,176.33,176.33,0,0,1-39.3,14.5,149,149,0,0,1-41.5,3.8,180.48,180.48,0,0,1-38.1-6.1A228.12,228.12,0,0,1,196.8,477a337.44,337.44,0,0,1-32-16.9c-6.5-4-13.2-8.1-19.5-12.9-.8-.6-1.6-1.2-2.4-1.7l-2.4-1.8c-1.6-1.2-3.2-2.4-4.8-3.7-3-2.7-6.3-5.1-9.2-7.9-.7-.7-1.5-1.4-2.2-2.2-.3-.4-.7-.7-1-1.1a10.59,10.59,0,0,0-1-1.2,47.82,47.82,0,0,0-3.9-4.8c-.7-.7-1.4-1.5-2.1-2.2a23.48,23.48,0,0,0-2.5-1.9c-.9-.6-1.9-1-2.8-1.5l-2.9-1.5c-4-1.9-8-4.1-12.3-6.1-1.1-.5-2.1-1.1-3.2-1.6l-3.2-1.6c-1.1-.6-2.2-1.1-3.3-1.6L82.8,403l-3.4-1.7-1.7-.9-1.7-.9c-2.2-1.3-4.6-2.5-6.9-3.8-1.2-.7-2.3-1.4-3.4-2.1l-3.5-2.1c-1.2-.7-2.4-1.4-3.5-2.2L55.3,387l-3.4-2.4-1.7-1.2-1.6-1.3c-2.2-1.7-4.4-3.4-6.6-5.2a41.21,41.21,0,0,1-3.1-2.8l-3.1-2.9c-1-1-2.1-1.9-3.1-2.9l-2.8-3.1c-1-1-1.8-2.1-2.8-3.2l-1.4-1.6c-.5-.5-.8-1.1-1.3-1.6-1.7-2.2-3.2-4.5-4.8-6.8a25,25,0,0,1-2.1-3.5c-.7-1.2-1.3-2.4-2-3.6s-1.3-2.4-1.9-3.6-1.1-2.5-1.7-3.7-1-2.5-1.5-3.7-1-2.5-1.4-3.8-.8-2.5-1.2-3.8-.7-2.6-1-3.8-.7-2.6-1-3.8-.5-2.6-.7-3.9c-.4-2.6-.8-5.1-1.1-7.7"/><path class="cls-2" d="M3.4,291.7c.1-3,.2-5.9.3-8.9.3-3,.6-6,1-9s1-6,1.6-9c.3-1.5.6-3,1-4.5s.8-3,1.3-4.4.9-3,1.4-4.4.9-2.9,1.5-4.4,1.2-2.9,1.8-4.3,1.2-2.9,1.9-4.3c1.4-2.8,2.9-5.6,4.5-8.3a33.36,33.36,0,0,1,2.5-4l2.7-3.9a141,141,0,0,1,26.3-27.7c9.8-8.1,20.3-14.8,30.5-20.9,2.5-1.6,5.1-3,7.6-4.4l3.7-2.2c1.3-.7,2.5-1.4,3.8-2s2.5-1.3,3.7-2.1,2.4-1.4,3.5-2.2a39.19,39.19,0,0,0,3.2-2.5l3-2.7c7.3-7.9,16.5-13.7,25.4-19.3a240.44,240.44,0,0,1,28-14.6l3.6-1.6,1.8-.8a13.36,13.36,0,0,1,1.8-.7c2.4-.9,4.9-1.9,7.3-2.8s4.9-1.6,7.4-2.5a25.94,25.94,0,0,1,3.7-1.1c1.2-.4,2.5-.7,3.7-1.1a239,239,0,0,1,30.2-6.6,246,246,0,0,1,31-2.5,207.38,207.38,0,0,1,62.6,8.9,192.27,192.27,0,0,1,58.9,29.7l6.7,5.2,6.5,5.6c1.1.9,2.1,1.9,3.2,2.9l3.1,3c1,1,2.1,2,3.1,3.1l3,3.2a174.45,174.45,0,0,1,21.3,28.1,201.45,201.45,0,0,1,28.7,83.8,204,204,0,0,1-.1,46.2A202.09,202.09,0,0,1,420,408.4a194.93,194.93,0,0,1-29,34.7,189,189,0,0,1-34.9,26.3,176.61,176.61,0,0,1-38,16.7,152.07,152.07,0,0,1-40.8,6.5,178.47,178.47,0,0,1-38.3-3.4,228.52,228.52,0,0,1-35.4-10,327.18,327.18,0,0,1-33.4-14.5c-1.8-.9-3.6-1.9-5.4-2.8l-1.4-.7-1.3-.8-2.7-1.5c-3.6-1.9-7.1-4.2-10.6-6.3-1.8-1.1-3.5-2.3-5.2-3.5-.9-.6-1.7-1.2-2.6-1.7l-2.5-1.9c-.9-.6-1.7-1.2-2.6-1.9s-1.7-1.2-2.6-1.9c-1.7-1.3-3.3-2.6-5-4-3.3-2.7-6.7-5.4-9.3-9-2.8-3.4-5.6-6.6-9.7-8.6-8-4.3-16.6-8.7-25.7-13.6l-3.3-1.9-3.5-1.9c-2.4-1.2-4.5-2.7-6.9-4.1l-3.5-2.1a40.47,40.47,0,0,1-3.4-2.3l-3.5-2.3c-1.2-.8-2.4-1.5-3.5-2.4a151.9,151.9,0,0,1-25.6-22.6q-2.85-3.3-5.4-6.6c-1.7-2.3-3.3-4.6-4.8-7-.8-1.2-1.6-2.4-2.3-3.6s-1.4-2.4-2-3.7c-1.3-2.5-2.6-5-3.6-7.5-.5-1.3-1.1-2.6-1.5-3.9l-1.5-3.9c-.9-2.6-1.6-5.2-2.3-7.9-.3-1.3-.7-2.6-1-4s-.5-2.7-.7-4c-.4-2.7-.8-5.3-1.2-8"/><path class="cls-2" d="M3.4,291.4c.1-2.9.2-5.9.3-8.8.3-2.9.6-5.9.9-8.9s.9-5.9,1.5-8.9c.3-1.5.6-3,.9-4.4s.8-2.9,1.2-4.4.8-2.9,1.3-4.4a37.32,37.32,0,0,1,1.4-4.4c1.1-2.9,2.2-5.7,3.4-8.6a117.3,117.3,0,0,1,8.9-16.3A147.05,147.05,0,0,1,47.7,194a235.57,235.57,0,0,1,29.2-21.8l3.7-2.4c1.2-.8,2.5-1.5,3.7-2.3s2.5-1.5,3.7-2.3l1.8-1.1c.6-.4,1.3-.7,1.9-1.1,2.5-1.4,4.9-2.8,7.2-4.3a34.63,34.63,0,0,0,6.5-4.9c2.1-1.7,4-3.6,5.9-5.4a24.29,24.29,0,0,1,3-2.6c1-.8,2.1-1.7,3.2-2.5,2.1-1.6,4.4-3,6.6-4.5,1.1-.7,2.2-1.5,3.3-2.2l3.4-2.1a225.07,225.07,0,0,1,27.8-14.8A260.78,260.78,0,0,1,187.7,109a218.86,218.86,0,0,1,29.9-6.7l3.8-.6,1.9-.3c.6-.1,1.3-.1,1.9-.2,2.6-.3,5.1-.6,7.6-.8s5.1-.3,7.7-.5c1.3-.1,2.6-.2,3.8-.2l3.8-.1c5.2-.2,10.3.1,15.4.2l7.7.6,1.9.1,1.9.2,3.9.5a192.28,192.28,0,0,1,30.7,6.3,212.78,212.78,0,0,1,29.9,11.3,204.43,204.43,0,0,1,28.1,16.5A185,185,0,0,1,393,156.9a177.85,177.85,0,0,1,21.5,26.5,203,203,0,0,1,33.2,127.4,198.4,198.4,0,0,1-8.5,45.1,195.82,195.82,0,0,1-18.4,41.8A201.88,201.88,0,0,1,394,433.4,186.85,186.85,0,0,1,324.4,480a154.35,154.35,0,0,1-39.9,9.2,180.91,180.91,0,0,1-38.3-.6,226.48,226.48,0,0,1-36.1-7.4,324.63,324.63,0,0,1-34.7-12.1,214.1,214.1,0,0,1-45.5-25.4c-1.8-1.4-3.6-2.7-5.4-4s-3.5-2.8-5.2-4.4a28.34,28.34,0,0,1-2.4-2.5l-2.3-2.6c-.8-.9-1.6-1.6-2.4-2.4a19.4,19.4,0,0,0-2.6-2.3,29,29,0,0,0-2.9-1.9c-1.1-.6-2.1-1.1-3.2-1.7l-3.2-1.8L97,418.4c-2.1-1.3-4.3-2.5-6.6-3.7l-1.7-.9-1.6-1c-1.1-.7-2.2-1.3-3.4-2s-2.3-1.3-3.5-2l-3.4-2.1-3.5-2.1-1.8-1.1-1.7-1.1c-2.2-1.5-4.6-3-7-4.6l-6.9-5a157.63,157.63,0,0,1-25.6-23.5A116.67,116.67,0,0,1,12,339.9a108.23,108.23,0,0,1-5.3-16.1,116.33,116.33,0,0,1-2.9-16.5"/><path class="cls-2" d="M3.4,291.1l.3-8.7c.3-2.9.5-5.8.9-8.8.2-2.9.9-5.8,1.3-8.8.3-1.5.5-2.9.8-4.4s.7-2.9,1.1-4.4c.8-2.9,1.5-5.8,2.4-8.7s2-5.7,3.1-8.5c.5-1.4,1.2-2.8,1.8-4.2s1.3-2.8,2-4.1a77.41,77.41,0,0,1,4.4-8,140.48,140.48,0,0,1,22.8-28.7A235,235,0,0,1,72.1,171c2.5-1.6,4.7-3.4,7.2-4.9s4.8-3.1,7.2-4.7,4.9-2.9,7.2-4.4c1.1-.8,2.3-1.5,3.5-2.2l3.3-2.4c2.1-1.7,4.1-3.4,6.1-5.3l3-2.7,3.1-2.5c2.1-1.6,4.3-3.2,6.5-4.6l3.3-2.2c1.1-.7,2.2-1.5,3.3-2.2,2.3-1.4,4.5-2.7,6.8-4.1s4.6-2.5,6.9-3.8a38.37,38.37,0,0,1,3.5-1.8l3.5-1.7c1.2-.6,2.3-1.2,3.5-1.7l3.6-1.6a228.59,228.59,0,0,1,28.8-10.8c2.4-.8,4.9-1.4,7.3-2l3.7-1c1.2-.3,2.5-.5,3.7-.8,2.5-.5,4.9-1.2,7.4-1.6s5-.9,7.5-1.3c1.2-.3,2.5-.4,3.7-.6l3.8-.5,3.8-.5,3.8-.3,3.8-.3c1.3-.1,2.5-.3,3.8-.3l7.6-.3a220.9,220.9,0,0,1,30.4,1.3,226.07,226.07,0,0,1,30.2,5.7,227.8,227.8,0,0,1,29.3,10.5c2.4,1.1,4.7,2.3,7.1,3.4s4.6,2.5,7,3.7,4.6,2.7,6.9,4l3.4,2.1c1.1.7,2.2,1.5,3.3,2.2l3.3,2.3c1.1.8,2.2,1.5,3.3,2.3l6.4,4.9c4.1,3.5,8.3,7,12.2,10.8l3,2.8,2.8,3,2.8,3,1.4,1.5,1.3,1.6c1.8,2.1,3.6,4.2,5.3,6.4s3.3,4.5,5,6.7a201.94,201.94,0,0,1,34,79.7,205.42,205.42,0,0,1-2.9,89.6A197.82,197.82,0,0,1,397,423.7a190.68,190.68,0,0,1-66.2,50.1,160.48,160.48,0,0,1-38.9,11.8,175.62,175.62,0,0,1-38.1,2.2,234.6,234.6,0,0,1-36.7-4.7,311.39,311.39,0,0,1-35.8-9.7c-1-.3-2.1-.7-3.1-1s-2.1-.8-3.1-1.2c-2.1-.8-4.2-1.5-6.3-2.4s-4.1-1.8-6.2-2.6c-.5-.2-1-.4-1.6-.7l-1.5-.7c-1-.5-2.1-1-3.1-1.5a202.91,202.91,0,0,1-24.3-13.7c-2-1.2-3.9-2.6-5.9-4s-3.9-2.7-5.8-4.2a61.93,61.93,0,0,1-5.5-4.7c-1.7-1.7-3.3-3.6-5.1-5.2a30.84,30.84,0,0,0-2.7-2.4,32.12,32.12,0,0,0-3-2.1c-2.2-1.3-4.4-2.5-6.6-3.8l-3.4-1.9-3.3-2-3.4-2-1.7-1L84,415.2a272.43,272.43,0,0,1-27.6-19,155.17,155.17,0,0,1-25.5-24.5c-.9-1.2-2-2.3-2.8-3.5l-2.6-3.6-2.6-3.7a29.55,29.55,0,0,1-2.3-3.8c-.8-1.3-1.5-2.6-2.2-3.8s-1.5-2.6-2.1-3.9c-1.3-2.6-2.5-5.3-3.7-8a125.48,125.48,0,0,1-8.4-33.6"/><path class="cls-2" d="M3.4,290.8c.1-2.9.1-5.7.3-8.6s.5-5.8.8-8.6.8-5.8,1.2-8.7c.2-1.4.5-2.9.7-4.3a33.38,33.38,0,0,1,1-4.3A126.88,126.88,0,0,1,20,223c1.5-2.6,2.9-5.3,4.6-7.8s3.3-5.1,5.1-7.5,3.7-4.8,5.6-7.1,4-4.5,6-6.8a208.47,208.47,0,0,1,26.4-23.6c2.4-1.7,4.7-3.4,7-5.1s4.7-3.2,7-4.8c1.2-.8,2.3-1.6,3.5-2.3l3.5-2.3c1.2-.7,2.3-1.5,3.5-2.3a40.47,40.47,0,0,0,3.4-2.3c2.2-1.6,4.2-3.4,6.3-5.1l3-2.6c1-.9,2-1.8,3-2.6,2.1-1.6,4.3-3.2,6.4-4.7s4.5-2.9,6.7-4.3a246.07,246.07,0,0,1,27.6-14.9,237.28,237.28,0,0,1,28.7-10.8,247.45,247.45,0,0,1,29.2-6.9,211.88,211.88,0,0,1,29.8-3,209.58,209.58,0,0,1,59.5,6.2l7.3,2,7.2,2.3c2.4.7,4.8,1.7,7.2,2.6l3.6,1.4c1.2.5,2.3,1,3.5,1.5a179,179,0,0,1,27.3,14.5c4.4,2.7,8.6,5.9,12.8,8.9,2,1.6,4.1,3.3,6.1,5l1.5,1.2,1.5,1.3,2.9,2.7,2.9,2.7,2.8,2.8,2.8,2.8,1.4,1.4,1.3,1.5c1.8,2,3.5,4,5.3,6s3.3,4.2,5,6.3a204,204,0,0,1,37.3,166,199,199,0,0,1-36.4,79.1A192.33,192.33,0,0,1,370,445a195.71,195.71,0,0,1-33.5,22.7A162.65,162.65,0,0,1,298.8,482a183.32,183.32,0,0,1-37.8,5,231.33,231.33,0,0,1-37.2-1.9,304,304,0,0,1-36.9-7.2,232.12,232.12,0,0,1-26.7-8.9,219.5,219.5,0,0,1-26.1-13.1c-2.1-1.3-4.2-2.6-6.4-3.9s-4.1-2.8-6.2-4.2c-1-.7-2.1-1.4-3.1-2.2l-3-2.3c-1-.8-2-1.6-2.9-2.4l-2.7-2.7c-.9-.9-1.8-1.8-2.7-2.6s-1.9-1.7-2.9-2.5a36.63,36.63,0,0,0-6.5-4.3c-2.3-1.4-4.5-2.8-6.9-4.1-2.3-1.5-4.6-2.9-6.9-4.4a294.52,294.52,0,0,1-27.8-20.1l-6.8-5.8c-2.2-2.1-4.3-4.2-6.5-6.2-1.1-1-2.1-2.1-3.2-3.2l-3.1-3.4c-1-1.1-2.1-2.2-3-3.4s-1.9-2.4-2.8-3.6a121,121,0,0,1-18.4-31.4,128.6,128.6,0,0,1-8.5-34.7"/><path class="cls-2" d="M3.4,290.5a180.59,180.59,0,0,1,3.7-34.1,141,141,0,0,1,11.4-33.1l2-3.9,1-2a18.58,18.58,0,0,0,1.1-1.9c1.5-2.5,3.1-5.1,4.7-7.6s3.4-4.8,5.2-7.2l1.3-1.8c.5-.6.9-1.2,1.4-1.7l2.8-3.4,2.8-3.4,3-3.2,3-3.2c.5-.5,1-1.1,1.5-1.6l1.6-1.5c2.2-2,4.2-4,6.4-6l6.6-5.6c8.9-7.3,18.2-13.7,27.3-19.8a51.57,51.57,0,0,0,6.4-4.9c2.1-1.6,4.1-3.4,6.2-5.1.5-.4,1-.9,1.5-1.3l1.6-1.2c1.1-.8,2.1-1.6,3.2-2.3s2.2-1.5,3.3-2.3l3.4-2.1c4.4-2.9,9-5.4,13.6-8l6.9-3.6c1.1-.6,2.3-1.1,3.5-1.7l3.5-1.6c1.2-.5,2.3-1.1,3.5-1.6l3.6-1.5c2.4-1,4.7-2,7.1-2.9s4.8-1.8,7.1-2.6,4.8-1.5,7.2-2.3l1.8-.6c.6-.2,1.2-.3,1.8-.5l3.6-1,3.6-1,3.6-.9c2.4-.5,4.8-1.1,7.2-1.7s4.9-.9,7.3-1.4l1.8-.3,1.8-.3,3.7-.5c2.4-.3,4.9-.8,7.3-.9s4.9-.5,7.3-.7,4.9-.2,7.4-.4c1.2-.1,2.5-.2,3.7-.2h11.1l7.4.3a24,24,0,0,1,3.7.3l3.7.3,3.7.3c1.2.1,2.4.3,3.6.5l7.3,1c4.8,1,9.7,1.7,14.4,3,4.8,1,9.5,2.6,14.3,3.9,4.7,1.7,9.4,3.2,14,5.2,4.7,1.8,9.1,4,13.7,6.2,4.4,2.4,8.9,4.7,13.1,7.4l3.2,2c1.1.6,2.1,1.4,3.2,2.1,2.1,1.4,4.2,2.8,6.3,4.3s4,3.1,6.1,4.6l3,2.4,2.9,2.5c1,.8,2,1.7,2.9,2.5l2.8,2.7,2.8,2.7,1.4,1.3,1.3,1.4c1.8,1.9,3.5,3.8,5.3,5.7s3.3,4,5,6a204.52,204.52,0,0,1,45.7,118.6,213.91,213.91,0,0,1-2.4,43.8,200.51,200.51,0,0,1-32,79.5,196.52,196.52,0,0,1-58.8,56.3A167.67,167.67,0,0,1,306,477.7a182.23,182.23,0,0,1-37.3,7.8,233.7,233.7,0,0,1-37.4.9,276.79,276.79,0,0,1-37.8-4.7,200.24,200.24,0,0,1-56.5-20c-1.1-.6-2.3-1.2-3.5-1.8s-2.2-1.3-3.4-2l-3.4-2-1.7-1-1.6-1.1c-2.2-1.5-4.4-2.9-6.6-4.4s-4.3-3.1-6.4-4.8c-4-3.6-7.7-7.4-12.1-10.5-1.1-.8-2.3-1.5-3.5-2.2l-3.5-2.3c-1.2-.8-2.4-1.5-3.6-2.2s-2.3-1.6-3.5-2.4c-4.8-3.1-9.4-6.5-14.2-10-2.3-1.8-4.6-3.6-7-5.5l-6.9-5.8a189.49,189.49,0,0,1-25.3-26.8A132.46,132.46,0,0,1,4.1,308.7"/><path class="cls-2" d="M3.4,290.3a192.39,192.39,0,0,1,3.4-33.6l1.8-8.4c.8-2.8,1.6-5.5,2.4-8.3s1.9-5.5,2.8-8.2l1.6-4.1c.5-1.4,1.2-2.7,1.8-4,1.2-2.6,2.4-5.3,3.8-7.8s2.8-5.1,4.3-7.6c.7-1.3,1.5-2.5,2.3-3.7L30,201c.8-1.2,1.6-2.4,2.5-3.6l2.7-3.5c3.5-4.6,7.4-9,11.3-13.2l6.1-6.1c1-1,2.1-2,3.1-2.9l3.2-2.9a265,265,0,0,1,26.5-20.5c2.2-1.6,4.5-3.1,6.6-4.7s4.2-3.3,6.2-5a116.83,116.83,0,0,1,12.8-9.4A232.56,232.56,0,0,1,224,93.1c2.4-.1,4.8-.1,7.3-.2l1.8-.1h1.8l3.6.1c4.8,0,9.6.4,14.4.7,2.4.2,4.8.5,7.2.8l3.6.4,3.6.6c2.4.4,4.8.7,7.1,1.2l7.1,1.5a192.51,192.51,0,0,1,27.7,8.5,187.14,187.14,0,0,1,26.3,12.7,181.15,181.15,0,0,1,24.2,16.9c1,.8,1.9,1.5,2.9,2.4l2.8,2.5,2.8,2.5a16.61,16.61,0,0,1,1.4,1.3l1.3,1.3,5.3,5.3,5,5.6a212.42,212.42,0,0,1,24.1,34.2,202.2,202.2,0,0,1,16.8,39.1,202.18,202.18,0,0,1-19.8,165.2,201.94,201.94,0,0,1-54.8,59.1,169.16,169.16,0,0,1-35,19.2,188,188,0,0,1-36.6,10.6,234.72,234.72,0,0,1-37.5,3.7,278.56,278.56,0,0,1-38.5-2.1c-1.2-.2-2.5-.3-3.7-.5l-1.9-.2c-.6-.1-1.2-.2-1.9-.3-2.5-.5-5-.9-7.5-1.4-5-1.2-10.1-2.2-15.1-3.8a192.21,192.21,0,0,1-30-11.4,197.93,197.93,0,0,1-28.6-16.8c-4.7-3.1-8.5-7.3-12.9-10.8-1.1-.9-2.2-1.8-3.4-2.6l-3.6-2.4c-2.4-1.6-4.8-3.3-7.3-4.9a267.94,267.94,0,0,1-28.3-22.7,193.52,193.52,0,0,1-25.2-28.1,143.74,143.74,0,0,1-18-33.7,139.08,139.08,0,0,1-8.4-36.9"/><path class="cls-2" d="M3.4,290a208.2,208.2,0,0,1,3.1-33.2c.5-2.8,1.1-5.5,1.6-8.3.7-2.7,1.4-5.5,2.2-8.2a76.35,76.35,0,0,1,2.6-8.1c1-2.7,1.8-5.4,3-8s2.2-5.3,3.4-7.9,2.6-5.1,4-7.6,2.9-5,4.4-7.4l2.3-3.6c.8-1.2,1.6-2.4,2.5-3.5a172.19,172.19,0,0,1,22.3-25.8c4-4,8.3-7.6,12.5-11.2l6.5-5.1,1.6-1.3,1.7-1.2,3.3-2.4,3.3-2.4c1.1-.8,2.2-1.5,3.3-2.3s2.2-1.6,3.2-2.4l1.6-1.2,1.6-1.2c2.1-1.6,4.2-3.2,6.2-4.9,2.1-1.5,4.3-3,6.5-4.5s4.5-2.8,6.7-4.1l3.3-2c1.1-.7,2.3-1.2,3.4-1.9,2.3-1.2,4.5-2.5,6.8-3.6l6.9-3.3a13,13,0,0,1,1.7-.8l1.8-.7c1.2-.5,2.3-1,3.5-1.5s2.3-1,3.5-1.5,2.3-.9,3.5-1.3c2.3-.9,4.6-1.8,7-2.6s4.7-1.5,7-2.3l1.7-.6,1.8-.5,3.5-1,3.5-1c1.2-.4,2.4-.6,3.5-.9,2.4-.6,4.7-1.1,7.1-1.7s4.7-.9,7.1-1.4c1.2-.2,2.4-.5,3.5-.7l3.6-.5,3.6-.5c1.2-.2,2.4-.4,3.6-.5,2.4-.2,4.8-.5,7.1-.7l1.8-.2,1.8-.1,3.6-.2a218.28,218.28,0,0,1,56.5,4.3l6.9,1.7c1.1.3,2.3.5,3.4.9l3.4,1,3.4,1c1.1.3,2.3.7,3.4,1.1l6.7,2.4c1.1.4,2.2.8,3.3,1.3l3.3,1.4,3.3,1.3c1.1.4,2.1,1,3.2,1.5,2.1,1,4.3,2,6.4,3.1s4.2,2.3,6.3,3.4,4.1,2.4,6.2,3.6,4.1,2.4,6,3.8,3.9,2.7,5.9,4.1,3.8,2.9,5.7,4.4c.9.7,1.9,1.4,2.8,2.2l2.7,2.3,2.7,2.3c.5.4.9.8,1.4,1.2l1.3,1.3c1.7,1.7,3.5,3.3,5.2,5s3.3,3.5,5,5.3a204.1,204.1,0,0,1,24.9,33.2,209.82,209.82,0,0,1,18,38,200.25,200.25,0,0,1,9.9,41.1,207.23,207.23,0,0,1,1.2,42.4,200.9,200.9,0,0,1-23.2,79.8,206.66,206.66,0,0,1-50.7,61.6,178.83,178.83,0,0,1-33.4,21.5A191,191,0,0,1,283.3,483a234,234,0,0,1-37.4,6.5,255.71,255.71,0,0,1-39.2.4,197.83,197.83,0,0,1-31.9-4.6,196.51,196.51,0,0,1-62.5-26.9c-2.4-1.6-4.9-3.3-7.2-5.1-1.2-.9-2.3-1.8-3.4-2.8l-3.4-2.9c-2.3-1.9-4.5-3.8-6.9-5.6-1.2-.9-2.5-1.7-3.7-2.6L84,436.7a246.66,246.66,0,0,1-28.7-24c-2.2-2.3-4.5-4.5-6.7-6.9l-6.4-7.2c-2-2.5-4-5.1-6.1-7.6s-3.8-5.3-5.7-7.9A154.58,154.58,0,0,1,4.2,310.2"/><path class="cls-2" d="M3.4,289.7A241.66,241.66,0,0,1,6.1,257c.5-2.7,1-5.5,1.5-8.2s1.3-5.4,1.9-8.1c.3-1.4.6-2.7,1-4.1l1.2-4,1.3-4,.6-2c.2-.7.5-1.3.7-2,1-2.6,2-5.2,3.1-7.8s2.4-5.1,3.6-7.7c.6-1.3,1.2-2.5,1.9-3.8l2.1-3.7,2.1-3.7,1.1-1.8,1.2-1.8c1.6-2.4,3.1-4.7,4.7-7s3.4-4.5,5.1-6.7,3.6-4.3,5.4-6.4,3.6-4.2,5.7-6.2a203.72,203.72,0,0,1,24.8-21.8l3.3-2.4c1.1-.8,2.1-1.6,3.3-2.4,2.2-1.5,4.4-3.1,6.4-4.7,1-.8,2.1-1.6,3.2-2.4l3.2-2.4c1.1-.8,2.1-1.6,3.1-2.4l3.3-2.2,3.3-2.1,1.6-1.1c.5-.3,1.1-.7,1.7-1,2.2-1.3,4.5-2.6,6.7-3.9s4.6-2.4,6.8-3.6a35.92,35.92,0,0,1,3.4-1.7l3.5-1.6,3.4-1.6c1.1-.5,2.3-1.1,3.4-1.5,2.3-1,4.6-1.9,6.9-2.8s4.7-1.7,7-2.5c1.2-.4,2.3-.8,3.5-1.3s2.3-.7,3.5-1.1c2.3-.7,4.6-1.5,7-2.1l7-1.8c2.3-.7,4.7-1.1,7-1.6l3.5-.8,1.7-.4,1.8-.3,7-1.2c1.2-.2,2.3-.4,3.5-.5l3.5-.4c4.7-.7,9.4-.9,14-1.3,2.3-.1,4.7-.1,7-.2l3.5-.1c1.2-.1,2.3,0,3.5,0l7,.1c2.3.1,4.6.3,7,.4l3.5.2c1.2.1,2.3.2,3.5.4l6.9.8c2.3.3,4.6.7,6.8,1.1l3.4.6c1.1.2,2.3.5,3.4.7l6.8,1.5,6.7,1.8,3.3.9,3.3,1.1c2.2.7,4.4,1.4,6.6,2.2,4.3,1.7,8.6,3.2,12.8,5.2l3.2,1.4a29.62,29.62,0,0,1,3.1,1.5c2.1,1,4.1,2.1,6.2,3.1a177.51,177.51,0,0,1,44.4,33.3,207.3,207.3,0,0,1,44.7,69,212.54,212.54,0,0,1,11.4,40,207,207,0,0,1,2.9,41.6,204.69,204.69,0,0,1-18.8,79.5,210.35,210.35,0,0,1-46.5,63.9,182.37,182.37,0,0,1-31.6,23.7,192.65,192.65,0,0,1-34.9,16c-24.1,8.3-49.6,12.4-76.9,12.4a192.46,192.46,0,0,1-33.5-3.1c-1.4-.3-2.8-.5-4.2-.8s-2.9-.5-4.2-.9l-8.5-2.1c-2.8-.9-5.6-1.7-8.4-2.6-1.4-.4-2.8-1-4.2-1.5l-4.2-1.5a192.94,192.94,0,0,1-32.6-16c-2.6-1.6-5.3-3.2-7.8-5-1.3-.9-2.5-1.8-3.8-2.7-.6-.5-1.3-.9-1.9-1.4l-1.8-1.5c-4.8-4-9.5-8-14.7-11.6l-3.8-2.9c-1.3-1-2.6-1.9-3.8-2.9L69,430.5,61.8,424c-1.2-1.1-2.3-2.3-3.5-3.4l-3.5-3.5a198.26,198.26,0,0,1-24.7-31.2,152.22,152.22,0,0,1-17.8-36.2,165.09,165.09,0,0,1-8.2-39.1"/><path class="cls-2" d="M3.4,289.4a271.52,271.52,0,0,1,2.4-32.3c.4-2.7.9-5.4,1.3-8.1s1.1-5.4,1.7-8.1l.9-4,1.1-4c.8-2.6,1.5-5.3,2.3-8a159.1,159.1,0,0,1,33-57.3,200.62,200.62,0,0,1,23.8-22.4c2.1-1.6,4.3-3.2,6.4-4.9l1.6-1.2,1.6-1.1,3.2-2.3c1.1-.8,2.1-1.6,3.2-2.4s2.1-1.5,3.2-2.3c2.1-1.5,4.2-3.1,6.3-4.5s4.4-2.8,6.5-4.2l1.6-1,1.7-.9,3.4-1.9c4.4-2.6,9-4.7,13.5-7,4.6-2,9.1-4.2,13.7-5.9,1.1-.4,2.3-.9,3.4-1.3s2.3-.9,3.4-1.3c2.3-.8,4.6-1.6,6.9-2.3,1.1-.4,2.3-.7,3.5-1.1l3.5-1c2.3-.7,4.6-1.4,6.9-1.9s4.6-1.1,6.9-1.7,4.6-.9,6.9-1.4l3.5-.7c1.2-.2,2.3-.3,3.5-.5,2.3-.3,4.6-.7,6.9-1s4.6-.5,6.9-.7l3.4-.4,3.5-.2c2.3-.1,4.6-.2,6.9-.4h10.3c1.1,0,2.3.1,3.4.1l6.8.3a221.67,221.67,0,0,1,27,3.6,197,197,0,0,1,50.8,17.4c2,1.1,3.9,2.1,5.9,3.2l2.9,1.6,2.9,1.8c1.9,1.2,3.8,2.3,5.7,3.6s3.7,2.6,5.5,3.8a171,171,0,0,1,20.7,17.3,209.91,209.91,0,0,1,46.4,66.7A205.73,205.73,0,0,1,412.8,248a198.82,198.82,0,0,1,4.5,40.6,209.63,209.63,0,0,1-3.4,40.5,193.57,193.57,0,0,1-11.2,38.5,214.27,214.27,0,0,1-42,65.9,185.05,185.05,0,0,1-29.8,25.7,195,195,0,0,1-33.7,18.7,224.36,224.36,0,0,1-76.9,17.8,173.22,173.22,0,0,1-35.1-1.3,182.33,182.33,0,0,1-35.7-8.2,191.25,191.25,0,0,1-66.4-38.1,215.61,215.61,0,0,1-29.8-26.9,203.53,203.53,0,0,1-24.6-32.8A178.84,178.84,0,0,1,3.6,310.5"/><path class="cls-2" d="M3.4,289.1a286.1,286.1,0,0,1,2.1-31.8c.4-2.7.8-5.3,1.1-8s1-5.3,1.5-8l.8-4c.3-1.3.6-2.6,1-4,.7-2.6,1.3-5.3,2.1-7.9a181,181,0,0,1,12.1-30.5c1.3-2.4,2.7-4.8,4-7.2.7-1.2,1.4-2.4,2.1-3.5l2.3-3.4,2.3-3.4a39.76,39.76,0,0,1,2.4-3.3c1.7-2.2,3.3-4.3,5-6.5a38.76,38.76,0,0,1,2.6-3.1l2.7-3,2.7-3c.9-1,1.9-1.9,2.9-2.9,1.9-1.9,3.8-3.8,5.8-5.6s4.1-3.5,6.1-5.3l1.5-1.3c.5-.4,1.1-.8,1.6-1.2l3.2-2.4c2.1-1.6,4.2-3.3,6.4-4.7s4.3-3.1,6.4-4.6,4.3-2.9,6.4-4.4a183.42,183.42,0,0,1,26.5-15l3.4-1.6c1.1-.5,2.3-1,3.4-1.5,2.3-1,4.5-1.9,6.8-2.9,2.3-.8,4.6-1.7,6.8-2.5,1.1-.4,2.3-.8,3.4-1.2s2.3-.7,3.4-1.1c2.3-.7,4.5-1.5,6.8-2.1l6.9-1.8,3.4-.9,3.4-.7,6.8-1.5c4.6-.7,9.1-1.7,13.7-2.1,2.3-.3,4.5-.6,6.8-.8s4.5-.3,6.8-.5c1.1-.1,2.3-.2,3.4-.2l3.4-.1,6.8-.2,6.8.2,3.4.1c1.1.1,2.2.2,3.4.2l6.7.5c2.2.2,4.4.5,6.6.8,4.4.4,8.8,1.3,13.1,2l1.6.3a9.36,9.36,0,0,1,1.6.4l3.2.7,3.2.7c1.1.2,2.1.5,3.2.8,4.2,1.2,8.5,2.3,12.6,3.8a189,189,0,0,1,24.2,9.9c3.9,2,7.8,3.9,11.5,6.2l2.8,1.6c.9.5,1.9,1.1,2.8,1.7l5.4,3.6a177.72,177.72,0,0,1,20.4,16.3A219.75,219.75,0,0,1,372,169.1a209.41,209.41,0,0,1,20.9,34.6,205.71,205.71,0,0,1,13.9,37.7A212,212,0,0,1,413,281a204.05,204.05,0,0,1-10.4,78.3A217.66,217.66,0,0,1,365.1,427a195.47,195.47,0,0,1-60.3,48.9,219.07,219.07,0,0,1-76.5,23.3,185.54,185.54,0,0,1-36.6.7,191,191,0,0,1-37.6-6.9,193.11,193.11,0,0,1-36.8-14.9l-4.5-2.4c-1.5-.8-2.9-1.7-4.4-2.6-2.9-1.8-5.8-3.5-8.6-5.4a97.11,97.11,0,0,1-8.3-6l-4-3.2a15.58,15.58,0,0,1-2-1.6l-2-1.6c-1.3-1.1-2.7-2.2-4-3.2l-2-1.6-2-1.7-4-3.4-2-1.7-1.9-1.8-3.8-3.6-1.9-1.8c-.6-.6-1.2-1.3-1.8-1.9l-3.6-3.8c-1.2-1.3-2.4-2.5-3.5-3.9A197.24,197.24,0,0,1,4.4,311.7"/><path class="cls-2" d="M3.4,288.8v-5.9c0-.7.1-1.3.1-1.9.1-2.6.3-5.2.4-7.8l.1-2,.2-2,.3-3.9.3-3.9.2-2,.3-2c.3-2.6.7-5.3,1-7.9.1-1.3.4-2.6.6-3.9l.6-3.9c.8-5.3,2.1-10.5,3.3-15.7.7-2.6,1.5-5.2,2.2-7.8l1.1-3.9,1.4-3.8c.9-2.5,1.8-5.1,2.8-7.6s2.2-5,3.3-7.4a155.64,155.64,0,0,1,16.7-27.7c.8-1.1,1.6-2.2,2.4-3.2l2.6-3.1c1.8-2,3.4-4.1,5.3-6s3.7-3.8,5.6-5.7l1.4-1.4,1.5-1.3,3-2.7c3.9-3.6,8.1-6.8,12.2-10,2.1-1.5,4.3-3,6.4-4.5l3.2-2.2,3.2-2.1a215.06,215.06,0,0,1,53.2-25.7A224.36,224.36,0,0,1,165.4,93c4.5-1,9-1.5,13.5-2.2l1.7-.2,1.7-.2,3.4-.3,3.4-.3,3.3-.3,6.7-.3c1.1,0,2.2-.1,3.3-.1h9.9l6.6.4,3.3.2,3.3.3,6.5.7c1.1.1,2.2.3,3.2.4l3.2.5,3.2.5c1.1.2,2.1.3,3.2.5l6.3,1.3c1.1.2,2.1.4,3.2.7l3.1.8,6.2,1.6,6.1,1.9,3,1c1,.3,2,.7,3,1.1,2,.7,4,1.5,6,2.2s3.9,1.7,5.9,2.5,3.9,1.6,5.8,2.6,3.8,1.9,5.7,2.8a24.87,24.87,0,0,1,2.8,1.5l2.8,1.5c3.7,2,7.3,4.3,10.8,6.5a174.62,174.62,0,0,1,20.1,15.3,228.47,228.47,0,0,1,27.6,28.9,212.11,212.11,0,0,1,21.7,33.4l1.2,2.2a22.56,22.56,0,0,1,1.1,2.2l2.1,4.5,1.1,2.2a22.88,22.88,0,0,0,1,2.3l2,4.6c.7,1.5,1.2,3.1,1.8,4.6l1.8,4.6,1.5,4.7.8,2.3a21.72,21.72,0,0,1,.7,2.4,203.58,203.58,0,0,1,7.7,38.5c5.8,52.5-9.5,105-39.2,146.5A196.88,196.88,0,0,1,311.8,473a210.65,210.65,0,0,1-75.9,28.8,189.44,189.44,0,0,1-77.6-2.8,195.63,195.63,0,0,1-38.9-14.2,189.8,189.8,0,0,1-36-22.8c-1.5-1.1-2.8-2.3-4.2-3.4L75,455.2c-1.4-1.1-2.7-2.4-4.1-3.6l-4-3.7c-1.4-1.2-2.6-2.5-3.9-3.8l-3.8-3.9c-1.3-1.3-2.5-2.7-3.7-4l-3.6-4.1a194.81,194.81,0,0,1-24.3-36.5C14.1,369.5,6.5,340.7,4.2,312.1"/><path class="cls-2" d="M3.4,288.6c.2-20.4,1.9-41.3,6.3-62a181.44,181.44,0,0,1,9.5-30.4l1.5-3.7,1.7-3.6c1.2-2.4,2.3-4.8,3.6-7.1,2.7-4.6,5.3-9.3,8.4-13.6l2.3-3.3a38.12,38.12,0,0,1,2.4-3.2c1.7-2.1,3.3-4.1,5-6.1.8-1,1.7-2,2.6-3l2.8-2.9c1.8-1.9,3.6-3.8,5.6-5.6s3.9-3.5,5.8-5.3,4.1-3.3,6.1-4.9l3.1-2.4,3.2-2.2c2.1-1.5,4.2-2.9,6.3-4.4a220.4,220.4,0,0,1,52.8-25.4c2.2-.7,4.4-1.4,6.7-2.1l6.7-1.8,3.3-.9,3.4-.7c2.2-.5,4.4-1,6.7-1.4a224.62,224.62,0,0,1,26.6-3.3,227.62,227.62,0,0,1,26.1-.2l6.4.5c2.1.2,4.3.3,6.4.6,4.2.6,8.5,1,12.6,1.9A195.46,195.46,0,0,1,284.9,107c1.9.9,3.7,1.7,5.6,2.6s3.6,1.9,5.4,2.9c3.6,1.8,7.1,4.1,10.6,6.1A174.37,174.37,0,0,1,326.2,133a230.67,230.67,0,0,1,28.1,27.8A221.5,221.5,0,0,1,376.8,193l1.2,2.1,1.2,2.1,2.3,4.3,1.1,2.1,1,2.2,2.1,4.4.5,1.1.5,1.1.9,2.2,1.9,4.5,1.7,4.5c.5,1.5,1.2,3,1.7,4.5a211.69,211.69,0,0,1,9.2,37.3,213.62,213.62,0,0,1,2.3,38.4,216.94,216.94,0,0,1-4.6,37.8A212.21,212.21,0,0,1,388.7,378a240.86,240.86,0,0,1-17.2,34,202.3,202.3,0,0,1-52.9,57.4,204.49,204.49,0,0,1-75.1,34.3,188.86,188.86,0,0,1-80.7.7,199.55,199.55,0,0,1-79.4-36.1A186.17,186.17,0,0,1,50.7,437a197.46,197.46,0,0,1-24.3-38.4,227.3,227.3,0,0,1-15.3-42.5A254.16,254.16,0,0,1,4,312.2"/><path class="cls-2" d="M3.4,288.3c.2-20.1,1.5-40.6,5.2-61.2.4-2.6,1.1-5.1,1.6-7.7l.9-3.8.4-1.9.5-1.9,2.2-7.6.6-1.9.7-1.9,1.3-3.7A143.6,143.6,0,0,1,23,182.2c.5-1.2,1.2-2.3,1.8-3.5l1.9-3.5c1.3-2.3,2.5-4.6,4-6.8s2.9-4.4,4.4-6.5,3.2-4.2,4.8-6.2l2.4-3c.8-1,1.7-1.9,2.6-2.9,1.7-1.9,3.5-3.8,5.3-5.7s3.8-3.6,5.7-5.3l2.9-2.6,3-2.4c2-1.6,4-3.2,6-4.7s4.2-2.9,6.3-4.3l3.2-2.1,3.2-1.9c2.1-1.3,4.3-2.5,6.4-3.8s4.4-2.3,6.5-3.5l3.2-1.7,3.3-1.6c2.2-1,4.4-2,6.6-3.1l6.6-2.7c1.1-.4,2.2-.9,3.3-1.3l3.3-1.2c2.2-.8,4.4-1.5,6.6-2.3A221.68,221.68,0,0,1,179,89.5c1.1-.1,2.2-.1,3.3-.2l3.2-.1c2.2,0,4.3-.2,6.4-.2l6.4.1,3.2.1,3.2.2,6.3.4c2.1.1,4.2.5,6.3.7s4.1.4,6.2.8l6.2,1.1,3.1.5c1,.2,2,.4,3,.7l6,1.3a56.87,56.87,0,0,1,5.9,1.6l5.9,1.6a191.46,191.46,0,0,1,22.6,8.6c1.8.8,3.6,1.6,5.4,2.5s3.5,1.8,5.3,2.7l2.6,1.3,2.6,1.5,5.1,3a186.51,186.51,0,0,1,19.4,13.5A242.43,242.43,0,0,1,345.2,158a215.11,215.11,0,0,1,23.1,31,205.11,205.11,0,0,1,17.1,34.1A219.28,219.28,0,0,1,396,259.2a36.91,36.91,0,0,1,.8,4.6l.8,4.6c.3,1.5.4,3.1.6,4.7l.6,4.7.4,4.7.2,2.3.1,1.2v1.2l.2,4.7.1,2.4a19.22,19.22,0,0,1,0,2.4,232.71,232.71,0,0,1-2.4,37.4,220.17,220.17,0,0,1-8.7,36.5,240.73,240.73,0,0,1-14.8,34.8,204.51,204.51,0,0,1-21.3,32.8A195.29,195.29,0,0,1,325,466.7a201.39,201.39,0,0,1-73.9,39.7,184.31,184.31,0,0,1-40.6,7,191.26,191.26,0,0,1-43.2-2.4A199.45,199.45,0,0,1,124,498.5a210.56,210.56,0,0,1-40.6-22.6c-3.1-2.3-6.3-4.6-9.4-7.1s-6-5.1-8.9-7.8l-4.2-4.2c-1.4-1.4-2.8-2.8-4.1-4.3L52.9,448c-1.3-1.5-2.6-3-3.8-4.6a191.73,191.73,0,0,1-24.3-40.5,247,247,0,0,1-14.6-44.3,291.8,291.8,0,0,1-6.7-45.2"/><path class="cls-2" d="M3.4,288a414.57,414.57,0,0,1,4.2-60.4c3-20.3,9.2-40.7,19.5-58.7,1.3-2.2,2.7-4.4,4.1-6.6.7-1.1,1.4-2.2,2.1-3.2l2.3-3.1c1.6-2,3.1-4.1,4.7-6.1l5.1-5.7c.9-.9,1.7-1.9,2.6-2.8l2.8-2.6c1.8-1.7,3.7-3.5,5.6-5.1s3.9-3.2,5.9-4.7l3-2.3,3.1-2.1a214.45,214.45,0,0,1,51.9-24.9,210.83,210.83,0,0,1,52.1-9.9,215.76,215.76,0,0,1,49.8,2.8,207.9,207.9,0,0,1,45.6,13.8,210.62,210.62,0,0,1,20.7,10.4,209.34,209.34,0,0,1,19,12.7,246.2,246.2,0,0,1,29,25.8,225.46,225.46,0,0,1,23.7,29.9,214.84,214.84,0,0,1,29.9,67.6l.3,1.1.2,1.1.5,2.2c.3,1.5.7,3,1,4.5l.8,4.5.4,2.3a15.72,15.72,0,0,1,.4,2.3c.9,6.1,1.7,12.1,2.1,18.3a227.33,227.33,0,0,1-.3,36.9c-.1.8-.1,1.5-.2,2.3l-.3,2.3c-.2,1.5-.4,3.1-.5,4.6-.1.8-.2,1.5-.3,2.3l-.4,2.3c-.2,1.5-.5,3.1-.7,4.6l-.9,4.5-.4,2.3a18.92,18.92,0,0,1-.5,2.3c-.4,1.5-.7,3-1.1,4.5l-.5,2.3c-.2.8-.4,1.5-.6,2.2A245.13,245.13,0,0,1,376.7,398a207.55,207.55,0,0,1-18.9,34.2,201.19,201.19,0,0,1-25.7,30.7,197.33,197.33,0,0,1-72.4,45.2,188.88,188.88,0,0,1-86.7,8.7,195.07,195.07,0,0,1-45.5-11.6,208.56,208.56,0,0,1-42.8-22.5c-1.7-1.2-3.4-2.2-5.1-3.5l-5-3.6a90.44,90.44,0,0,1-9.5-7.9,169.31,169.31,0,0,1-16.5-18.4,181.26,181.26,0,0,1-24.5-42.7,258.37,258.37,0,0,1-13.8-46.3,340.9,340.9,0,0,1-6.2-46.5"/><path class="cls-2" d="M3.4,287.7c.1-19.5.8-39.3,3.3-59.5l.5-3.8c.2-1.3.4-2.5.6-3.8L9.1,213c.5-2.5,1.1-5,1.6-7.5l.9-3.8c.3-1.3.7-2.5,1-3.7.7-2.5,1.5-4.9,2.2-7.4s1.8-4.8,2.7-7.2a146.12,146.12,0,0,1,6.3-14A131.51,131.51,0,0,1,63,124.3,169,169,0,0,1,88.5,110c2.2-1,4.3-2.1,6.4-3s4.3-1.8,6.5-2.7c1.1-.4,2.1-.9,3.2-1.3l3.3-1.2c2.2-.7,4.3-1.5,6.5-2.2A211,211,0,0,1,165.9,90l3.1-.2c1-.1,2.1-.1,3.2-.1l6.3-.1c2.1-.1,4.2.1,6.2.1l6.1.2c2,.1,4.1.4,6.1.5s4,.3,6,.6l6,.9c2,.3,3.9.5,5.9,1a207.94,207.94,0,0,1,44.6,13.4l2.6,1.1,2.6,1.2,5.1,2.4,1.3.6,1.2.7,2.5,1.3c1.6.9,3.3,1.7,4.9,2.6a210.81,210.81,0,0,1,18.6,12,242.18,242.18,0,0,1,29.3,24.9,218.69,218.69,0,0,1,63.4,128.8,229.88,229.88,0,0,1,1.7,36.2,17.7,17.7,0,0,1-.1,2.3l-.1,2.3-.2,4.5c-.2,1.5-.3,3-.4,4.5l-.2,2.3a17.85,17.85,0,0,1-.2,2.3c-.7,6-1.6,12.1-2.8,18.1a234.87,234.87,0,0,1-9.9,36c-.5,1.6-1.1,3-1.7,4.5l-1.8,4.5c-1.3,3-2.6,5.9-3.9,9-1.5,2.9-2.8,5.9-4.3,8.8-.8,1.4-1.6,2.9-2.4,4.3s-1.5,2.9-2.4,4.3a210.56,210.56,0,0,1-23.6,32.8,199.68,199.68,0,0,1-31.3,28.6,185.4,185.4,0,0,1-39.4,22,190.2,190.2,0,0,1-89.5,13,204,204,0,0,1-93-32.8l-5.3-3.6L77.4,484c-.9-.6-1.7-1.2-2.6-1.9a86.78,86.78,0,0,1-10.2-7.9c-1.6-1.4-3.2-2.9-4.7-4.4l-1.1-1.1-1.1-1.2-2.2-2.4-4.3-4.9c-1.4-1.7-2.7-3.4-4-5.1a179.35,179.35,0,0,1-24.8-44.9,266,266,0,0,1-13-48.3A397.57,397.57,0,0,1,3.8,314"/><path class="cls-2" d="M3.4,287.4c.1-19.2.4-38.7,2.3-58.6.4-5,1.2-9.9,1.8-15l.3-1.9.3-1.9.7-3.7.7-3.7c.2-1.2.5-2.5.8-3.7a142.29,142.29,0,0,1,4.3-14.5c.8-2.4,1.7-4.8,2.6-7.1s2-4.6,3.1-6.9l1.6-3.4,1.8-3.3c1.2-2.2,2.5-4.3,3.8-6.5s2.8-4.1,4.2-6.2l2.2-3,1.1-1.5,1.2-1.4a114.16,114.16,0,0,1,10-10.8c1.8-1.7,3.6-3.4,5.4-5s3.8-3.1,5.7-4.6c1-.7,1.9-1.5,2.9-2.2s2-1.4,3-2c2-1.3,4.1-2.6,6.2-3.8a32.39,32.39,0,0,1,3.2-1.7l3.2-1.6c2.2-1,4.3-2.1,6.4-3.1a227.75,227.75,0,0,1,25.7-10.1,202.71,202.71,0,0,1,99-6.3,212.84,212.84,0,0,1,43.7,13,205.85,205.85,0,0,1,38.1,20.9,248.07,248.07,0,0,1,29.5,23.9c.6.5,1.1,1.1,1.7,1.6l1.7,1.7,3.3,3.3,3.2,3.4c1,1.1,2.2,2.2,3.1,3.4l3,3.5c.5.6,1,1.1,1.5,1.7l1.4,1.8c1,1.2,1.9,2.4,2.9,3.5s1.8,2.4,2.8,3.6a226.1,226.1,0,0,1,33.7,62.3,230.27,230.27,0,0,1,12.6,69.2,245.53,245.53,0,0,1-9.1,72.4,215.09,215.09,0,0,1-14,36.6,201.23,201.23,0,0,1-21.4,34.8,190.2,190.2,0,0,1-29.9,31.1,182,182,0,0,1-38.8,24.7c-26.8,12.7-58.8,19.4-92.1,17.5a208.63,208.63,0,0,1-50-9.3,214.61,214.61,0,0,1-47.7-22.1l-2.8-1.7-2.8-1.9c-1.8-1.3-3.7-2.5-5.6-3.7s-3.7-2.5-5.5-3.8-3.7-2.6-5.5-4a85.35,85.35,0,0,1-9.8-9.2c-2.9-3.4-5.9-6.8-8.6-10.4a174.4,174.4,0,0,1-25.1-47.2c-5.9-16.7-9.6-33.8-12.2-50.5s-4.1-33.1-4.9-49.3"/><path class="cls-2" d="M3.4,287.2c0-18.9.1-38,1.4-57.7l.2-3.7c.1-1.2.2-2.5.3-3.7.3-2.5.5-4.9.8-7.4.2-1.2.2-2.5.4-3.7l.6-3.7c.4-2.5.8-4.9,1.3-7.4s1.1-4.9,1.7-7.3,1.2-4.9,2-7.2,1.5-4.7,2.4-7.1l.6-1.8c.2-.6.5-1.1.7-1.7l1.4-3.4c1-2.3,2-4.5,3.1-6.7s2.3-4.3,3.5-6.5l1.9-3.2c.7-1,1.3-2,2-3.1l4.2-6a31.12,31.12,0,0,1,2.3-2.8l2.4-2.8c1.6-1.8,3.2-3.7,4.9-5.3s3.5-3.4,5.2-5l2.7-2.4c.9-.8,1.9-1.5,2.8-2.2,1.9-1.5,3.8-2.9,5.7-4.3s4-2.6,6-3.8,4.1-2.4,6.2-3.4,4.3-2,6.4-3,4.2-1.9,6.4-2.8,4.3-1.7,6.4-2.6,4.2-1.6,6.4-2.4,4.2-1.4,6.3-2.2a201.21,201.21,0,0,1,50.3-9,205.11,205.11,0,0,1,47.4,3.2,213.28,213.28,0,0,1,42.9,12.8,232.19,232.19,0,0,1,37.3,19.9,254.1,254.1,0,0,1,29.8,23.1l.9.7.8.8,1.7,1.6,3.3,3.1,3.2,3.3c1.1,1.1,2.2,2.1,3.2,3.2s2,2.2,3.1,3.3c.5.6,1,1.1,1.5,1.6l1.5,1.7c1,1.1,2,2.3,3,3.4s1.9,2.3,2.8,3.5a235.76,235.76,0,0,1,35.4,59.6,231.45,231.45,0,0,1,10.3,32.5l.5,2.1a15.52,15.52,0,0,1,.4,2.1l.9,4.2c.4,1.4.5,2.8.8,4.3s.5,2.9.8,4.3l.6,4.3c.2,1.4.5,2.9.6,4.3s.3,2.9.5,4.4.4,2.9.5,4.4a263.32,263.32,0,0,1,.6,35.6,246.51,246.51,0,0,1-4.8,36.6,234.16,234.16,0,0,1-11.4,37.6,207.15,207.15,0,0,1-19.1,36.7,184.94,184.94,0,0,1-28.2,33.6A182.88,182.88,0,0,1,285,511.2c-27,14.6-59.9,22.9-94.5,22.1A209.06,209.06,0,0,1,88.1,503.6L82.2,500l-1.5-.9-1.4-1-2.9-2c-1.9-1.3-3.9-2.6-5.8-3.9l-5.7-4c-1-.7-1.9-1.4-2.9-2.1L60.6,485c-.5-.4-.9-.8-1.3-1.1a57.89,57.89,0,0,1-5.1-4.8c-.8-.8-1.6-1.7-2.4-2.6s-1.5-1.8-2.2-2.7c-1.5-1.8-2.9-3.7-4.4-5.5-11.4-14.9-19.8-32-25.6-49.6s-9.1-35.5-11.3-52.8c-.3-2.1-.5-4.3-.7-6.5s-.5-4.3-.8-6.4c-.3-4.3-.8-8.5-1.2-12.8-.1-2.1-.3-4.2-.5-6.3s-.4-4.2-.5-6.3-.2-4.2-.4-6.3c-.1-1-.1-2.1-.2-3.1s-.1-2.1-.1-3.1"/><path class="cls-2" d="M3.3,286.9c0-18.6-.2-37.4.6-56.8.1-2.4.2-4.9.3-7.3s.4-4.9.6-7.3c.3-4.9,1.1-9.7,1.8-14.6l.3-1.8.4-1.8.7-3.6c.5-2.4,1-4.8,1.6-7.2s1.4-4.7,2.1-7l1.1-3.5c.4-1.2.9-2.3,1.3-3.4a121.08,121.08,0,0,1,6-13.2c1.2-2.1,2.3-4.2,3.6-6.3s2.6-4,4-6a106.43,106.43,0,0,1,9-11.1,59,59,0,0,1,5-5c1.7-1.6,3.5-3.2,5.2-4.7s3.7-2.9,5.5-4.3,3.7-2.8,5.7-4,4-2.4,6.1-3.4c1-.5,2.1-1.1,3.1-1.6a30.9,30.9,0,0,1,3.2-1.4c4.3-1.8,8.5-3.6,12.8-5.1,2.1-.8,4.2-1.6,6.3-2.3s4.2-1.4,6.3-2a196.75,196.75,0,0,1,49.7-8.7,205.34,205.34,0,0,1,46.8,3.4,224,224,0,0,1,42.1,12.7,231,231,0,0,1,36.7,19.1,245.59,245.59,0,0,1,55.1,47.4,238.13,238.13,0,0,1,56,121.3,253.11,253.11,0,0,1,2.8,35.1c.1,1.5,0,3,0,4.5v4.5c-.1,3-.3,6.1-.4,9.1-.1,1.5-.3,3.1-.4,4.6s-.2,3.1-.4,4.6-.4,3.1-.5,4.6l-.2,2.4-.4,2.3a237.74,237.74,0,0,1-8.7,38.4,204.08,204.08,0,0,1-16.7,38.4,189.29,189.29,0,0,1-26.5,36,177.29,177.29,0,0,1-37.3,30.2c-27.1,16.5-60.8,26.5-96.7,27s-73.6-9-107.2-27.9l-1.6-.9-1.5-.9-3.1-1.9-6.2-3.8-6-4.1c-2-1.4-4.1-2.6-6.1-4.1l-6-4.2a31.55,31.55,0,0,1-2.9-2.2l-2.7-2.4a63.82,63.82,0,0,1-5.1-5.3c-.8-.9-1.5-1.9-2.3-2.9L44,475.6a165.67,165.67,0,0,1-26.3-52c-.7-2.3-1.4-4.6-2-6.9l-1-3.5-.8-3.5-1.6-7c-.3-1.1-.5-2.3-.7-3.5l-.6-3.5-1.2-6.9-.9-6.9c-.7-4.5-1-9.1-1.6-13.6l-.4-3.4-.3-3.4c-.2-2.2-.4-4.4-.6-6.7s-.3-4.4-.5-6.6-.3-4.4-.5-6.5c-.1-4.4-.5-8.7-.7-13-.1-2.2-.2-4.3-.3-6.4s-.3-4.3-.3-6.4"/><path class="cls-2" d="M3.4,287.1c.1-18.8.2-37.6,1.3-56.9.2-2.4.3-4.8.5-7.3s.5-4.8.7-7.3c.4-4.9,1.3-9.7,2-14.5.2-1.2.4-2.4.7-3.6l.8-3.6c.6-2.4,1.1-4.8,1.7-7.1s1.4-4.7,2.2-7l1.1-3.5c.4-1.1.9-2.3,1.3-3.4.9-2.3,1.8-4.5,2.8-6.7.5-1.1,1-2.2,1.6-3.3l1.7-3.2c1.2-2.1,2.3-4.2,3.5-6.3l3.9-6,2-2.9c.7-1,1.5-1.9,2.2-2.8,1.5-1.8,3-3.6,4.6-5.4s3.2-3.4,4.9-5.1l5.1-4.8c1.8-1.5,3.6-3,5.4-4.4.9-.7,1.8-1.4,2.8-2.1l1.4-1,1.5-.9c2-1.2,3.9-2.4,6-3.6,1-.6,2-1.1,3-1.7s2.1-1,3.1-1.5c4.2-1.9,8.3-3.8,12.5-5.4,2.1-.8,4.1-1.7,6.2-2.5s4.2-1.5,6.2-2.2a198.11,198.11,0,0,1,96.4-8,219.33,219.33,0,0,1,43,11.7,231.71,231.71,0,0,1,38,18.8c1.2.7,2.4,1.4,3.6,2.2s2.3,1.6,3.5,2.3,2.3,1.5,3.5,2.3l3.4,2.4a233.51,233.51,0,0,1,79.2,98.7,248.07,248.07,0,0,1,11.2,32.4,238.84,238.84,0,0,1,6.4,34.3,248.28,248.28,0,0,1,1.7,35.7,265.38,265.38,0,0,1-3.8,37,237.25,237.25,0,0,1-9.8,38.1,207.9,207.9,0,0,1-17.8,37.7,190.48,190.48,0,0,1-27.3,35.2,182,182,0,0,1-37.7,29.4,186.17,186.17,0,0,1-27.4,12.9,193.45,193.45,0,0,1-48,11.4,206.39,206.39,0,0,1-52-1A212.16,212.16,0,0,1,110.1,520l-6.3-2.8c-2.1-1-4.2-1.9-6.3-3L91.3,511l-3.1-1.6-3-1.8c-4-2.4-8-4.7-11.9-7.4-1.9-1.3-3.9-2.6-5.9-3.8l-5.9-3.9c-1.7-1.2-3.5-2.4-5.1-3.7a61.42,61.42,0,0,1-4.7-4.2c-1.5-1.5-2.9-3-4.3-4.6l-3.9-5c-1.3-1.7-2.6-3.3-3.8-5s-2.4-3.5-3.5-5.3-2.3-3.5-3.4-5.3-2.1-3.7-3.1-5.5a182.55,182.55,0,0,1-17.2-46.7l-1.3-6-1.1-6-1-5.9-.8-6-.8-5.9-.6-5.9-.4-5.8c-.2-1.9-.3-3.9-.4-5.8-1.2-15.4-1.9-30.2-2.4-44.8"/><path class="cls-2" d="M3.4,287.3c-.1-4.7.2-9.4.2-14.2s.3-9.4.3-14.2c.5-9.4.7-19,1.6-28.6l.6-7.2.9-7.2.4-3.6.6-3.6c.4-2.4.8-4.8,1.3-7.2.2-1.2.5-2.4.7-3.6l.8-3.5c.6-2.4,1.1-4.7,1.8-7.1s1.5-4.6,2.2-6.9L16,177l1.3-3.4c.9-2.2,1.9-4.4,2.8-6.6a31.82,31.82,0,0,1,1.6-3.2c.5-1.1,1.1-2.1,1.7-3.2,1.2-2.1,2.3-4.2,3.5-6.2l3.9-6,2-2.9c.7-.9,1.4-1.9,2.2-2.8l4.5-5.4,1.1-1.3,1.2-1.3,2.4-2.5c1.6-1.7,3.3-3.3,5-4.9s3.5-3,5.3-4.5a57,57,0,0,1,5.5-4.2c1.9-1.3,3.9-2.5,5.8-3.7,1-.6,2-1.2,3-1.7l3.1-1.6c2-1,4.1-2,6.1-3a29.17,29.17,0,0,1,3.1-1.4l3.1-1.4c2-.9,4-1.8,6.1-2.7s4.1-1.6,6.1-2.4a198.45,198.45,0,0,1,96.5-10.9,211.16,211.16,0,0,1,44,10.7A221.36,221.36,0,0,1,276.2,119l1.9,1.1,1.8,1.2c1.2.8,2.4,1.5,3.6,2.3,2.4,1.5,4.8,3.2,7.1,4.8a225.86,225.86,0,0,1,49.1,47.3c1.7,2.2,3.2,4.5,4.9,6.6,1.5,2.3,3,4.5,4.6,6.7,1.4,2.3,2.9,4.6,4.3,6.9l2,3.5,1,1.7a15.05,15.05,0,0,1,1,1.7,229.58,229.58,0,0,1,13.3,28.5c.5,1.4,1.1,2.7,1.6,4.1l1.4,4.2c1.1,2.7,1.8,5.6,2.7,8.3.2.7.5,1.4.7,2.1l.6,2.1,1.2,4.2c.4,1.4.7,2.8,1,4.3l.5,2.1a16,16,0,0,1,.5,2.1,267.34,267.34,0,0,1,5.3,35.1l.2,2.2a16.2,16.2,0,0,1,.1,2.2c.1,1.5.1,3,.2,4.5s.1,3,.1,4.5.1,3,.1,4.5c0,3-.1,6-.1,9-.1,1.5-.2,3-.2,4.5l-.1,2.3a17.85,17.85,0,0,1-.2,2.3,256.05,256.05,0,0,1-5.1,37.1,232.63,232.63,0,0,1-11.1,37.6,211.33,211.33,0,0,1-18.8,37,191.05,191.05,0,0,1-28,34.4,179.72,179.72,0,0,1-38.1,28.3c-2.2,1.2-4.4,2.3-6.5,3.5s-4.5,2.1-6.8,3.2c-4.6,2.2-9.3,3.9-14.1,5.8a201.66,201.66,0,0,1-47.8,10.8,207.42,207.42,0,0,1-51.5-1.3,218.32,218.32,0,0,1-51.5-14.7l-6.3-2.7a17.72,17.72,0,0,1-3.1-1.5l-3.1-1.5-6.1-3.1c-2-1.1-4-2.3-6-3.4s-4-2.3-6-3.5l-5.8-3.8c-4-2.4-7.9-5-11.8-7.6-.9-.6-1.7-1.2-2.6-1.8s-1.6-1.3-2.4-2c-1.6-1.4-3.1-2.8-4.6-4.3-.7-.7-1.4-1.5-2.1-2.3s-1.3-1.6-2-2.4c-1.3-1.6-2.6-3.2-3.9-4.9-2.6-3.2-4.9-6.8-7.2-10.2s-4.3-7.1-6.3-10.7a175.55,175.55,0,0,1-16.7-46.4c-1-3.9-1.6-8-2.3-11.9s-1.2-7.9-1.7-11.8-.9-7.8-1.2-11.7c-.2-1.9-.4-3.8-.5-5.8s-.2-3.9-.4-5.8c-1.1-15.2-1.7-29.9-2-44.4"/><path class="cls-2" d="M3.4,287.5c-.1-4.8.2-9.5.2-14.3,0-1.2,0-2.4.1-3.6l.2-3.6c.1-2.4.1-4.8.2-7.1.6-9.5,1-19,2.1-28.6.2-2.4.4-4.8.8-7.2s.7-4.8,1-7.2l.5-3.6.7-3.6c.5-2.4.9-4.8,1.4-7.1s1.1-4.7,1.7-7.1l.9-3.5c.3-1.2.6-2.3,1-3.5.7-2.3,1.5-4.6,2.3-6.9.4-1.1.8-2.3,1.2-3.4l1.4-3.3a131.73,131.73,0,0,1,31.5-46.4c1.7-1.6,3.5-3.1,5.2-4.6a56.57,56.57,0,0,1,5.4-4.3,117.26,117.26,0,0,1,11.6-7.2c2-1.1,4-2.1,6-3.2s4.1-1.9,6.1-2.9,4-1.9,6-2.8,4-1.7,6.1-2.5a201.35,201.35,0,0,1,48.6-13,203.4,203.4,0,0,1,48-.7A216.67,216.67,0,0,1,238.7,96a223.17,223.17,0,0,1,40.7,18.2c2.6,1.5,5.1,3.1,7.6,4.6l.9.6.9.6,1.8,1.3c1.2.8,2.4,1.6,3.7,2.5a211.13,211.13,0,0,1,50.4,49.3,227.58,227.58,0,0,1,30.5,58c1.1,2.8,1.9,5.7,2.9,8.5.5,1.4.9,2.9,1.3,4.3s.8,2.9,1.3,4.3l1.1,4.4.6,2.2.3,1.1.2,1.1c.3,1.5.6,2.9.9,4.4a14.19,14.19,0,0,1,.5,2.2l.4,2.2a265.08,265.08,0,0,1,4.2,35.8,17.7,17.7,0,0,1,.1,2.3v2.3l.1,4.6c0,1.5-.1,3-.1,4.5a35.33,35.33,0,0,1-.1,4.6c-.1,1.5-.1,3-.2,4.6a17.7,17.7,0,0,1-.1,2.3l-.2,2.3c-.1,1.5-.2,3-.3,4.6a17.85,17.85,0,0,1-.2,2.3l-.2,2.3a259.7,259.7,0,0,1-6.4,37.1,241.16,241.16,0,0,1-12.4,37.1,219.66,219.66,0,0,1-19.8,36.4,191.11,191.11,0,0,1-28.8,33.4,185.31,185.31,0,0,1-38.5,27.4l-3.2,1.7c-1.1.6-2.2,1.1-3.3,1.6-2.3,1-4.5,2.1-6.8,3.1s-4.6,1.9-7,2.8-4.7,1.9-7.1,2.7a193.85,193.85,0,0,1-47.5,10.1,202.83,202.83,0,0,1-50.9-1.8,212.43,212.43,0,0,1-50.9-14.7l-3.1-1.3-1.6-.7-1.5-.7-6.1-3L89.7,508c-1-.5-2-1.1-3-1.6l-6-3.3c-1-.6-2-1.1-3-1.7l-2.9-1.8c-1.9-1.2-3.9-2.4-5.9-3.6l-1.5-.9-1.5-.9L63,492.3c-1.9-1.3-3.9-2.5-5.8-3.8a79.3,79.3,0,0,1-9.2-8.2c-2.7-3.1-5.3-6.3-7.9-9.5-1.3-1.6-2.4-3.3-3.6-5s-2.3-3.4-3.5-5.1c-2.2-3.5-4.2-7.1-6.2-10.7s-3.6-7.4-5.3-11.1-3.1-7.6-4.5-11.4-2.5-7.8-3.6-11.7c-.6-1.9-1-3.9-1.5-5.9L10.6,404c-3.3-15.8-4.7-31.5-5.7-46.6s-1.4-29.7-1.7-44"/><path class="cls-2" d="M3.4,287.8c-.1-4.8.3-9.6.3-14.4,0-2.4.2-4.8.3-7.1s.2-4.8.3-7.1c.8-9.5,1.3-19,2.6-28.5.3-2.4.5-4.8.9-7.1s.8-4.7,1.1-7.1l.6-3.6.7-3.5c.5-2.4,1-4.7,1.5-7.1s1.2-4.7,1.8-7l1-3.5a33.74,33.74,0,0,1,1-3.4c.8-2.3,1.6-4.5,2.3-6.8.4-1.1.8-2.3,1.2-3.4l1.4-3.3a137.52,137.52,0,0,1,31.2-46.4c1.7-1.6,3.4-3.1,5.1-4.7.8-.8,1.7-1.5,2.6-2.3l2.7-2.1a106.65,106.65,0,0,1,11.4-7.5c2-1.1,3.9-2.2,5.9-3.3s4-2,5.9-3.1,3.9-2.1,5.9-3l6-2.7a200.45,200.45,0,0,1,96.6-16.5,207.71,207.71,0,0,1,46.1,8.8c3.7,1,7.4,2.4,11,3.7l2.7,1,2.7,1.1c1.8.7,3.5,1.5,5.3,2.2s3.5,1.6,5.2,2.4,3.4,1.6,5.2,2.4l5.1,2.7,2.5,1.3c.8.4,1.7.9,2.5,1.4,2.7,1.6,5.3,3.1,7.9,4.7s5.1,3.3,7.7,5a206.68,206.68,0,0,1,51.7,51.3,226.45,226.45,0,0,1,30,60.3c.6,1.4.9,3,1.4,4.4s.9,2.9,1.3,4.4.7,3,1.1,4.5a35.37,35.37,0,0,1,1.1,4.4c.6,3,1.5,5.9,1.9,8.9l.9,4.5c.3,1.5.4,3,.7,4.5l.4,2.3a16,16,0,0,1,.3,2.3c.2,1.5.3,3,.6,4.5l.3,2.3.2,2.3c.1,1.5.3,3,.4,4.6s.2,3.1.3,4.6.2,3.1.3,4.6l.1,4.6c0,1.5.2,3.1.1,4.6a267.41,267.41,0,0,1-2.3,36.8l-.3,2.3-.4,2.3c-.3,1.5-.5,3.1-.7,4.6l-.2,1.2-.2,1.1-.5,2.3-.9,4.7c-.4,1.5-.7,3.1-1.1,4.6s-.6,3.1-1.1,4.7-.8,3.1-1.2,4.6c-.2.8-.4,1.6-.6,2.3l-.7,2.3A254.51,254.51,0,0,1,367,414.4,211.56,211.56,0,0,1,346.2,450a203.47,203.47,0,0,1-29.4,32.6A189.59,189.59,0,0,1,278,509.1,199.25,199.25,0,0,1,203.4,530a209.06,209.06,0,0,1-50.4-2.1,217.3,217.3,0,0,1-50.3-14.7l-1.5-.6-1.5-.7-3-1.4-6.1-2.9c-4-2.1-7.9-4.2-11.9-6.4-7.6-4.8-15.8-9-23.1-14.6-6.4-5-11.6-11.4-16.6-17.8-2.4-3.3-4.8-6.6-7-10-1.1-1.7-2.1-3.5-3.1-5.2s-2.1-3.5-3-5.3a171.46,171.46,0,0,1-15.8-45.6C7,387,5.7,371.4,4.9,356.5s-1.1-29.4-1.3-43.7"/><path class="cls-2" d="M3.4,288c0-4.8.3-9.6.4-14.4,0-2.4.3-4.8.4-7.2s.3-4.8.4-7.2c.9-9.5,1.6-19,3.1-28.5.3-2.4.6-4.8,1-7.1s.9-4.7,1.3-7.1l.6-3.5.8-3.5c.5-2.3,1.1-4.7,1.6-7s1.3-4.6,1.9-6.9l1-3.4.5-1.7.6-1.7c.8-2.3,1.6-4.5,2.4-6.7a32.35,32.35,0,0,1,1.3-3.3l1.4-3.3A146.29,146.29,0,0,1,52.9,129c1.6-1.6,3.3-3.2,5-4.7l2.5-2.3,2.7-2.1c1.8-1.4,3.6-2.8,5.4-4.1.9-.7,1.9-1.3,2.8-1.9l2.9-1.8c1.9-1.2,3.8-2.3,5.7-3.5s3.9-2.2,5.8-3.2l2.9-1.6L90,103l1.5-.7c2-1,3.9-1.9,5.9-2.9a196.46,196.46,0,0,1,47.9-15.8,201.44,201.44,0,0,1,48.8-3.5,212.59,212.59,0,0,1,47.2,7.8c1,.3,1.9.5,2.9.8l2.8.9c1.9.6,3.7,1.2,5.6,1.8l1.4.5,1.4.5,2.8,1.1c1.8.7,3.7,1.4,5.5,2.1l5.4,2.4,2.7,1.2,2.7,1.2c1.7.9,3.5,1.8,5.2,2.6l2.6,1.3,2.6,1.4a189.26,189.26,0,0,1,16.2,9.9,203,203,0,0,1,53,53.2,220.43,220.43,0,0,1,29.4,62.7,236.64,236.64,0,0,1,7.5,36.7c.1.8.2,1.5.3,2.3l.2,2.3c.1,1.5.3,3.1.5,4.6l.6,9.3c0,1.6.1,3.1.1,4.7s.2,3.1.1,4.7v7l-.1,2.3a260.21,260.21,0,0,1-3.6,37.2,264.41,264.41,0,0,1-9.2,37.1,241.11,241.11,0,0,1-14.7,36.2,224.12,224.12,0,0,1-21.8,34.9,203.66,203.66,0,0,1-30.1,31.7A186.91,186.91,0,0,1,274.2,508c-2.2,1-4.4,2.1-6.6,3.1s-4.5,1.9-6.8,2.8l-3.4,1.4c-.6.2-1.2.5-1.7.7l-1.8.6c-2.4.8-4.7,1.6-7.1,2.4a206,206,0,0,1-46.9,8.9,210.2,210.2,0,0,1-49.9-2.4c-4.2-.7-8.4-1.6-12.6-2.5s-8.3-2.1-12.5-3.3-8.3-2.6-12.4-4.1l-6.1-2.4-3.1-1.2c-1-.4-2-.8-3-1.3l-6-2.7c-2-.9-4-1.8-6-2.9L82.4,502l-3-1.6-2.9-1.7c-3.8-2.3-7.8-4.4-11.7-6.8-1.9-1.2-3.9-2.3-5.8-3.6a42.65,42.65,0,0,1-5.4-4.1c-1.5-1.3-3-2.6-4.5-4-.7-.7-1.4-1.4-2.1-2.2l-2-2.3a110.29,110.29,0,0,1-7.6-9.3,108.63,108.63,0,0,1-6.8-9.9c-2.1-3.5-4.2-6.8-6-10.5A167.58,167.58,0,0,1,9.3,400.8c-3-15.5-4.2-31-4.8-45.8s-.9-29.2-1-43.3"/><path class="cls-2" d="M3.4,288.2c.1-9.7.8-19.4,1.5-28.9,1-9.5,2-19.1,3.7-28.4.4-2.3.7-4.7,1.2-7.1s.9-4.7,1.4-7c.2-1.2.5-2.3.7-3.5l.9-3.5c.6-2.3,1.1-4.6,1.7-6.9s1.3-4.6,2-6.8,1.3-4.6,2.2-6.8c1.6-4.4,3.2-9,5.1-13.2a158.9,158.9,0,0,1,30.3-46.5,111.1,111.1,0,0,1,20.8-17.4c1.9-1.2,3.7-2.5,5.6-3.6s3.8-2.3,5.7-3.4c3.7-2.3,7.7-4.3,11.5-6.4a200.82,200.82,0,0,1,96.8-22.1,204.57,204.57,0,0,1,93.3,24.6c1.4.8,2.9,1.6,4.3,2.3s2.8,1.7,4.2,2.5,2.8,1.7,4.2,2.5,2.7,1.8,4.1,2.7A199.48,199.48,0,0,1,359,166.5a208.8,208.8,0,0,1,17.4,32.1,221.94,221.94,0,0,1,11.3,33,259.18,259.18,0,0,1,6.7,37.7,253.78,253.78,0,0,1,.6,38c-.1,1.6-.1,3.2-.3,4.7s-.3,3.1-.4,4.7l-.2,2.4c-.1.8-.2,1.6-.3,2.3-.2,1.6-.4,3.1-.6,4.7s-.5,3.1-.7,4.7-.5,3.1-.7,4.7l-.9,4.6c-.3,1.5-.5,3.1-.9,4.7a282,282,0,0,1-10.5,37.1l-.4,1.1-.4,1.1-.9,2.2-1.7,4.5-1.9,4.4-.9,2.3-.5,1.1-.5,1.1c-2.7,5.9-5.5,11.9-8.7,17.7a235.72,235.72,0,0,1-22.7,34.2,199.3,199.3,0,0,1-30.8,30.8A195.63,195.63,0,0,1,270.7,507c-4.3,2.2-8.8,3.8-13.4,5.7-.6.2-1.1.5-1.7.7l-1.7.6-3.5,1.2-3.5,1.2c-1.2.4-2.4.8-3.6,1.1a210.68,210.68,0,0,1-96.1,5.6A220.22,220.22,0,0,1,98,508.4l-6-2.6c-2-.9-3.9-1.9-5.9-2.9l-5.9-3-5.7-3.3c-1.9-1.1-3.9-2.1-5.8-3.2L62.9,490c-1.9-1.2-3.9-2.3-5.7-3.6a53,53,0,0,1-5.2-4.2,111,111,0,0,1-8.3-8.5l-3.9-4.5c-1.2-1.6-2.4-3.2-3.6-4.7s-2.4-3.2-3.5-4.8-2.2-3.3-3.2-5-2.1-3.4-3.1-5.1-1.9-3.5-2.8-5.3A160,160,0,0,1,8.8,399.4C6,384,4.9,368.7,4.3,354c-.1-3.7-.2-7.3-.3-11-.1-1.8,0-3.6-.1-5.4l-.1-5.4c0-.9-.1-1.8-.1-2.7v-2.7c0-1.8,0-3.5-.1-5.3-.2-3.5,0-7-.1-10.5"/><path class="cls-2" d="M3.4,288.5c.1-9.8.9-19.5,1.8-29.1,1.2-9.5,2.3-19.1,4.2-28.4.5-2.3.8-4.7,1.3-7s1-4.6,1.6-7c.3-1.2.5-2.3.8-3.5l.9-3.4,1.8-6.9c.7-2.3,1.4-4.5,2.1-6.8s1.4-4.5,2.3-6.7c1.7-4.4,3.2-8.9,5.2-13.1,7.6-17.2,17.5-33.1,29.9-46.5a125.43,125.43,0,0,1,9.7-9.6c1.7-1.5,3.4-2.9,5.2-4.3s3.6-2.7,5.5-4,3.6-2.6,5.5-3.8,3.7-2.4,5.6-3.6l2.8-1.8c.9-.6,1.9-1.1,2.8-1.7L98.1,98c1.8-1.1,3.8-2,5.7-3l5.7-2.8c3.9-1.8,7.8-3.4,11.7-5.1,2-.7,4-1.5,6-2.2l3-1.1,1.5-.5,1.5-.5c2-.6,4-1.2,6.1-1.8l3-.9c1-.3,2-.5,3.1-.8a205.13,205.13,0,0,1,99.3-.4,204.88,204.88,0,0,1,46.4,17.7l2.2,1.2,1.1.6,1.1.6c1.5.9,2.9,1.7,4.4,2.6l2.2,1.3c.7.4,1.4.9,2.1,1.3,1.4.9,2.8,1.9,4.2,2.8A195.21,195.21,0,0,1,364,164.3a216.61,216.61,0,0,1,28,67.5c.4,1.6.8,3.2,1.1,4.8l.9,4.9.5,2.4c.2.8.2,1.6.4,2.4.2,1.6.5,3.2.8,4.8s.4,3.2.6,4.9l.6,4.8c.1,1.6.2,3.2.4,4.9s.4,3.2.4,4.8a263,263,0,0,1-.6,38.7l-.2,2.4-.3,2.4c-.2,1.6-.4,3.2-.5,4.8l-.3,2.4-.4,2.4-.7,4.7c-.3,1.6-.6,3.1-.9,4.7s-.5,3.2-.9,4.7c-.7,3.1-1.2,6.3-2.1,9.4-.4,1.6-.8,3.1-1.1,4.7l-1.3,4.6c-.8,3.1-1.8,6.2-2.8,9.3a15.46,15.46,0,0,1-.7,2.3l-.8,2.3c-.5,1.5-1.1,3.1-1.6,4.6s-1.2,3-1.7,4.6l-.9,2.3c-.3.8-.6,1.6-.9,2.3a270.15,270.15,0,0,1-17.1,35.1,218.86,218.86,0,0,1-23.7,33.4,213.31,213.31,0,0,1-31.5,29.8A197.67,197.67,0,0,1,267,506.1c-2.2,1-4.4,1.8-6.6,2.8l-3.4,1.4c-.6.2-1.1.5-1.7.7l-1.7.6c-4.6,1.6-9.2,3.3-14,4.5a207.38,207.38,0,0,1-46.4,7.7,213,213,0,0,1-48.9-3A226,226,0,0,1,50.1,480a137.93,137.93,0,0,1-27.8-37.8A159.85,159.85,0,0,1,7.9,397.7c-2.7-15.3-3.6-30.4-4.1-45,0-1.8,0-3.7-.1-5.5s-.1-3.6-.2-5.4c0-3.6,0-7.2-.1-10.7-.1-1.8,0-3.5,0-5.3l-.1-5.2L3.2,318v-7.8"/><path class="cls-2" d="M3.4,288.7c.1-9.9,1.1-19.6,2-29.2,1.3-9.6,2.6-19,4.7-28.3,1.8-9.3,4.3-18.5,7-27.5.7-2.2,1.5-4.5,2.2-6.7s1.5-4.5,2.3-6.6c1.7-4.4,3.3-8.8,5.3-13,7.6-17,17.4-33,29.5-46.6a124.67,124.67,0,0,1,9.4-9.8l5.1-4.5c1.8-1.4,3.6-2.7,5.3-4.1l2.7-2,1.3-1,1.4-.9c1.8-1.3,3.7-2.5,5.5-3.8l2.7-1.9,2.8-1.7c1.9-1.1,3.7-2.3,5.6-3.4a203,203,0,0,1,195.9-5.4,40.93,40.93,0,0,1,4.6,2.5c1.5.9,3,1.7,4.5,2.6s3,1.8,4.5,2.7,2.9,1.9,4.4,2.8a185.87,185.87,0,0,1,32.3,27.3,193.67,193.67,0,0,1,24.5,32.1,216.21,216.21,0,0,1,27.2,69.8l.5,2.5.4,2.5.9,5a21.66,21.66,0,0,1,.4,2.5l.3,2.5.7,5,.5,5a42.1,42.1,0,0,1,.4,5c.1,3.3.5,6.6.5,9.9a256.84,256.84,0,0,1-1.8,39.3,258.45,258.45,0,0,1-7.7,38c-.7,3.2-1.9,6.2-2.8,9.3-.4,1.6-1,3.1-1.5,4.6s-1,3.1-1.5,4.7-1.2,3-1.8,4.6-1.1,3.1-1.8,4.6c-1.3,3-2.4,6.2-3.8,9.1a260.76,260.76,0,0,1-18.2,34.6,235,235,0,0,1-24.7,32.6,213.39,213.39,0,0,1-32.1,29,199.54,199.54,0,0,1-40,22.7l-6.6,2.7c-.6.2-1.1.5-1.7.7l-1.7.6-3.4,1.2-3.4,1.2c-1.2.4-2.3.8-3.5,1.1l-7.1,2a211.18,211.18,0,0,1-46.1,7.1,214.37,214.37,0,0,1-48.4-3.3,217.15,217.15,0,0,1-48.2-14.6c-3.9-1.7-7.8-3.6-11.7-5.4-3.8-2-7.6-4.1-11.5-6l-5.8-3.2c-1.9-1.1-3.9-2.1-5.7-3.3A66.64,66.64,0,0,1,48,477.7a133.81,133.81,0,0,1-27.3-37.4A157.24,157.24,0,0,1,6.8,396.2l-.9-5.6-.7-5.7-.6-5.6c-.2-1.9-.3-3.8-.4-5.6-.2-3.7-.6-7.4-.7-11.1,0-1.8-.1-3.7-.2-5.5,0-.9-.1-1.8-.1-2.7v-2.7c0-3.6-.1-7.2-.2-10.7v-5.3c0-1.8,0-3.5-.1-5.3.1-3.5.1-7,0-10.4-.1-1.7,0-3.4,0-5.2v-5.1"/><path class="cls-2" d="M3.4,288.9a282.35,282.35,0,0,1,2.3-29.3c1.5-9.6,3-19,5.2-28.3,2-9.3,4.7-18.3,7.5-27.3,3.1-8.8,6.3-17.6,10.2-26,7.7-16.9,17.3-32.8,29.1-46.6l4.5-5.1,1.1-1.3,1.2-1.2,2.4-2.4c1.6-1.6,3.3-3.1,4.9-4.6s3.5-2.8,5.2-4.2A251.92,251.92,0,0,1,98.7,97.1,202.41,202.41,0,0,1,297.4,88c3.1,1.7,6.3,3.4,9.4,5.2s6.1,3.8,9.1,5.7a190,190,0,0,1,33.2,28.3A195.15,195.15,0,0,1,374,160.5a207,207,0,0,1,16.8,35.8,227.11,227.11,0,0,1,13.3,77.1c.1,6.7-.3,13.5-.7,20.1l-.1,1.3-.1,1.2-.3,2.5c-.2,1.7-.3,3.3-.5,5s-.5,3.3-.7,4.9l-.3,2.5-.1,1.2-.2,1.2a276.76,276.76,0,0,1-9,38.3l-.3,1.2-.4,1.2-.8,2.3c-.5,1.5-1,3.1-1.6,4.7s-1.2,3.1-1.7,4.6l-.8,2.3c-.3.8-.6,1.5-.9,2.3-.6,1.5-1.2,3.1-1.8,4.6l-.5,1.2-.5,1.1-1,2.3c-.7,1.5-1.3,3.1-2,4.6s-1.5,3-2.2,4.5l-1,2.2a21.16,21.16,0,0,1-1.1,2.1c-.7,1.4-1.5,2.9-2.2,4.3s-1.5,2.8-2.3,4.3l-2.3,4.3c-1.7,2.8-3.3,5.6-5,8.4l-2.7,4.2-1.3,2.1a14.29,14.29,0,0,1-1.4,2,243.37,243.37,0,0,1-25.5,31.8c-.6.6-1.2,1.3-1.8,1.9l-1.9,1.8-3.8,3.7-1,.9-1,.9-2,1.8-4,3.6c-2.8,2.3-5.5,4.6-8.4,6.9l-4.4,3.3a46,46,0,0,1-4.5,3.2,208.86,208.86,0,0,1-40.2,21.7l-3.3,1.3c-.6.2-1.1.5-1.7.7l-1.7.6-6.8,2.3c-2.3.8-4.6,1.4-6.9,2.1s-4.7,1.4-7,2a221.88,221.88,0,0,1-45.8,6.6,216.7,216.7,0,0,1-47.9-3.6,223.21,223.21,0,0,1-47.6-14.6l-5.8-2.6-2.9-1.3c-1-.5-1.9-1-2.8-1.4-1.9-1-3.8-2-5.7-2.9L71,491.7l-2.9-1.5c-1.9-1-3.8-2-5.8-3.1-1-.5-1.9-1.1-2.8-1.6l-2.7-1.8a71.38,71.38,0,0,1-9.9-8.3,131.15,131.15,0,0,1-26.9-37c-6.8-13.8-11-28.8-13.4-43.7a53.91,53.91,0,0,1-.8-5.6l-.7-5.6c-.2-1.9-.4-3.7-.6-5.6l-.4-5.6-.4-5.5c-.1-1.8-.1-3.7-.2-5.5l-.2-5.4c-.1-1.8-.1-3.6-.1-5.4-.2-14.3-.2-28.1,0-41.6"/><path class="cls-2" d="M3.4,289.1c.1-10,1.3-19.8,2.5-29.5a287.34,287.34,0,0,1,5.8-28.2c2.2-9.2,5.1-18.2,8.1-27,3.2-8.7,6.5-17.4,10.5-25.8,1-2.1,1.9-4.2,2.9-6.3s2.1-4.1,3.2-6.1l1.6-3.1,1.7-3c1.2-2,2.3-4,3.5-5.9s2.5-3.8,3.7-5.8,2.5-3.8,3.8-5.7,2.7-3.7,4-5.5l2-2.7c.7-.9,1.4-1.8,2.1-2.6l4.3-5.2a27.25,27.25,0,0,1,2.3-2.5l2.3-2.4c1.6-1.6,3.2-3.2,4.8-4.7s3.4-2.9,5.1-4.4c3.3-3,7-5.6,10.4-8.4,1.7-1.4,3.6-2.7,5.4-3.9s3.6-2.5,5.4-3.8A202.08,202.08,0,0,1,249.5,66.4c2.2.4,4.4.9,6.6,1.3s4.4,1.1,6.5,1.7l3.3.9,1.6.4,1.6.5c2.1.7,4.3,1.4,6.4,2.1,1.1.4,2.1.7,3.2,1.1l3.2,1.2c2.1.8,4.2,1.6,6.3,2.5s4.1,1.9,6.2,2.8l3.1,1.4,1.5.7,1.5.8c1.6.9,3.3,1.7,4.9,2.6s3.3,1.7,4.8,2.7,3.2,1.9,4.7,2.9,3.2,1.9,4.7,3a181.65,181.65,0,0,1,34,29.2,194.91,194.91,0,0,1,25.2,34.5,209.11,209.11,0,0,1,16.6,37,223.29,223.29,0,0,1,9,37.4,245.78,245.78,0,0,1-1.7,82.2,263,263,0,0,1-10.3,38.5,312.64,312.64,0,0,1-16,36.8,264.09,264.09,0,0,1-20.5,33.3,246.33,246.33,0,0,1-26.4,31,222.89,222.89,0,0,1-33.3,27,210.69,210.69,0,0,1-40.4,20.8l-1.6.7-1.7.6-3.3,1.1-3.4,1.2c-1.1.4-2.3.8-3.4,1.1l-6.9,2c-1.2.3-2.3.7-3.5,1l-3.5.8a218.74,218.74,0,0,1-45.4,6,224.59,224.59,0,0,1-47.4-3.8,227.15,227.15,0,0,1-47.2-14.5l-5.8-2.5c-1.9-.9-3.8-1.9-5.7-2.8s-3.8-1.9-5.8-2.8l-5.7-2.9c-1.9-1-3.8-2-5.7-3.1a61.78,61.78,0,0,1-5.3-3.6c-1.7-1.3-3.4-2.6-5-4s-3.1-2.9-4.6-4.4a131.5,131.5,0,0,1-26.4-36.7c-.8-1.7-1.6-3.4-2.3-5.2s-1.5-3.4-2.2-5.3q-2-5.4-3.6-10.8c-1-3.7-1.9-7.3-2.8-11s-1.4-7.4-2-11.1c-.3-1.8-.5-3.7-.7-5.6l-.6-5.5c-.4-3.7-.6-7.4-.8-11-.1-1.8-.3-3.6-.3-5.4s-.1-3.6-.1-5.4l-.2-5.4v-5.3l-.1-5.3c-.1-1.7,0-3.5,0-5.2v-5.2c0-1.7-.1-3.4,0-5.2s.1-3.4.1-5.1v-5c.1-3.4.2-6.8.1-10.1"/><path class="cls-2" d="M3.4,289.4c.1-2.5.1-5,.3-7.5s.4-5,.6-7.4c.1-1.2.2-2.5.3-3.7s.3-2.4.5-3.7c.3-2.4.7-4.9,1-7.3,1.8-9.6,3.7-19,6.3-28.1,2.4-9.2,5.5-18,8.6-26.8,3.4-8.6,6.8-17.2,10.8-25.5,1-2.1,1.9-4.2,3-6.2s2.1-4.1,3.2-6.1l1.6-3,1.7-3c1.1-2,2.3-4,3.4-5.9s2.4-3.8,3.6-5.8l1.8-2.9a27.5,27.5,0,0,1,1.9-2.8c1.3-1.9,2.6-3.7,3.9-5.6l2-2.8,2.1-2.7c1.4-1.8,2.8-3.6,4.2-5.3s3-3.4,4.5-5.1,3-3.3,4.7-4.9,3.3-3,5-4.6l2.5-2.3c.8-.7,1.7-1.4,2.6-2.2,1.7-1.4,3.4-2.9,5.2-4.3l1.3-1.1,1.3-1,2.7-2c1.8-1.3,3.6-2.7,5.4-4a208.6,208.6,0,0,1,45.8-24.2A199.13,199.13,0,0,1,251.5,62a191.31,191.31,0,0,1,52.6,17.4c3.4,1.7,6.8,3.4,10.1,5.4,1.6,1,3.3,1.9,4.9,2.9l2.4,1.5,2.4,1.6A178.92,178.92,0,0,1,358.8,121a194.91,194.91,0,0,1,25.5,35.7A204.92,204.92,0,0,1,400.6,195a224.81,224.81,0,0,1,8.3,38.5,244.39,244.39,0,0,1,1.6,42.6,264,264,0,0,1-5.6,41.1c-1.4,6.7-3.2,13.2-5.1,19.7-.5,1.6-1.1,3.2-1.6,4.8l-.8,2.4a22.5,22.5,0,0,1-.8,2.4c-.6,1.6-1.2,3.2-1.7,4.7-.3.8-.5,1.6-.8,2.4l-1,2.3c-.6,1.6-1.2,3.1-1.8,4.7s-1.4,3.1-2,4.6l-1,2.3-.5,1.2-.5,1.1c-.7,1.5-1.4,3-2.1,4.6-.4.8-.7,1.6-1.1,2.3l-1.2,2.3c-.8,1.5-1.5,3-2.2,4.6l-2.4,4.5c-.8,1.5-1.5,3-2.4,4.5a296.87,296.87,0,0,1-21.5,32.7,226.41,226.41,0,0,1-27.3,30.1,233.27,233.27,0,0,1-33.8,26.1c-1.5,1-3.1,1.9-4.7,2.8l-4.8,2.8c-3.3,1.8-6.6,3.5-10,5.2-3.4,1.5-6.9,3.2-10.4,4.7l-5.3,2.1c-1.8.7-3.6,1.5-5.4,2.1-4.4,1.5-8.8,3.1-13.4,4.3-2.3.6-4.6,1.4-6.9,1.9l-7,1.6a222.65,222.65,0,0,1-92.1,1.4A237.05,237.05,0,0,1,86.6,496l-2.9-1.2c-.9-.4-1.9-.9-2.8-1.3l-5.7-2.7-2.9-1.3-2.8-1.4-5.7-2.9c-1-.5-1.9-1-2.8-1.5s-1.8-1.1-2.7-1.7a60.27,60.27,0,0,1-5.2-3.6c-.8-.6-1.7-1.3-2.5-2l-2.3-2.1c-1.5-1.4-3.1-2.8-4.6-4.3a126.49,126.49,0,0,1-25.9-36.4c-6.3-13.1-10.3-27.8-12.4-42.5-.5-3.7-.9-7.4-1.3-11s-.5-7.3-.7-10.9S3.2,362,3,358.4l-.1-2.7c0-.9-.1-1.8-.1-2.6V342.6c0-1.7.1-3.5.1-5.2v-7.6l.1-2.6c.1-3.4.1-6.7.1-10.1s.1-6.7.1-10"/><path class="cls-2" d="M3.4,289.6c.1-2.5.1-5.1.3-7.6s.5-5,.7-7.5c.1-1.2.2-2.5.4-3.7s.4-2.5.6-3.7c.4-2.4.7-4.9,1.1-7.3a256.13,256.13,0,0,1,6.9-28.1c.3-1.1.7-2.3,1-3.4l.5-1.7.6-1.7c.8-2.2,1.5-4.4,2.3-6.7s1.6-4.4,2.4-6.6,1.6-4.3,2.4-6.5c3.5-8.5,7-17,11.1-25.2,3.9-8.3,8.3-16.2,12.7-24.1,1.1-2,2.4-3.8,3.6-5.8l1.8-2.9.9-1.4,1-1.4c1.3-1.9,2.6-3.7,3.8-5.6.6-.9,1.3-1.9,1.9-2.8l2-2.7c1.4-1.8,2.7-3.6,4.1-5.4s2.9-3.5,4.4-5.2l2.2-2.5c.7-.8,1.5-1.7,2.3-2.5,1.6-1.6,3.2-3.2,4.8-4.7l2.4-2.3,2.5-2.2c1.7-1.5,3.4-3,5-4.5s3.5-2.9,5.2-4.3,3.5-2.8,5.3-4.2A200.45,200.45,0,0,1,253.3,57.9l3.5.6c1.2.2,2.3.5,3.5.7l6.9,1.5,1.7.4,1.7.5,3.4,1c2.3.7,4.6,1.3,6.8,2a190,190,0,0,1,26.6,10.8c1.8.9,3.5,1.7,5.3,2.6s3.4,1.9,5.1,2.9,3.4,1.9,5.1,3,3.3,2.1,4.9,3.2a180,180,0,0,1,35.8,31.2,189,189,0,0,1,25.7,37,200.77,200.77,0,0,1,16,39.5,231.87,231.87,0,0,1,8.2,83.1,268.73,268.73,0,0,1-6.8,41.7,254,254,0,0,1-13.1,38.9c-2.6,6.3-5.6,12.4-8.6,18.5-3.3,6-6.4,12.1-10.1,17.9A286.83,286.83,0,0,1,352.3,427a249.75,249.75,0,0,1-28.2,29.2,226.84,226.84,0,0,1-34.4,25.1,223.51,223.51,0,0,1-40.8,18.8,230.92,230.92,0,0,1-27.2,7.5,227.87,227.87,0,0,1-91.3.6,230.56,230.56,0,0,1-46.2-14.4c-3.7-1.7-7.4-3.5-11.3-5.1-3.7-1.8-7.6-3.6-11.3-5.5a90.07,90.07,0,0,1-10.4-7c-3.1-2.7-6.2-5.4-9.2-8.3-2.6-2.6-5.1-5.4-7.5-8.1s-4.6-5.8-6.8-8.8c-.5-.7-1.1-1.5-1.6-2.3l-1.5-2.3c-1-1.6-1.9-3.2-2.9-4.8a101.53,101.53,0,0,1-5.1-9.8A147.53,147.53,0,0,1,4.5,389.3c-.5-3.6-.9-7.3-1.2-10.9s-.4-7.2-.7-10.8c-.2-7.2-.4-14.2-.3-21.1.2-13.5.3-26.9.5-40.3"/><path class="cls-2" d="M3.4,289.8c.1-2.6.2-5.1.3-7.6.3-2.5.5-5,.8-7.5.1-1.2.3-2.5.4-3.7s.4-2.5.6-3.7c.4-2.4.8-4.9,1.2-7.3a249.8,249.8,0,0,1,7.4-28c.4-1.1.7-2.3,1.1-3.4l.5-1.7.6-1.7,2.4-6.6c.7-2.2,1.7-4.3,2.5-6.5s1.7-4.3,2.6-6.4,1.9-4.2,2.8-6.3l1.3-3.2,1.4-3.1c1-2.1,1.9-4.1,2.8-6.2s2-4.1,3-6.1c3.9-8.2,8.3-16.1,12.7-24,1.2-1.9,2.3-3.9,3.5-5.8s2.3-3.9,3.6-5.8c2.5-3.7,4.9-7.6,7.6-11.2,1.3-1.8,2.6-3.7,4-5.5s2.8-3.5,4.3-5.3l2.2-2.6a27.25,27.25,0,0,1,2.3-2.5c1.6-1.6,3.1-3.3,4.7-4.9l2.4-2.4,2.5-2.3,4.9-4.7c1.7-1.5,3.4-3,5.1-4.4s3.4-3,5.2-4.4a204.21,204.21,0,0,1,45.2-27,196.2,196.2,0,0,1,53.1-14.8,205.51,205.51,0,0,1,57,.5c2.4.3,4.8.8,7.2,1.3s4.8,1,7.1,1.4l7.1,1.8c2.4.6,4.7,1.2,7,2,4.7,1.5,9.3,3,13.9,4.9,2.3.9,4.6,1.8,6.8,2.8s4.5,2.1,6.7,3.2a182,182,0,0,1,57.7,44.2,192.7,192.7,0,0,1,25.9,38.3,201.85,201.85,0,0,1,15.7,40.7,227.25,227.25,0,0,1,7,40.6,235.63,235.63,0,0,1-.6,44.5,262.34,262.34,0,0,1-8,42.2,285.18,285.18,0,0,1-14.5,39.1c-.6,1.6-1.5,3.1-2.2,4.7l-2.2,4.7c-.8,1.5-1.6,3-2.4,4.6l-1.2,2.3c-.4.8-.9,1.5-1.3,2.3-.9,1.5-1.7,3-2.5,4.5-.4.8-.9,1.5-1.3,2.2l-1.4,2.2c-.9,1.5-1.7,3-2.7,4.4s-1.9,2.9-2.8,4.4l-1.3,2.1-1.4,2c-.9,1.3-1.8,2.7-2.7,4a24.26,24.26,0,0,1-1.4,2l-1.5,2-2.9,4-3,3.9c-1,1.3-2,2.7-3.1,3.9-2.1,2.5-4.1,5.2-6.4,7.6a260,260,0,0,1-29,28.4,236.43,236.43,0,0,1-34.9,24,225.92,225.92,0,0,1-41,17.9c-2.2.8-4.4,1.3-6.6,2s-4.5,1.3-6.7,1.9l-6.8,1.6-3.5.8-3.5.6a231.63,231.63,0,0,1-90.5-.1,228.68,228.68,0,0,1-45.8-14.3l-5.6-2.5-2.9-1.2-2.8-1.3-5.7-2.6-2.8-1.4-2.7-1.5c-1.8-1.1-3.5-2.2-5.2-3.3-.9-.6-1.7-1.2-2.5-1.8s-1.6-1.3-2.4-2c-1.6-1.3-3.1-2.6-4.7-4l-2.3-2.1c-.7-.7-1.5-1.4-2.2-2.2-2.5-2.6-5.1-5.2-7.4-8s-4.5-5.7-6.7-8.7c-2-3-4-6.1-5.8-9.3s-3.4-6.5-5-9.8C9.6,416.3,6,401.9,4.1,387.5c-.4-3.6-.9-7.2-1.1-10.8s-.4-7.1-.6-10.7-.1-7-.2-10.5c-.1-1.7,0-3.5,0-5.2v-5.2c.2-13.7.6-26.9.7-39.9"/><path class="cls-2" d="M3.4,290c.1-2.6.2-5.1.3-7.7.3-2.5.5-5.1.8-7.6.1-1.3.3-2.5.4-3.7s.4-2.5.6-3.7c.4-2.5.9-4.9,1.3-7.3s1.2-4.8,1.7-7.2l.9-3.6c.3-1.2.7-2.3,1-3.5l2.1-6.9c.3-1.2.8-2.3,1.1-3.4s.8-2.3,1.2-3.4c1.5-4.5,3.3-8.9,5-13.2.8-2.2,1.8-4.3,2.7-6.4s1.8-4.3,2.7-6.4,1.9-4.2,2.9-6.2l1.4-3.1,1.5-3.1c1-2,2-4.1,2.9-6.1l3-6c3.9-8.1,8.3-15.9,12.6-23.8,1.1-1.9,2.3-3.9,3.4-5.8s2.2-3.9,3.5-5.8c2.4-3.8,4.7-7.7,7.4-11.4,1.3-1.9,2.6-3.8,3.8-5.6,1.4-1.8,2.8-3.6,4.1-5.4a125.47,125.47,0,0,1,8.8-10.3c1.5-1.7,3.1-3.3,4.7-4.9l4.8-4.8c1.7-1.6,3.4-3.1,5.1-4.6l2.6-2.3L99,95.7l1.3-1.1a201.74,201.74,0,0,1,44.9-28.5l3.1-1.5a30.54,30.54,0,0,1,3.2-1.3c2.1-.9,4.3-1.7,6.4-2.6s4.4-1.6,6.6-2.3,4.4-1.5,6.7-2.2,4.5-1.2,6.8-1.9l3.4-.9a35.89,35.89,0,0,1,3.5-.8c2.3-.5,4.7-.9,7-1.4l3.5-.7L199,50a203.89,203.89,0,0,1,58.4-.4,197,197,0,0,1,57.5,17.5l1.4.7,1.4.7,2.8,1.5c1.8,1,3.7,2,5.5,3,3.6,2.1,7.1,4.3,10.6,6.5a182.84,182.84,0,0,1,37.5,33.4,195.47,195.47,0,0,1,26.2,39.6,203,203,0,0,1,15.4,42,227.85,227.85,0,0,1,6.3,41.6,253,253,0,0,1-1.7,45.4,248.42,248.42,0,0,1-9.3,42.8,275.59,275.59,0,0,1-15.8,39.3,305.45,305.45,0,0,1-21.5,36,276.49,276.49,0,0,1-24.8,30.6c-2.2,2.5-4.6,4.8-6.9,7.2-1.1,1.2-2.4,2.4-3.6,3.5l-3.7,3.5c-1.2,1.2-2.5,2.2-3.8,3.4s-2.5,2.3-3.8,3.4l-4,3.3-2,1.7c-.7.6-1.4,1-2,1.6a241.84,241.84,0,0,1-35.4,23,220.2,220.2,0,0,1-41.1,16.9l-6.6,1.9c-1.1.3-2.2.7-3.3.9l-3.4.8-6.8,1.6-6.9,1.3a237.73,237.73,0,0,1-89.7-.8,228.36,228.36,0,0,1-45.3-14.2L75,486.9l-5.6-2.5c-1.9-.8-3.8-1.7-5.6-2.6s-3.6-2-5.3-3-3.4-2.2-5.1-3.4-3.2-2.5-4.7-3.8-3.1-2.6-4.6-3.9-2.9-2.8-4.3-4.2a120.22,120.22,0,0,1-24.5-35.3A144,144,0,0,1,4.2,386.6c-.4-3.6-.8-7.1-1-10.6s-.5-7-.5-10.6-.1-6.9-.2-10.4l.1-5.2v-5.1c.2-13.6.8-26.6.9-39.4"/><path class="cls-2" d="M3.4,290.3c.1-2.6.2-5.2.4-7.7s.6-5.1.9-7.6c.2-1.3.3-2.5.5-3.8s.4-2.5.7-3.7c.5-2.5.9-4.9,1.4-7.4l1.8-7.2.9-3.6c.3-1.2.7-2.3,1.1-3.5.7-2.3,1.5-4.6,2.2-6.9a34,34,0,0,1,1.2-3.4c.4-1.1.8-2.2,1.3-3.4,6.7-17.8,14.9-34.1,22.9-50,1.9-4,4.1-7.9,6.1-11.9,1-2,2.1-3.9,3.2-5.9s2.1-3.9,3.2-5.9c4.5-7.7,8.9-15.6,13.9-23.1,1.2-1.9,2.5-3.8,3.7-5.7s2.7-3.7,4-5.5a124.4,124.4,0,0,1,8.6-10.6c1.5-1.8,3.1-3.4,4.6-5.1l4.7-5,5-4.8c1.7-1.6,3.3-3.2,5.1-4.7A203.35,203.35,0,0,1,145.4,64c1-.5,2.1-1.1,3.1-1.5l3.2-1.4c2.2-.9,4.3-1.9,6.5-2.8,1.1-.5,2.2-.9,3.3-1.3l3.3-1.2c2.2-.8,4.5-1.6,6.7-2.4s4.6-1.4,6.9-2,4.6-1.4,7-1.9c4.7-1.1,9.5-2.3,14.3-3a202,202,0,0,1,59.7-1.2,199.57,199.57,0,0,1,59.2,17.6c3.8,2,7.6,3.9,11.3,6,1.8,1.1,3.7,2.2,5.5,3.3a62.16,62.16,0,0,1,5.4,3.5,184.33,184.33,0,0,1,38.4,34.4,191.85,191.85,0,0,1,26.4,40.8,202.1,202.1,0,0,1,15.1,43.2,227.15,227.15,0,0,1,5.5,42.6,251.12,251.12,0,0,1-2.8,46.2,241.52,241.52,0,0,1-10.7,43.2l-1.8,5.1-2,5.1c-1.2,3.4-2.8,6.7-4.1,10-.6,1.7-1.5,3.3-2.2,4.9l-2.2,4.8-2.4,4.8-1.2,2.4c-.4.8-.9,1.6-1.3,2.3-.9,1.6-1.7,3.1-2.5,4.7-.4.8-.9,1.5-1.3,2.3l-1.4,2.3-1.3,2.3c-.4.8-.9,1.5-1.4,2.3-1,1.5-1.9,3-2.8,4.5-.5.7-.9,1.5-1.4,2.2l-1.5,2.2c-1,1.5-2,2.9-2.9,4.4-1.1,1.4-2.1,2.9-3.1,4.3l-1.5,2.2c-.5.7-1.1,1.4-1.6,2.1a303.83,303.83,0,0,1-25.7,30,261,261,0,0,1-30.6,26.5,239.65,239.65,0,0,1-35.9,22.1,237.25,237.25,0,0,1-41.3,15.9c-2.2.6-4.4,1.3-6.6,1.8l-6.7,1.6-3.4.8-3.4.6c-2.3.4-4.6.9-6.9,1.3a242.25,242.25,0,0,1-88.9-1.5,233.26,233.26,0,0,1-44.9-14.1c-7.4-3.1-15.2-6.1-21.9-10.5a22,22,0,0,1-2.5-1.7l-2.4-1.8c-1.6-1.2-3.2-2.4-4.7-3.7a114,114,0,0,1-8.9-8.1c-2.6-2.5-4.9-5.2-7.2-7.9-1.1-1.4-2.3-2.7-3.4-4.1s-2.1-2.9-3.1-4.4A130.08,130.08,0,0,1,14,425.5c-5.9-13-9.1-27.2-10.7-41.2A322.07,322.07,0,0,1,2,342.9c.3-6.7.3-13.3.6-19.8.1-1.6.1-3.2.1-4.8s.2-3.2.2-4.8.1-3.2.1-4.8v-2.4c0-.8.1-1.6.1-2.4"/><path class="cls-2" d="M3.4,290.5c.1-2.6.2-5.2.4-7.8s.6-5.1.9-7.6c.2-1.3.3-2.5.5-3.8s.5-2.5.7-3.7.5-2.5.7-3.7.5-2.4.8-3.7c.6-2.4,1.3-4.8,1.9-7.2.3-1.2.7-2.4,1-3.5s.8-2.3,1.2-3.5l2.4-6.9c.4-1.1.9-2.2,1.3-3.4s.9-2.2,1.3-3.3c7.1-17.7,15.7-33.6,23.8-49.4,1.9-4,4.2-7.8,6.1-11.8,1-2,2.1-3.9,3.1-5.9s2.1-3.9,3.1-5.9c4.4-7.7,8.6-15.7,13.5-23.3A199.93,199.93,0,0,1,200.3,43.2c2.5-.4,4.9-.9,7.4-1.3l7.5-.9c5-.7,10.1-.8,15.2-1.1,2.6-.2,5.1-.1,7.7-.1s5.2.1,7.7.1,5.2.3,7.8.5,5.2.4,7.8.8c5.2.7,10.4,1.4,15.5,2.5,2.6.5,5.2,1.1,7.7,1.7s5.1,1.4,7.7,2.1l3.8,1.1c1.3.4,2.5.8,3.8,1.3l7.5,2.7c2.5.9,4.9,2,7.4,3.1s4.9,2.1,7.3,3.3c2,1,3.9,2,5.9,3,1,.5,2,1,2.9,1.5l2.9,1.7a130.69,130.69,0,0,1,11.2,7,186.34,186.34,0,0,1,39.3,35.5,193.07,193.07,0,0,1,26.6,42.1,206,206,0,0,1,14.6,44.4,228.72,228.72,0,0,1,4.7,43.6,243.54,243.54,0,0,1-3.9,47.1,264.9,264.9,0,0,1-12,43.7c-1.2,3.5-2.7,6.9-4.1,10.3-.6,1.7-1.5,3.4-2.2,5l-2.2,5c-3.3,6.5-6.4,13-10.1,19.2-3.5,6.3-7.5,12.2-11.4,18.2-4.2,5.8-8.3,11.7-12.8,17.2a273.38,273.38,0,0,1-58.1,54.8,234.87,234.87,0,0,1-36.3,20.9,241.16,241.16,0,0,1-41.3,15l-3.3.9-3.3.7-6.7,1.5-6.7,1.2-3.4.6c-1.1.2-2.3.3-3.4.5a244.87,244.87,0,0,1-88.1-2.2c-1.9-.4-3.7-.8-5.6-1.3a50.92,50.92,0,0,1-5.6-1.4c-1.9-.5-3.7-1-5.6-1.6l-2.8-.8c-.9-.3-1.9-.5-2.8-.9-3.7-1.2-7.4-2.4-11.1-3.8s-7.4-2.9-11.1-4.3-7.4-3-11.1-4.7a96.18,96.18,0,0,1-10.4-5.9c-3.2-2.3-6.4-4.7-9.5-7.1-1.5-1.2-3-2.6-4.4-3.9s-2.9-2.7-4.3-4.1a115.36,115.36,0,0,1-23.4-34.7c-.7-1.6-1.3-3.3-2-4.9s-1.3-3.3-1.8-5c-1.1-3.4-2.1-6.7-2.9-10.1S5,396,4.4,392.6c-.3-1.7-.5-3.5-.8-5.2s-.4-3.5-.6-5.2c-1.4-13.9-1.3-27.7-1-40.9s1.1-26,1.2-38.5"/><path class="cls-2" d="M3.4,290.7c.1-2.6.2-5.2.4-7.8s.6-5.1,1-7.7c.2-1.3.4-2.5.6-3.8s.5-2.5.8-3.7.5-2.5.8-3.7.6-2.5.8-3.7c.6-2.4,1.4-4.8,2.1-7.2.4-1.2.7-2.4,1.1-3.5s.8-2.3,1.2-3.5c.8-2.3,1.7-4.6,2.5-6.9.4-1.1.9-2.2,1.4-3.3s.9-2.2,1.4-3.3c1.8-4.4,4-8.6,5.9-12.9l.7-1.6.8-1.5c.5-1,1.1-2.1,1.6-3.1,1.1-2,2-4.1,3.1-6.1s2.2-4,3.2-6l1.5-3,1.6-2.9c1.1-2,2.1-3.9,3.1-5.9s2.1-3.9,3.2-5.8c1.9-4,4.2-7.7,6.1-11.7l.7-1.5.8-1.4,1.6-2.9c1-2,2-3.9,3.1-5.9s2.1-3.9,3.2-5.9l1.6-3,1.7-2.9c1.1-1.9,2.2-3.9,3.3-5.9s2.3-3.9,3.4-5.9a212.51,212.51,0,0,1,15.2-23c1.4-1.9,2.9-3.6,4.4-5.4s2.9-3.6,4.5-5.4l4.8-5.2L99,95.2l2.5-2.5A199.75,199.75,0,0,1,145.6,60l1.6-.9,1.6-.8,3.2-1.6c2.2-1.1,4.3-2.1,6.6-3.2,2.2-.9,4.5-1.9,6.8-2.8s4.5-1.9,6.9-2.7c4.7-1.6,9.4-3.4,14.3-4.6,2.4-.7,4.9-1.3,7.3-2s5-1.1,7.5-1.6A197.37,197.37,0,0,1,263.9,37a191,191,0,0,1,62.5,17.9c2,1,4,2,6.1,3s4,2.2,5.9,3.3,3.9,2.3,5.9,3.4,3.8,2.5,5.7,3.7a185.52,185.52,0,0,1,40.1,36.6,198.27,198.27,0,0,1,26.7,43.5,209.66,209.66,0,0,1,14.3,45.7,221.84,221.84,0,0,1,3.9,44.6c.1,4.1-.3,8.2-.4,12.2,0,2-.3,4.1-.4,6.1s-.3,4-.5,6-.5,4-.8,6-.5,3.9-.8,5.9l-1,5.9-.5,2.9c-.1,1-.4,1.9-.6,2.9a263.35,263.35,0,0,1-13.3,44.2A273,273,0,0,1,371,405.5a275.8,275.8,0,0,1-27.8,28.4c-1.3,1.1-2.5,2.3-3.7,3.3l-3.9,3.2c-2.5,2.2-5.3,4.2-7.9,6.3-1.3,1.1-2.7,2-4.1,3l-4.1,3-4.2,2.9-2.1,1.5c-.7.5-1.4,1-2.1,1.4a253.49,253.49,0,0,1-78.2,34l-6.6,1.5-3.3.8-3.3.6c-2.2.4-4.5.8-6.7,1.3-2.3.3-4.5.7-6.8,1a252.54,252.54,0,0,1-87.3-2.9l-5.6-1.2c-1.9-.4-3.7-1-5.5-1.4l-5.6-1.5c-1.9-.5-3.7-1.1-5.5-1.7s-3.7-1.2-5.5-1.8c-.9-.3-1.8-.6-2.7-1l-2.7-1c-3.6-1.4-7.4-2.7-11-4.2a93,93,0,0,1-21.1-10.7c-1.6-1.1-3.2-2.2-4.8-3.4s-3.1-2.3-4.6-3.6c-2.9-2.6-5.9-5.1-8.6-7.9-2.4-2.5-4.7-5.1-6.9-7.7s-4.2-5.5-6.1-8.4c-1-1.4-1.9-2.9-2.8-4.4s-1.7-3-2.6-4.5-1.7-3-2.4-4.6L12.8,421c-.7-1.6-1.3-3.2-2-4.8s-1.1-3.3-1.7-4.9-1-3.3-1.5-5l-.7-2.5c-.2-.8-.4-1.7-.6-2.5q-1.2-5.1-2.1-10.2c-.5-3.5-1-6.9-1.3-10.3-1.3-13.8-1.1-27.4-.7-40.4.1-1.6.2-3.3.2-4.9s.1-3.2.1-4.8.2-3.2.3-4.8l.2-4.8c0-3.1.3-6.3.3-9.4,0-1.6.1-3.1.1-4.7l.1-4.7"/><path class="cls-2" d="M3.4,290.9c.1-2.6.2-5.3.4-7.9s.6-5.2,1-7.7c.2-1.3.4-2.5.6-3.8s.5-2.5.8-3.8.6-2.5.8-3.7.6-2.5.9-3.7c.6-2.4,1.5-4.8,2.2-7.2s1.5-4.7,2.5-7,1.8-4.6,2.7-6.8c.4-1.1,1-2.2,1.5-3.3l1.5-3.3c1.9-4.4,4.2-8.6,6.2-12.7l.8-1.6.8-1.5,1.7-3c1.1-2,2.1-4.1,3.2-6s2.2-3.9,3.3-5.9c.5-1,1-2,1.6-3l1.6-2.9c1.1-1.9,2.1-3.9,3.1-5.8s2.2-3.8,3.2-5.8c8.3-15.4,16.1-31,24.9-47A223.94,223.94,0,0,1,83.4,114c1.4-1.9,2.8-3.7,4.3-5.5l2.2-2.8,1.1-1.4,1.2-1.3,4.7-5.4,2.4-2.7,2.5-2.6A197.76,197.76,0,0,1,202,36.6l3.8-.9c1.3-.3,2.6-.5,3.9-.7l7.8-1.2c2.6-.5,5.3-.6,7.9-.9s5.3-.5,8-.7,5.4-.2,8.1-.2a73,73,0,0,1,8.1,0c5.4.2,10.9.4,16.4,1,2.7.3,5.5.6,8.2,1s5.5.9,8.2,1.4l4.1.8,4.1,1c2.7.7,5.4,1.3,8.1,2a204.6,204.6,0,0,1,31.6,11.9l3.1,1.5c1,.5,2.1,1,3.1,1.6,2,1.1,4.1,2.3,6.1,3.4,4.1,2.2,8,4.9,11.9,7.4,1,.7,2,1.3,3,2l2.9,2.1c1.9,1.4,3.8,2.9,5.7,4.3s3.6,3,5.4,4.6,3.5,3.1,5.3,4.6,3.3,3.3,5,4.9l2.4,2.4,1.2,1.2,1.2,1.3,4.5,5.1,2.2,2.6,2.1,2.7a195.5,195.5,0,0,1,26.8,44.8A201.8,201.8,0,0,1,436,194.5a222.87,222.87,0,0,1,3.1,45.6v1.6l-.1,1.6-.2,3.1c-.1,2.1-.2,4.1-.3,6.2s-.4,4.1-.6,6.2a59.85,59.85,0,0,1-.7,6.1c-.3,2-.6,4-.9,6.1l-.4,3-.6,3c-.4,2-.7,4-1.1,6l-.3,1.5-.4,1.5-.7,2.9a256,256,0,0,1-14.6,44.6,288.51,288.51,0,0,1-21.4,39.6,305.1,305.1,0,0,1-27,34.8A314.51,314.51,0,0,1,341,435.6a251.71,251.71,0,0,1-32.9,23.6A269.13,269.13,0,0,1,271,478.1a271.3,271.3,0,0,1-41.5,13c-2.2.5-4.4,1-6.5,1.5l-6.6,1.2-3.3.6c-1.1.2-2.2.3-3.3.5-2.2.3-4.5.6-6.7,1a259.06,259.06,0,0,1-86.6-3.5c-7.3-1.6-14.7-3.5-22-5.8-3.7-1.1-7.2-2.4-10.9-3.7s-7.3-2.7-11-4.1c-1.8-.7-3.7-1.4-5.5-2.2s-3.5-1.7-5.3-2.6-3.4-1.8-5.1-2.8-3.2-2.1-4.8-3.2-3.2-2.2-4.7-3.3l-4.5-3.6c-1.5-1.2-2.9-2.5-4.4-3.8-.7-.6-1.4-1.3-2.1-2l-2-2.1c-1.2-1.2-2.3-2.5-3.5-3.7L29,447.6c-.5-.7-1.1-1.3-1.6-2-2.1-2.7-4.1-5.4-6.1-8.3-1.8-2.9-3.6-5.8-5.2-8.8s-3-6.2-4.4-9.3c-5.3-12.7-8.1-26.3-9.4-39.9s-.9-27.1-.4-40c.1-3.2.3-6.4.3-9.6.3-3.2.3-6.3.4-9.5,0-1.6.1-3.1.2-4.7s.1-3.1.2-4.7l.1-4.6c.1-1.5.1-3.1.2-4.6"/><path class="cls-2" d="M3.4,291.2c.1-2.7.3-5.3.4-7.9.3-2.6.7-5.2,1.1-7.8.2-1.3.4-2.6.6-3.8s.5-2.5.8-3.8.6-2.5.9-3.7.6-2.5,1-3.7c.7-2.4,1.6-4.8,2.3-7.2s1.6-4.7,2.6-7,1.9-4.6,2.8-6.8a24.94,24.94,0,0,1,1.6-3.3c.5-1.1,1.1-2.2,1.6-3.3,2-4.4,4.4-8.5,6.5-12.6.5-1,1.1-2,1.7-3l1.7-3,1.7-3c.5-1,1.1-2,1.7-3,2.4-3.9,4.4-7.8,6.7-11.6,1.1-1.9,2.2-3.8,3.2-5.8s2.2-3.8,3.2-5.7c8.3-15.3,15.9-30.8,24.5-47,2.1-4.1,4.4-8.1,6.7-12.1,1.1-2.1,2.4-4,3.6-6s2.6-3.9,3.9-5.9l4.2-5.7c1.4-1.9,2.8-3.9,4.3-5.7,3-3.7,6.1-7.5,9.4-10.9a199.07,199.07,0,0,1,43.7-35.6,203.42,203.42,0,0,1,57.1-23,200.47,200.47,0,0,1,65.4-4.4c5.6.4,11.2,1.4,16.8,2.3l2.1.4,2.1.5,4.2.9,4.2,1c1.4.3,2.8.7,4.2,1.1a157.24,157.24,0,0,1,16.4,5.4c2.7,1,5.4,2,8.1,3.2s5.3,2.4,7.9,3.6c1.1.5,2.2,1,3.2,1.5l3.2,1.7c2.1,1.1,4.2,2.3,6.3,3.4s4.1,2.5,6.1,3.7l6,3.9a188,188,0,0,1,41.7,39.1,196.59,196.59,0,0,1,26.9,46.1,206.11,206.11,0,0,1,13.4,48.1,238.27,238.27,0,0,1,2.3,46.6,258.07,258.07,0,0,1-7.5,49.5,252.13,252.13,0,0,1-15.9,45A268.59,268.59,0,0,1,368.7,410,302.88,302.88,0,0,1,339,436.9a298.78,298.78,0,0,1-33.6,22.6l-2.2,1.3-2.3,1.2-4.5,2.5c-.7.4-1.5.8-2.3,1.2l-2.3,1.1-4.6,2.3-4.7,2.1c-1.6.7-3.2,1.5-4.8,2.1l-4.9,2c-.8.3-1.6.7-2.4,1l-2.5.9a276.5,276.5,0,0,1-41.5,12.1l-3.2.7-3.3.6-6.6,1.2-6.6.9c-2.2.3-4.5.7-6.7.8a265.5,265.5,0,0,1-85.8-4.1c-3.6-.9-7.3-1.7-10.9-2.6s-7.3-2.1-10.9-3.1c-3.6-1.2-7.2-2.4-10.8-3.7s-7.2-2.7-10.9-4a91.54,91.54,0,0,1-10.5-4.9c-.8-.5-1.7-.9-2.5-1.4l-2.4-1.5c-1.6-1-3.2-2.1-4.8-3.1-3.2-2.1-6.1-4.5-9.1-6.9a76.59,76.59,0,0,1-8.3-7.8,105.08,105.08,0,0,1-22-33.7c-5.1-12.5-7.8-26-8.9-39.4-.2-3.4-.4-6.7-.6-10-.1-1.7-.1-3.3-.1-5v-5c-.1-3.3.2-6.6.2-9.8,0-1.6.1-3.2.1-4.8s.2-3.2.3-4.8l.2-4.8c.1-1.6,0-3.1.2-4.7s.2-3.1.2-4.7.2-3.1.2-4.6.2-3.1.2-4.6.1-3.1.2-4.6c0-3.1.2-6.1.2-9.1"/><path class="cls-2" d="M3.4,291.4c.1-2.7.3-5.3.5-8s.7-5.2,1.1-7.8c.2-1.3.5-2.6.7-3.8s.6-2.5.9-3.8.6-2.5.9-3.7.7-2.5,1-3.7c.7-2.4,1.7-4.8,2.4-7.2.9-2.4,1.7-4.7,2.7-7s2-4.5,3-6.8c.5-1.1,1.1-2.2,1.6-3.3s1.1-2.2,1.7-3.2c2.1-4.3,4.6-8.4,6.9-12.5l1.8-3,1.8-3,1.7-3,.9-1.5.9-1.4c2.5-3.8,4.6-7.7,6.9-11.4l3.3-5.7c1.1-1.9,2.2-3.7,3.3-5.6l1.5-2.9,1.6-2.8c1.1-1.9,2-3.8,3-5.7s2.1-3.8,3-5.7l1.4-2.9.7-1.5.8-1.4c2-3.8,3.8-7.9,5.9-11.9,1-2,2-4,2.9-6.1s2.1-4,3.1-6.1c2-4.2,4.2-8.2,6.4-12.4,1.1-2.1,2.3-4.1,3.5-6.1s2.4-4.1,3.7-6.1a221.58,221.58,0,0,1,17.5-23,198.46,198.46,0,0,1,43.5-37A200.88,200.88,0,0,1,203.7,30c2.6-.7,5.3-1.2,8-1.8s5.4-1.1,8.1-1.6,5.5-.8,8.2-1.1,5.5-.7,8.3-.9,5.6-.4,8.4-.5l2.1-.1h6.4c2.8,0,5.7,0,8.6.2l8.6.6c1.4.1,2.9.2,4.3.4l4.3.6c2.9.4,5.8.8,8.6,1.3s5.7,1.2,8.6,1.8l4.3,1c1.4.3,2.8.8,4.3,1.2,2.8.8,5.7,1.6,8.5,2.5s5.6,1.9,8.4,3c5.6,1.9,11,4.5,16.5,6.9,4.4,2.2,8.7,4.5,13,6.9l6.3,3.9c2.1,1.3,4.2,2.6,6.2,4a188,188,0,0,1,42.5,40.3,194.47,194.47,0,0,1,27,47.4,215.07,215.07,0,0,1,12.9,49.3,231.57,231.57,0,0,1,1.4,47.6,256.36,256.36,0,0,1-25.9,95.6c-.9,1.8-1.7,3.6-2.6,5.3l-2.8,5.2-1.4,2.6-1.5,2.5-3,5c-1,1.7-2.1,3.3-3.1,4.9s-2,3.3-3.2,4.8c-2.2,3.1-4.3,6.3-6.7,9.4-1.2,1.5-2.2,3.1-3.4,4.6s-2.4,3-3.6,4.4c-.6.7-1.1,1.5-1.8,2.2l-1.9,2.2c-1.2,1.4-2.4,2.9-3.6,4.3l-3.8,4.2-1.9,2.1c-.6.7-1.3,1.3-2,2-1.3,1.3-2.6,2.7-3.9,4.1s-2.7,2.6-4,3.9c-4.7,4.8-9.8,9.2-14.8,13.6-1.3,1.1-2.6,2.1-3.9,3.2l-1.9,1.6c-.6.5-1.3,1.1-2,1.6-1.3,1-2.7,2-4,3.1l-2,1.6-2.1,1.5a286.74,286.74,0,0,1-34.2,21.7A283.73,283.73,0,0,1,223,488c-2.2.4-4.3.7-6.5,1.1l-3.3.6c-1.1.2-2.2.3-3.3.4l-6.6.9c-2.2.3-4.4.4-6.6.7a272.43,272.43,0,0,1-85-4.7,289,289,0,0,1-43.2-13.3,97.8,97.8,0,0,1-10.3-5c-3.2-1.9-6.5-3.9-9.6-6s-6-4.5-9-6.9-5.5-5-8.2-7.7c-.6-.6-1.2-1.2-1.7-1.8l-1.6-1.9c-1.1-1.3-2.1-2.5-3.2-3.9s-2.1-2.6-3-4-1.9-2.7-2.8-4.1A109.62,109.62,0,0,1,10,414.7a133.45,133.45,0,0,1-8.5-39c-.2-3.3-.5-6.6-.5-9.9S.9,359.2.9,356a40.48,40.48,0,0,1,.1-4.9c.1-1.6.1-3.2.1-4.8,0-.8.1-1.6.1-2.4a19.27,19.27,0,0,1,.1-2.4l.3-4.8c.2-6.3.7-12.5.8-18.6.2-3.1.4-6.1.4-9.1v-2.3c0-.8.1-1.5.1-2.3,0-1.5.1-3,.1-4.5"/><path class="cls-2" d="M3.4,291.6c.1-2.7.3-5.4.5-8s.7-5.3,1.1-7.9.9-5.2,1.6-7.7c.3-1.3.7-2.5,1-3.8s.7-2.5,1.1-3.7.8-2.4,1.3-3.6.9-2.4,1.3-3.6c.9-2.4,1.8-4.7,2.9-7,.5-1.1,1-2.3,1.6-3.4s1.1-2.2,1.6-3.3,1.2-2.2,1.7-3.3,1.1-2.2,1.7-3.2c2.2-4.3,4.9-8.3,7.2-12.4.6-1,1.3-2,1.9-3l1.9-2.9,1.8-2.9.9-1.4,1-1.4c2.5-3.8,4.7-7.6,7.1-11.3,1.2-1.9,2.2-3.8,3.3-5.6s2.3-3.7,3.3-5.6l1.5-2.8c.5-.9,1.1-1.8,1.6-2.8,1.1-1.9,2-3.8,3-5.7l3-5.7c1-1.9,1.8-3.9,2.9-5.9,2-3.9,3.7-8,5.7-11.9,1-2,1.9-4.1,2.8-6.1s2-4.1,3-6.1,1.9-4.2,3-6.3l3.1-6.3.8-1.6.9-1.6,1.7-3.1c1.2-2.1,2.3-4.2,3.6-6.2l3.9-6,2-3.1c.7-1,1.4-2,2.1-2.9l4.4-5.9c1.5-2,3.1-3.8,4.7-5.8,1.5-1.7,2.9-3.5,4.5-5.2l4.8-5.1c3.2-3.5,6.7-6.6,10.3-9.9,1.8-1.7,3.7-3.2,5.6-4.7s3.8-3.1,5.8-4.7,4-2.9,6.1-4.4l3.1-2.2a35.29,35.29,0,0,1,3.2-2.1,200,200,0,0,1,58.5-25.7,206.92,206.92,0,0,1,68.4-5.9l2.2.2,2.2.3,4.4.6,4.4.6c1.5.2,3,.4,4.4.7,5.9,1.2,11.8,2.2,17.6,3.9a203.72,203.72,0,0,1,34.2,12.6A195,195,0,0,1,368.7,55,192.55,192.55,0,0,1,412,96.5a196,196,0,0,1,27,48.8,214,214,0,0,1,12.4,50.5,232.16,232.16,0,0,1,.6,48.5,257.13,257.13,0,0,1-9.8,51,269.52,269.52,0,0,1-18.7,45.8,256.27,256.27,0,0,1-25.7,39.6l-1.7,2.3-1.9,2.2-3.7,4.5-3.8,4.3c-1.3,1.4-2.5,2.9-3.8,4.3l-3.9,4.2c-1.3,1.4-2.7,2.7-4,4-2.6,2.8-5.5,5.3-8.2,7.9l-.9.9-1,.8-1.9,1.7-3.8,3.4c-1.3,1.1-2.6,2.1-3.9,3.2s-2.5,2.2-3.9,3.2c-2.7,2-5.2,4.2-8,6.2-1.4,1-2.7,2-4,3l-4.2,2.9c-5.5,3.9-11.3,7.4-17,11l-4.4,2.5-2.2,1.3-1.1.6-1.1.6-4.5,2.4-2.2,1.2-2.3,1.1a299.9,299.9,0,0,1-38.2,15.7,292.51,292.51,0,0,1-41.5,10.2c-2.2.4-4.3.7-6.5,1.1s-4.3.5-6.5.8c-4.4.7-8.7.9-13.2,1.4a281.06,281.06,0,0,1-84.3-5.3c-3.6-.7-7.1-1.7-10.7-2.6-1.8-.5-3.6-.9-5.4-1.4s-3.5-1.1-5.3-1.6-3.6-1.1-5.4-1.7-3.6-1.2-5.3-1.8-3.6-1.2-5.4-1.9-3.5-1.4-5.3-2.1a86.21,86.21,0,0,1-10.1-5c-1.6-.9-3.2-1.9-4.8-2.9l-2.4-1.5-2.3-1.6c-3-2.2-6.1-4.3-8.9-6.8s-5.5-4.9-8.1-7.6A102.17,102.17,0,0,1,9.9,412.7C5,400.5,2.7,387.3,1.8,374.2c-.6-6.5-.5-13.1-.5-19.4l.2-4.8.1-4.8v-2.4c0-.8.1-1.6.1-2.4.1-1.6.2-3.1.2-4.7s.2-3.1.2-4.6.2-3.1.3-4.6l.2-4.6c.1-1.5,0-3,.2-4.5.2-3,.3-6,.4-9s.3-6,.2-8.9"/><path class="cls-2" d="M3.4,291.8c.1-2.7.3-5.4.5-8.1.1-1.3.3-2.7.5-4s.4-2.6.7-3.9a66,66,0,0,1,1.7-7.7c.3-1.3.7-2.5,1-3.8s.8-2.5,1.1-3.7.8-2.4,1.3-3.6.9-2.4,1.4-3.6c1-2.4,1.9-4.7,3-7,.5-1.1,1.1-2.3,1.6-3.4s1.1-2.2,1.7-3.3a33,33,0,0,1,1.8-3.2c.6-1.1,1.2-2.1,1.8-3.2s1.2-2.1,1.8-3.2,1.3-2,1.9-3.1c1.3-2,2.5-4,3.8-6s2.7-3.9,3.9-5.8,2.5-3.8,3.8-5.7c2.6-3.7,4.9-7.5,7.3-11.1,1.2-1.8,2.2-3.7,3.4-5.5a61.55,61.55,0,0,0,3.3-5.5l1.5-2.8c.5-.9,1.1-1.8,1.6-2.8l3-5.7c1-1.9,2-3.7,3-5.7s1.8-3.9,2.8-5.8,1.9-3.9,2.8-5.9,1.9-4,2.8-6,1.8-4.1,2.7-6.2,1.9-4.1,2.8-6.2l1.4-3.2,1.5-3.2,3-6.5c1-2.2,2.1-4.3,3.2-6.4s2.2-4.3,3.5-6.4l3.8-6.2c.6-1,1.3-2.1,2-3.1l2.1-3,4.3-6.1c1.5-2,3-3.9,4.6-5.9.7-.9,1.4-1.8,2.2-2.7s1.5-1.8,2.2-2.7c1.6-1.7,3.1-3.5,4.7-5.3l2.4-2.6c.8-.9,1.7-1.7,2.5-2.5,1.7-1.7,3.5-3.4,5.3-5.1s3.7-3.3,5.5-4.9,3.8-3.2,5.8-4.9c2-1.5,4-3,6.1-4.6s4.1-3.1,6.3-4.5A203.09,203.09,0,0,1,275.4,16.7a204.58,204.58,0,0,1,36.2,6.2c6,1.5,11.9,3.6,17.8,5.6,2.9,1.1,5.8,2.3,8.7,3.5l4.3,1.8c1.4.6,2.8,1.3,4.3,2,4.6,2.3,9.2,4.6,13.7,7.3,2.2,1.3,4.4,2.6,6.7,4s4.3,2.9,6.4,4.4a191.25,191.25,0,0,1,44.1,42.8,201.22,201.22,0,0,1,27.1,50.2,212.93,212.93,0,0,1,11.8,51.7,239.32,239.32,0,0,1-.3,49.4l-.3,3.3-.5,3.4c-.3,2.2-.6,4.4-1,6.6l-.2,1.6-.3,1.7-.6,3.3c-.4,2.2-.8,4.3-1.2,6.5s-1,4.3-1.5,6.4l-.8,3.2c-.2,1.1-.5,2.1-.8,3.2l-1.8,6.3-.9,3.1c-.3,1-.7,2.1-1,3.1a266.18,266.18,0,0,1-20,46.2,273.59,273.59,0,0,1-27.1,39.6c-1.2,1.5-2.6,3-3.8,4.5s-2.5,3-3.9,4.4l-4,4.3-1,1.1-1,1-2.1,2.1c-5.3,5.6-11.1,10.8-16.8,15.8a306.2,306.2,0,0,1-32.5,24.4c-.7.5-1.4.9-2.1,1.4l-2.2,1.3c-1.4.9-2.9,1.8-4.3,2.7s-2.9,1.7-4.4,2.5l-2.2,1.3c-.7.4-1.5.8-2.2,1.2-3,1.6-5.9,3.3-9,4.7l-4.5,2.3c-1.5.7-3.1,1.4-4.6,2.1-3,1.5-6.2,2.7-9.3,4.1-1.6.7-3.2,1.3-4.7,1.9s-3.2,1.3-4.8,1.9c-3.2,1.2-6.5,2.3-9.7,3.5-1.6.5-3.3,1-4.9,1.6l-2.5.8a23.35,23.35,0,0,1-2.5.7,291.13,291.13,0,0,1-41.5,9.2l-3.2.5c-1.1.2-2.1.3-3.2.4-2.1.3-4.3.5-6.5.8s-4.3.4-6.5.6-4.4.5-6.6.5a290.54,290.54,0,0,1-83.6-5.8c-3.5-.9-7.1-1.7-10.6-2.6s-7-2-10.6-3.1a214.18,214.18,0,0,1-21.2-7.5,112.72,112.72,0,0,1-36-25.1A96.89,96.89,0,0,1,9.3,409.9,110.66,110.66,0,0,1,4,391.2c-.5-3.2-1.1-6.4-1.5-9.6l-.3-2.4L2,376.8,1.7,372l-.3-4.8c-.1-1.6-.1-3.2-.1-4.8,0-3.2-.1-6.4,0-9.5.1-1.6.1-3.2.2-4.7s.1-3.1.1-4.7.2-3.1.3-4.7l.2-4.6c.7-12.3,1.3-24.1,1.6-35.8"/><path class="cls-2" d="M3.4,292.1c.1-2.7.3-5.4.5-8.1.1-1.3.3-2.7.5-4s.5-2.6.7-3.9a66.25,66.25,0,0,1,1.8-7.7c.4-1.3.7-2.5,1.1-3.8s.8-2.5,1.2-3.7.9-2.4,1.4-3.6,1-2.4,1.4-3.6c1-2.4,2-4.7,3.2-7,.6-1.1,1.1-2.3,1.7-3.4s1.2-2.2,1.7-3.3,1.3-2.2,1.9-3.2,1.3-2.1,1.9-3.2,1.3-2.1,1.9-3.1,1.4-2,2-3c1.3-2,2.6-4,4-5.9s2.8-3.8,4.1-5.7,2.6-3.8,3.9-5.6,2.6-3.7,3.8-5.5l.9-1.4,1-1.3,1.8-2.7c1.2-1.8,2.3-3.7,3.5-5.4s2.3-3.6,3.4-5.4c.5-.9,1-1.9,1.6-2.8s1.1-1.8,1.6-2.7c1-1.8,2-3.7,2.9-5.6s2-3.7,2.9-5.7,1.8-3.9,2.7-5.8,1.8-3.9,2.7-6c.4-1,.9-2,1.3-3l1.3-3c.9-2,1.7-4.2,2.6-6.2l2.7-6.3,1.3-3.3,1.4-3.2,2.8-6.6c1-2.2,2-4.4,3.1-6.6l1.6-3.3.8-1.6.9-1.6c2.4-4.2,4.8-8.6,7.6-12.7l4.2-6.3c1.5-2,3-4.1,4.5-6.1a192.57,192.57,0,0,1,43-41.2,201.72,201.72,0,0,1,60-28.5c2.8-.7,5.6-1.5,8.5-2.2,1.4-.3,2.9-.7,4.3-1l4.3-.8c2.9-.5,5.8-1.1,8.8-1.6s5.9-.7,8.9-1.1a156,156,0,0,1,18.2-1.1c3.1-.2,6.1,0,9.2.1s6.2.2,9.3.4a200.87,200.87,0,0,1,73.1,19.6c2.4,1.2,4.8,2.3,7.1,3.5l6.9,3.9c4.6,2.6,9,5.6,13.4,8.6a194.11,194.11,0,0,1,44.9,44.1,202.44,202.44,0,0,1,27.1,51.5,211.4,211.4,0,0,1,11.3,52.9,239.63,239.63,0,0,1-1.2,50.3A261.87,261.87,0,0,1,447.9,300c-.7,2.1-1.4,4.1-2.2,6.2s-1.6,4-2.4,6.1c-1.5,4-3.4,8-5.1,11.8-.4,1-.8,1.9-1.3,2.9l-1.4,2.9c-.9,1.9-1.9,3.8-2.8,5.7s-2,3.7-3,5.5l-1.5,2.7-.7,1.4-.8,1.3c-1.1,1.8-2.2,3.5-3.2,5.3a22.61,22.61,0,0,1-1.6,2.6l-1.7,2.6c-1.1,1.7-2.2,3.4-3.4,5.1s-2.4,3.3-3.6,5c-2.3,3.3-4.9,6.5-7.3,9.7a21.1,21.1,0,0,1-1.9,2.3l-1.9,2.3-1.9,2.3-.9,1.2-1,1.1c-2.7,3-5.2,6-8.1,8.8-1.4,1.4-2.7,2.9-4.1,4.3s-2.8,2.7-4.2,4.1-2.8,2.7-4.3,4-2.9,2.7-4.3,4-3,2.5-4.4,3.8c-.7.6-1.4,1.3-2.2,1.9l-2.3,1.8c-1.3,1.1-2.7,2.2-4,3.2l-4.1,3.1c-2.7,2.1-5.5,4-8.3,6.1l-2.1,1.5-2.1,1.4c-1.4.9-2.8,1.9-4.2,2.9s-2.9,1.8-4.3,2.7l-2.1,1.4-1.1.7-1.1.6a301.32,301.32,0,0,1-36.2,18.6A281.88,281.88,0,0,1,256,474.3a348.73,348.73,0,0,1-41.4,8.4c-8.4,1-17.1,2-25.8,2.4a300.24,300.24,0,0,1-82.8-6.4l-5.3-1.2-2.7-.6c-.9-.2-1.7-.5-2.6-.7-3.5-1-7-1.9-10.5-3s-7.1-2.3-10.6-3.4c-3.5-1.3-7-2.6-10.4-4.1a111.88,111.88,0,0,1-35.5-25,95.43,95.43,0,0,1-11.6-15.2c-1.6-2.7-3.1-5.5-4.6-8.4-.7-1.4-1.4-2.9-2-4.4l-1.8-4.5c-.6-1.5-1.1-3-1.6-4.5s-.9-3.1-1.3-4.6-.8-3.1-1.2-4.7l-.5-2.3-.4-2.4c-.6-3.2-1.1-6.3-1.5-9.5s-.5-6.4-.8-9.6c-.1-1.6-.2-3.2-.2-4.8L.8,361v-4.7a36.88,36.88,0,0,1,.1-4.7c.1-1.6.1-3.1.1-4.7l.1-2.3v-2.3c.2-3.1.4-6.1.5-9.2s.5-6,.5-9c.2-3,.2-5.9.5-8.9s.3-5.9.3-8.8c.2-2.9.2-5.8.2-8.7"/><path class="cls-2" d="M3.4,292.3c.1-2.7.3-5.5.5-8.2a27.61,27.61,0,0,1,.6-4c.2-1.3.5-2.7.7-4a127.64,127.64,0,0,1,4.2-15.3c.4-1.2.9-2.4,1.4-3.6l1.5-3.6c1.1-2.4,2.1-4.7,3.3-6.9.6-1.1,1.2-2.2,1.8-3.4l1.8-3.3c.6-1.1,1.3-2.1,2-3.2s1.3-2.1,2-3.1l2-3.1,2.1-3c1.4-2,2.8-3.9,4.1-5.9s2.9-3.8,4.2-5.6,2.7-3.7,4.1-5.5,2.7-3.6,3.9-5.4c.6-.9,1.3-1.8,1.9-2.7s1.3-1.8,1.9-2.7l1.8-2.7c.6-.9,1.1-1.8,1.8-2.7,1.2-1.8,2.3-3.5,3.4-5.4s2.1-3.6,3.2-5.4,2-3.7,2.9-5.6,2-3.7,2.9-5.6c.5-1,.9-1.9,1.3-2.9s.9-1.9,1.4-2.9c.9-1.9,1.8-3.9,2.6-6s1.7-4,2.6-6.1c1.7-4.2,3.4-8.5,5.1-12.7.4-1.1.8-2.2,1.3-3.3l1.3-3.3,2.7-6.8c.9-2.2,2-4.5,3-6.7s2-4.5,3.2-6.7c2.3-4.3,4.7-8.8,7.4-13.1,1.3-2.1,2.7-4.3,4.1-6.5s2.9-4.2,4.5-6.3c2.7-3.9,5.8-7.5,8.9-11.3,1.5-1.9,3.2-3.7,4.9-5.5l5.2-5.5c1.8-1.8,3.7-3.5,5.5-5.3l2.9-2.6c1-.9,1.9-1.8,2.9-2.6,2-1.7,4-3.3,6.1-5l3.1-2.5,3.3-2.3c2.2-1.6,4.4-3.1,6.7-4.7s4.6-2.9,7-4.4l3.6-2.1c1.2-.7,2.4-1.4,3.7-2.1l7.5-3.9c1.3-.6,2.5-1.3,3.8-1.9l3.9-1.7c2.6-1.1,5.3-2.3,8-3.4s5.5-2,8.2-3,5.6-2,8.4-2.7c5.7-1.6,11.5-3.2,17.4-4.3,3-.6,5.9-1.2,9-1.7L243,9.4l4.6-.5,4.6-.3c3.1-.2,6.2-.3,9.3-.5s6.3,0,9.4.1,6.3.1,9.5.4,6.4.5,9.5.9c1.6.1,3.2.4,4.8.6l4.8.7c6.4.9,12.7,2.5,19,4,1.6.4,3.1.9,4.7,1.3l4.7,1.4c3.1,1,6.3,2,9.3,3.2s6.1,2.4,9.2,3.6,6,2.7,9,4.1c4.9,2.3,9.6,5,14.4,7.7a80,80,0,0,1,6.9,4.3c2.3,1.5,4.5,3,6.8,4.6a196.92,196.92,0,0,1,45.6,45.5,202.92,202.92,0,0,1,27.2,52.9A215.18,215.18,0,0,1,467,197.5a240,240,0,0,1-2.2,51.2,274.52,274.52,0,0,1-13.6,53c-1.4,4.2-3.3,8.3-4.9,12.3-.8,2-1.8,4-2.7,6s-1.8,3.9-2.7,5.9-2,3.9-3,5.8l-1.5,2.9-.7,1.4-.8,1.4c-1.1,1.9-2.1,3.7-3.2,5.6-.5.9-1,1.9-1.6,2.8l-1.7,2.7a251.83,251.83,0,0,1-30,39.5c-1.4,1.5-2.7,3-4.1,4.4l-4.3,4.3-2.1,2.1-2.2,2c-1.4,1.4-2.9,2.7-4.3,4.1l-4.5,3.9-2.2,2-2.3,1.9c-1.5,1.3-3,2.5-4.5,3.8s-3.1,2.4-4.7,3.6l-2,1.6-2.1,1.5-4.2,3-1,.8-1.1.7-2.1,1.4-4.2,2.9c-5.8,3.7-11.5,7.4-17.5,10.6l-4.4,2.5c-1.5.8-3,1.5-4.5,2.3-3,1.7-6.1,3-9.1,4.6-1.5.8-3.1,1.4-4.6,2.1l-4.9,2.6c-1.6.6-3.1,1.3-4.7,1.9s-3.1,1.4-4.7,1.9A342,342,0,0,1,253,472.9a330,330,0,0,1-41.3,7.3c-2.1.2-4.2.4-6.3.7s-4.2.3-6.4.5c-4.3.5-8.5.5-12.9.8a312.36,312.36,0,0,1-82.1-6.9c-1.7-.4-3.5-.8-5.3-1.2s-3.5-.9-5.2-1.4-3.5-.9-5.3-1.4-3.4-1.1-5.2-1.6c-3.5-1.1-7.1-2.1-10.5-3.4-1.7-.6-3.5-1.3-5.2-1.9l-2.6-1c-.9-.4-1.7-.8-2.5-1.1a107.21,107.21,0,0,1-35.1-24.7,82.94,82.94,0,0,1-6.1-7.2,82.29,82.29,0,0,1-5.3-7.8c-1.6-2.7-3.1-5.5-4.5-8.3s-2.5-5.8-3.6-8.7A126.76,126.76,0,0,1,.7,368.5c-.2-3.1-.1-6.3-.2-9.4v-4.6l.2-4.7c0-1.5.1-3.1.1-4.6s0-3,.2-4.6l.2-2.3.1-2.3c.1-1.5.2-3,.2-4.5s.2-3,.3-4.5.2-3,.3-4.4l.1-2.2.1-2.2.3-4.4c.2-2.9.2-5.8.3-8.7s.2-5.7.2-8.6"/><path class="cls-2" d="M3.3,292.5c.1-2.8.3-5.5.6-8.2a25.68,25.68,0,0,1,.6-4c.2-1.3.5-2.7.7-4A108,108,0,0,1,9.6,261c.4-1.2,1-2.5,1.5-3.7s1.1-2.4,1.6-3.6a74.26,74.26,0,0,1,3.5-6.9c.6-1.1,1.2-2.2,1.9-3.4s1.3-2.2,1.9-3.3,1.4-2.1,2.1-3.2,1.4-2.1,2.1-3.1l2.1-3.1c.7-1,1.5-2,2.2-3,1.4-1.9,2.9-3.9,4.3-5.8s3-3.7,4.4-5.6,2.8-3.7,4.2-5.4,2.8-3.5,4-5.3a25.6,25.6,0,0,1,2-2.6c.7-.9,1.3-1.7,1.9-2.6s1.2-1.8,1.8-2.6l.9-1.3.9-1.3a59.49,59.49,0,0,0,3.4-5.3c1-1.8,2.2-3.6,3.2-5.4s1.9-3.7,2.9-5.5a58.48,58.48,0,0,0,2.8-5.6c.4-1,.9-1.9,1.3-2.9l1.3-2.9c.9-1.9,1.7-4,2.5-6s1.7-4,2.5-6.1c1.5-4.2,3.3-8.4,4.9-12.8.8-2.2,1.6-4.4,2.5-6.7l2.5-6.9c.9-2.3,1.9-4.6,2.8-6.9s2-4.6,3.1-6.8l3.4-6.8.9-1.7.9-1.6,1.9-3.3c1.3-2.2,2.6-4.5,4-6.6s2.9-4.3,4.4-6.5l2.1-3c.7-1,1.5-1.9,2.2-2.9,1.5-1.9,3-3.9,4.6-5.8s3.2-3.8,4.9-5.7,3.4-3.8,5.2-5.7,3.6-3.6,5.5-5.4,3.8-3.7,5.8-5.4c4-3.4,8.1-7,12.6-10.2a201.64,201.64,0,0,1,61.6-31.1c2.9-.9,5.8-1.7,8.8-2.5s6-1.4,9-2.1l4.5-.9,2.3-.5,2.3-.4c3.1-.5,6.2-.9,9.3-1.3s6.3-.7,9.4-.9,6.4-.5,9.6-.5h9.7c1.6,0,3.2,0,4.9.1l4.9.3c3.2.2,6.5.5,9.8.8s6.5.9,9.8,1.4c1.6.3,3.3.5,4.9.8l4.9,1c3.2.7,6.5,1.4,9.7,2.2S328.8,13,332,14c1.6.5,3.2.9,4.8,1.5l4.7,1.7,4.7,1.8c1.6.6,3.2,1.2,4.7,1.9,3.1,1.4,6.2,2.8,9.2,4.2,2.5,1.1,5,2.5,7.4,3.8s4.9,2.7,7.3,4.1,4.7,3,7.1,4.5l3.5,2.3,1.7,1.2,1.7,1.2a199.76,199.76,0,0,1,73.5,101.1,219,219,0,0,1,10.1,55.3,240.58,240.58,0,0,1-3.2,52.1,274.09,274.09,0,0,1-14.8,53.7l-.6,1.6-.7,1.6-1.3,3.1c-.9,2.1-1.7,4.1-2.6,6.2s-1.9,4-2.9,6.1-1.8,4-2.9,6-2.1,3.9-3.1,5.8c-.5,1-1,1.9-1.6,2.9l-1.7,2.8c-1.1,1.9-2.2,3.7-3.3,5.6s-2.3,3.6-3.5,5.5c-2.2,3.6-4.8,7.1-7.2,10.6-1.2,1.8-2.5,3.4-3.8,5.1s-2.5,3.4-3.8,5-2.7,3.2-4,4.8l-2,2.4-2.1,2.3c-1.4,1.5-2.7,3.1-4.1,4.6s-2.9,3-4.3,4.5a272.65,272.65,0,0,1-36.6,31.7,293.17,293.17,0,0,1-35.2,21.8,288.46,288.46,0,0,1-37.4,16.4c-1.6.6-3.2,1.2-4.8,1.7s-3.2,1-4.8,1.6l-2.4.8a21.72,21.72,0,0,1-2.4.7c-1.6.5-3.3,1-4.9,1.5l-1.2.4-1.2.3-2.5.6c-1.6.4-3.3.9-4.9,1.4s-3.3.7-5,1.1l-2.5.6-1.3.3-1.3.2a368.35,368.35,0,0,1-41.2,6.4c-4.2.5-8.4.7-12.6,1-1.1.1-2.1.1-3.2.2l-3.2.1c-2.1.1-4.3.3-6.4.3a340.76,340.76,0,0,1-40.3-1.1,312.21,312.21,0,0,1-41.1-6.3c-1.8-.3-3.4-.8-5.2-1.2s-3.5-.9-5.2-1.3l-2.6-.7-2.6-.8-5.2-1.5c-3.5-1-6.9-2.2-10.4-3.4-1.7-.6-3.5-1.2-5.2-1.9s-3.3-1.4-5-2.2c-13.2-6-25.2-14.1-34.6-24.4a94.07,94.07,0,0,1-19-31.7c-1-3-1.9-5.9-2.7-8.9-.4-1.5-.8-3-1.1-4.5s-.6-3.1-.9-4.6A165.69,165.69,0,0,1,.9,367c-.5-12.4.3-24.6.9-36.4l.4-4.4.3-4.4c.1-1.5.1-2.9.2-4.3s.3-2.9.3-4.3.1-2.9.2-4.3v-2.1l.1-2.1c.1-2.8.2-5.7.1-8.5"/><path class="cls-2" d="M3.3,292.7c.1-2.8.3-5.5.6-8.3a29,29,0,0,1,.6-4.1c.2-1.3.5-2.7.8-4a114,114,0,0,1,4.6-15.4,29.54,29.54,0,0,1,1.6-3.7c.6-1.2,1.1-2.4,1.7-3.6a57,57,0,0,1,3.7-6.9c.7-1.1,1.3-2.2,2-3.3s1.3-2.2,2-3.3,1.5-2.1,2.2-3.2,1.4-2.1,2.2-3.1l2.1-3a32.53,32.53,0,0,1,2.3-2.9l4.5-5.7c1.5-1.9,3.1-3.7,4.5-5.5s2.9-3.6,4.4-5.3,2.8-3.5,4.1-5.2,2.7-3.4,4-5.2,2.4-3.5,3.7-5.2,2.4-3.5,3.4-5.2,2.2-3.5,3.2-5.3,1.9-3.7,2.9-5.5,1.9-3.7,2.8-5.6c.4-1,.9-1.9,1.3-2.9s.9-1.9,1.3-2.9c.9-1.9,1.6-4,2.4-6s1.6-4.1,2.4-6.2c1.5-4.3,3.1-8.5,4.6-13,.7-2.3,1.6-4.5,2.4-6.8l2.4-7.1c.9-2.3,1.8-4.7,2.7-7l1.4-3.5a35.39,35.39,0,0,1,1.6-3.4l3.3-6.9c1.1-2.3,2.4-4.5,3.7-6.8l1.9-3.4a37.91,37.91,0,0,1,2-3.4c1.4-2.2,2.8-4.4,4.3-6.7.7-1.1,1.5-2.3,2.3-3.4l2.4-3.3c1.6-2.2,3.3-4.4,5-6.6s3.6-4.3,5.4-6.4c.9-1.1,1.9-2.2,2.8-3.2s2-2.1,3-3.1c2-2.1,4.1-4.1,6.2-6.2s4.4-4,6.6-6c1.1-1,2.3-2,3.4-3s2.4-1.9,3.6-2.8c2.4-1.9,4.9-3.7,7.4-5.6s5.1-3.5,7.8-5.2c1.3-.9,2.7-1.7,4-2.6s2.7-1.6,4.1-2.4c2.8-1.6,5.6-3.2,8.5-4.7s5.9-2.9,8.9-4.3l4.5-2.1,4.6-1.9c3.1-1.2,6.3-2.4,9.5-3.6,3.2-1,6.5-2.1,9.8-3,1.6-.5,3.3-1,5-1.4l5-1.2A207.32,207.32,0,0,1,266.8.6c3.6-.1,7.3-.1,10.9-.1s7.3.3,11,.6c1.8.1,3.7.2,5.5.4l5.5.7,5.5.8c1.8.3,3.7.5,5.5.9,3.7.7,7.3,1.5,11,2.3s7.3,1.9,10.9,3c1.8.5,3.6,1,5.4,1.6l5.4,1.9,5.4,2,2.7,1,2.6,1.1c3.5,1.5,7,3.1,10.4,4.7s6.8,3.5,10.1,5.4,6.6,3.9,9.9,5.9c1.6,1,3.2,2.1,4.8,3.1s3.1,2.2,4.7,3.4a199,199,0,0,1,47.1,48.2,204.93,204.93,0,0,1,27,55.8,218.46,218.46,0,0,1,9.5,56.5,246.77,246.77,0,0,1-4.1,52.9A275.16,275.16,0,0,1,457.4,307a272.08,272.08,0,0,1-25.6,47.4c-1.2,1.8-2.5,3.6-3.8,5.4s-2.5,3.5-3.8,5.2-2.7,3.4-4,5.1l-2,2.5-2.1,2.4c-1.4,1.6-2.8,3.2-4.1,4.9s-2.9,3.1-4.3,4.7c-2.8,3.2-5.9,6.1-8.7,9-.7.8-1.5,1.5-2.2,2.2l-2.3,2.1-2.3,2.1-1.1,1.1-1.2,1c-1.5,1.4-3.1,2.7-4.7,4.1l-1.1,1-1.2,1-2.4,1.9-2.4,1.9-1.2,1-1.2.9c-1.6,1.2-3.2,2.5-4.9,3.7l-1.2.9-1.3.9-2.5,1.8c-1.7,1.2-3.2,2.4-5,3.5s-3.4,2.2-5,3.3c-.8.6-1.7,1.1-2.5,1.6l-2.6,1.6c-3.3,2.2-6.9,4.1-10.3,6.1-1.7,1-3.5,1.9-5.3,2.8l-2.6,1.4c-.9.5-1.8.9-2.7,1.3-1.8.9-3.5,1.8-5.3,2.7s-3.6,1.6-5.4,2.5c-.9.4-1.8.9-2.7,1.3l-2.7,1.1c-1.8.8-3.6,1.6-5.4,2.3-3.7,1.4-7.2,3-11,4.2l-2.7,1-1.4.5-1.4.4c-1.9.6-3.7,1.2-5.5,1.9-.5.2-.9.3-1.4.5l-1.4.4-2.8.8c-1.9.5-3.7,1.2-5.6,1.7s-3.8,1-5.6,1.6a28.64,28.64,0,0,1-2.8.7l-2.8.7c-3.8,1.1-7.6,1.7-11.4,2.6l-2.9.6-2.9.5-2.9.6-1.5.3-1.5.2c-3.9.6-7.8,1.4-11.7,1.8-2,.2-3.9.6-5.9.8l-5.9.6c-1,.1-2,.3-3,.4l-3,.2-6,.6c-8,.4-16.1,1-24.3,1a345.91,345.91,0,0,1-80.7-7.8c-3.4-.8-6.9-1.6-10.3-2.5s-6.8-2-10.3-2.9c-3.4-1.1-6.9-2.2-10.3-3.3-1.7-.6-3.4-1.3-5-1.9s-3.3-1.4-5-2.1c-13-5.9-24.9-14.1-34.1-24.3A88.81,88.81,0,0,1,6.9,401.1C2.8,389.6,1.3,377.1.7,365s.4-24.3,1.1-35.8c.9-11.6,1.6-22.8,1.6-34"/></g></g></g></g></svg>