<svg xmlns="http://www.w3.org/2000/svg" viewBox="0 0 369.63 390.79"><defs><style>.cls-1{opacity:0.56;}.cls-2{fill:none;stroke:#fff;stroke-miterlimit:10;stroke-width:0.59px;}</style></defs><g id="Layer_2" data-name="Layer 2"><g id="Layer_1-2" data-name="Layer 1"><g id="Livello_1" data-name="Livello 1"><g class="cls-1"><path class="cls-2" d="M356,116.59a159.34,159.34,0,0,1,11.2,63.2,149.72,149.72,0,0,1-4.8,33.7c-.8,2.8-1.5,5.6-2.4,8.3s-1.7,5.5-2.9,8.2l-1.6,4c-.5,1.3-1.2,2.6-1.8,4l-1.8,3.9c-.6,1.3-1.3,2.6-2,3.9a162.28,162.28,0,0,1-43.3,52.3c-2.2,1.7-4.4,3.3-6.6,5l-6.8,4.6c-2.3,1.4-4.6,2.8-7,4.3-2.4,1.3-4.7,2.6-7.1,3.9a190.28,190.28,0,0,1-29,12.2,223.8,223.8,0,0,1-29.5,7.5,214,214,0,0,1-29.7,3.2,211.55,211.55,0,0,1-60-6.1,185.25,185.25,0,0,1-58.2-25.6,167.4,167.4,0,0,1-47.8-48.8,160.21,160.21,0,0,1-15.8-32.8,156.32,156.32,0,0,1-7-75.4c.6-3.2,1.1-6.4,1.8-9.5s1.4-6.3,2.3-9.4l1.4-4.6c.5-1.5.9-3.1,1.5-4.6l1.7-4.5.8-2.3.9-2.2a160.82,160.82,0,0,1,44.2-60.1,169.3,169.3,0,0,1,60.1-32.5,190.8,190.8,0,0,1,33.2-6.9,245.38,245.38,0,0,1,61.8.5c2.5.4,5.1.7,7.7,1.1s5.1.9,7.7,1.4,5.2,1.1,7.8,1.7,5.2,1.3,7.9,2a192.42,192.42,0,0,1,32.9,12.2l4.2,2c1.4.7,2.7,1.5,4.1,2.2l4.1,2.3,4.1,2.5c1.3.9,2.8,1.6,4.1,2.6l4,2.8,2,1.4c.7.5,1.3,1,1.9,1.5,1.3,1,2.6,2,3.9,2.9a35.74,35.74,0,0,1,3.7,3.1c1.2,1.1,2.5,2.1,3.7,3.2,2.3,2.2,4.7,4.4,7,6.7a168.38,168.38,0,0,1,12.5,14.5,81.86,81.86,0,0,1,5.4,7.7c.8,1.3,1.7,2.6,2.5,3.9a39.69,39.69,0,0,1,2.3,3.9c.8,1.3,1.5,2.6,2.3,3.9s1.3,2.7,2,4c1.3,2.6,2.6,5.2,3.7,7.8"/><path class="cls-2" d="M356.1,116.79a159.26,159.26,0,0,1,11.2,62.4c-.2,5.5-.6,11.1-1.3,16.7l-.6,4.2c-.2,1.4-.4,2.8-.7,4.2l-.8,4.1c-.3,1.4-.5,2.8-.9,4.1a160.82,160.82,0,0,1-5,16.3,155,155,0,0,1-6.8,15.7,161.33,161.33,0,0,1-41.8,52.4,183,183,0,0,1-55.2,31,220,220,0,0,1-29,8.1,210.74,210.74,0,0,1-88.5-.8A185.81,185.81,0,0,1,79,311.69a166.29,166.29,0,0,1-48.4-46,162.14,162.14,0,0,1-17.1-31.9,158.23,158.23,0,0,1-10.3-74.6,158.79,158.79,0,0,1,8.6-37.4,163.29,163.29,0,0,1,17.1-33.9,158.62,158.62,0,0,1,23.8-28.2,165.79,165.79,0,0,1,28.2-21.3A178.9,178.9,0,0,1,111,24.09c22.4-8,43.5-10.9,63.9-11.5a261.3,261.3,0,0,1,30.6.9,226,226,0,0,1,31.5,5,195,195,0,0,1,34.4,11.4,164.39,164.39,0,0,1,34.1,20,159.16,159.16,0,0,1,28.6,28.2,155,155,0,0,1,19.4,32.5"/><path class="cls-2" d="M356.1,117a162.91,162.91,0,0,1,11.3,61.5c-.1,2.7-.1,5.5-.4,8.2l-.4,4.1c-.1,1.4-.2,2.8-.4,4.1-.4,2.7-.8,5.5-1.3,8.2s-1.1,5.5-1.7,8.2-1.4,5.4-2.2,8.1-1.7,5.3-2.6,8-2,5.3-3,7.9-2.2,5.2-3.4,7.7a163.11,163.11,0,0,1-40.2,52.5,176.9,176.9,0,0,1-26,18.6,196.87,196.87,0,0,1-27.8,13.4,213.18,213.18,0,0,1-57.4,13.2,206.06,206.06,0,0,1-58.5-3.2A187.16,187.16,0,0,1,84.9,316a165,165,0,0,1-48.8-43.2,161.3,161.3,0,0,1-29.4-66.5,155.55,155.55,0,0,1-2.5-38,158.76,158.76,0,0,1,22-72.2,162.49,162.49,0,0,1,22.3-29.4A164.21,164.21,0,0,1,75.5,44a174.92,174.92,0,0,1,29.4-15.8,185.27,185.27,0,0,1,32.2-10,212.18,212.18,0,0,1,31-4.4,241.76,241.76,0,0,1,30.7-.3,225.51,225.51,0,0,1,31.8,3.8c1.4.3,2.9.6,4.3.8s2.9.7,4.4,1,3,.6,4.5,1.1l4.5,1.2,2.3.6,2.3.7c1.5.5,3,1,4.6,1.5s3,1.1,4.6,1.7,3.1,1.1,4.6,1.8a168.94,168.94,0,0,1,35.8,19.9c1.4,1,2.8,2.1,4.2,3.2s2.8,2.1,4.1,3.3c2.6,2.3,5.3,4.6,7.8,7,1.3,1.2,2.5,2.4,3.8,3.6s2.4,2.5,3.5,3.8c2.4,2.5,4.5,5.2,6.7,7.9s4.1,5.5,6.1,8.2c1.8,2.8,3.7,5.6,5.4,8.4a155.27,155.27,0,0,1,8.9,17.1"/><path class="cls-2" d="M356.2,117.29A162.67,162.67,0,0,1,367.5,178a156.38,156.38,0,0,1-14.3,63.7,163,163,0,0,1-38.6,52.5c-2,1.8-4.1,3.5-6.1,5.2s-4.2,3.3-6.2,4.9c-1,.8-2.1,1.5-3.2,2.3l-3.2,2.3c-1.1.8-2.2,1.5-3.3,2.2l-3.3,2.1A178.3,178.3,0,0,1,262.1,327a208.75,208.75,0,0,1-28,9.3,198,198,0,0,1-28.5,5.1,207.06,207.06,0,0,1-57.7-1.8,184,184,0,0,1-56.6-19.5,163.86,163.86,0,0,1-49.1-40.5,161.5,161.5,0,0,1-31.9-64.8,158.5,158.5,0,0,1,.6-75.3,161.11,161.11,0,0,1,13.5-35.2A169.13,169.13,0,0,1,45,73.89a167,167,0,0,1,25.8-24.1,173.49,173.49,0,0,1,28.5-17.3A184.94,184.94,0,0,1,131,20.89,214,214,0,0,1,161.8,15a241,241,0,0,1,30.7-1.6,224.47,224.47,0,0,1,32.1,2.5l2.3.3c.7.1,1.5.3,2.3.4,1.5.3,3,.6,4.6.8s3.1.7,4.6,1,3.1.7,4.7,1.1,3.1.9,4.7,1.3a43.44,43.44,0,0,1,4.8,1.4c3.2,1,6.4,2,9.6,3.3l4.8,1.8,4.8,2.1,2.4,1,2.4,1.2c1.6.8,3.2,1.6,4.8,2.3s3.1,1.7,4.7,2.6,3.1,1.7,4.7,2.7l4.6,2.8c1.5,1,3,2.1,4.5,3.1a156.18,156.18,0,0,1,53.3,64.4"/><path class="cls-2" d="M356.3,117.49a162.87,162.87,0,0,1,11.3,59.9,158.78,158.78,0,0,1-13.5,62.9,163.11,163.11,0,0,1-37.1,52.4A171.69,171.69,0,0,1,292.5,312a190.16,190.16,0,0,1-26.5,14.4,210.09,210.09,0,0,1-55.5,15.5,204,204,0,0,1-56.8-.4,190.47,190.47,0,0,1-28.4-6.4,171.69,171.69,0,0,1-27.6-11.2,166.22,166.22,0,0,1-49.3-37.8,162.7,162.7,0,0,1-34.3-63,159.34,159.34,0,0,1-2.9-74.8,162,162,0,0,1,30.6-66.9,163.62,163.62,0,0,1,52-44.1,185.27,185.27,0,0,1,31-13.1,229.43,229.43,0,0,1,93.6-9.1,184.38,184.38,0,0,1,39.1,8.7c1.7.5,3.3,1.2,5,1.8s3.4,1.2,5,1.9c3.3,1.5,6.7,2.8,10,4.5a155.16,155.16,0,0,1,19.3,11.1c3,2.2,6.2,4.3,9.1,6.6,1.5,1.2,3,2.3,4.4,3.5l4.2,3.7c1.4,1.2,2.8,2.5,4.1,3.8s2.7,2.6,4,3.9,2.5,2.8,3.8,4.1c.6.7,1.3,1.4,1.9,2.1l1.8,2.1c1.2,1.4,2.3,2.9,3.5,4.3s2.2,2.9,3.3,4.4c2.2,2.9,4.1,6,6.1,9,1,1.5,1.8,3.1,2.7,4.6s1.8,3.1,2.6,4.6,1.6,3.1,2.3,4.7,1.6,3.1,2.2,4.6"/><path class="cls-2" d="M356.4,117.69a165.17,165.17,0,0,1,11.3,59,161.79,161.79,0,0,1-12.6,62.1,163.56,163.56,0,0,1-35.5,52.4l-2.8,2.7c-.9.9-1.8,1.8-2.8,2.7-2,1.7-3.9,3.4-5.9,5.1l-6,4.8c-2.1,1.5-4.1,3-6.2,4.4a185.33,185.33,0,0,1-25.8,14.7A210.17,210.17,0,0,1,243.2,336a206,206,0,0,1-27.5,6.3,199.5,199.5,0,0,1-27.9,2.5,221.48,221.48,0,0,1-28.1-1.5,181.51,181.51,0,0,1-55.3-15.8,167.3,167.3,0,0,1-49.3-35.2,165.15,165.15,0,0,1-36.6-61.1,159.93,159.93,0,0,1-7.5-36.5,156.89,156.89,0,0,1,1.2-37.5,161.21,161.21,0,0,1,27-68,165.82,165.82,0,0,1,49.5-46.7A167.76,167.76,0,0,1,119,27.89a213.85,213.85,0,0,1,30.2-8.6A238.78,238.78,0,0,1,179.9,15l3.9-.3c1.3-.1,2.6-.2,4-.2,2.7,0,5.3-.2,8-.2h4.1c1.4,0,2.7,0,4.1.1s2.8.1,4.2.2,2.8.1,4.2.3a181.34,181.34,0,0,1,40.7,7.6c1.7.6,3.5,1.1,5.2,1.7s3.5,1.3,5.2,1.9c3.5,1.2,6.9,2.9,10.4,4.3,1.7.8,3.4,1.7,5.1,2.5l2.6,1.3c.8.4,1.7.9,2.5,1.4l5,2.8,4.9,3.1c.8.5,1.7,1,2.5,1.6l2.4,1.7c1.6,1.1,3.2,2.2,4.7,3.4l4.6,3.6c.8.6,1.6,1.2,2.3,1.8l2.2,1.9A158.58,158.58,0,0,1,329,72c2.4,3,4.9,5.9,7.1,9,1.1,1.5,2.2,3.1,3.3,4.6s2,3.1,3,4.7l1.5,2.3,1.4,2.4,2.7,4.8c.9,1.6,1.6,3.2,2.4,4.9l1.2,2.4a25.57,25.57,0,0,1,1.1,2.4"/><path class="cls-2" d="M356.4,117.89c.8,2.2,1.6,4.5,2.5,6.7.7,2.3,1.4,4.6,2.2,6.9s1.3,4.7,1.9,7.1l.9,3.6.7,3.7a150.93,150.93,0,0,1,3.1,30.2,160.18,160.18,0,0,1-11.8,61.2,162.45,162.45,0,0,1-34,52.2,180.4,180.4,0,0,1-48,35.1,204.9,204.9,0,0,1-26.3,10.8,198,198,0,0,1-27,6.9,210.61,210.61,0,0,1-27.4,3,181.86,181.86,0,0,1-27.6-.8,189.91,189.91,0,0,1-27.6-4.8,168.62,168.62,0,0,1-27-9.2,166.09,166.09,0,0,1-49.2-32.8,158.13,158.13,0,0,1-22.2-27,163.69,163.69,0,0,1-16.5-32.3,161.43,161.43,0,0,1-9-35.9,165.33,165.33,0,0,1-.6-37.2,161.88,161.88,0,0,1,23.4-68.9,165.64,165.64,0,0,1,46.8-49.1,167.46,167.46,0,0,1,29.4-16.1,201.25,201.25,0,0,1,29.8-10.1,220.28,220.28,0,0,1,30.6-5.7A216.43,216.43,0,0,1,206.1,14c1.7.1,3.4.1,5.1.2s3.4.3,5.1.4c.9.1,1.7.1,2.6.2l2.6.3c1.8.2,3.5.4,5.3.7l5.3.9c.9.2,1.8.3,2.7.5l2.7.6,5.4,1.2c1.8.5,3.6,1,5.4,1.4l2.7.7,2.7.9c1.8.6,3.6,1.2,5.5,1.8,3.6,1.4,7.3,2.6,10.8,4.3,1.8.8,3.6,1.5,5.4,2.4s3.5,1.7,5.3,2.6a21.48,21.48,0,0,1,2.6,1.4l2.6,1.5c1.7,1,3.5,1.9,5.1,3l5.1,3.2,4.9,3.5,2.4,1.8,2.4,1.9c1.6,1.3,3.2,2.5,4.7,3.8,3,2.7,6,5.3,8.8,8.1,1.4,1.4,2.9,2.8,4.2,4.3s2.7,3,4,4.4a158.91,158.91,0,0,1,14.1,18.8c2.2,3.2,4,6.6,5.9,9.9l.7,1.2.6,1.3c.4.8.8,1.7,1.3,2.5.8,1.7,1.7,3.3,2.4,5"/><path class="cls-2" d="M356.5,118.09l2.4,6.6c.7,2.3,1.4,4.6,2.1,6.8s1.3,4.6,1.9,7l.9,3.5.7,3.6a153.47,153.47,0,0,1,3.2,29.7,162.07,162.07,0,0,1-10.9,60.4,163.92,163.92,0,0,1-32.6,52,173.74,173.74,0,0,1-22.1,20.1,176.45,176.45,0,0,1-24.4,15.6,200.67,200.67,0,0,1-25.7,11.3,208.84,208.84,0,0,1-26.5,7.4c-2.2.4-4.5.9-6.7,1.3l-6.7,1c-2.2.3-4.5.5-6.8.8l-1.7.2-1.7.1-3.4.2a190,190,0,0,1-27.2-.1,182.74,182.74,0,0,1-53.8-12.4,168.16,168.16,0,0,1-49-30.4,164.54,164.54,0,0,1-40.7-57.3,161.89,161.89,0,0,1,7-141.6,165.09,165.09,0,0,1,44-51.4,160.38,160.38,0,0,1,28.5-17.6,212.29,212.29,0,0,1,29.3-11.6,220,220,0,0,1,30.4-7,201,201,0,0,1,32.6-2.7h2.6c.9,0,1.7.1,2.6.1,1.8.1,3.5.1,5.3.2s3.6.3,5.4.4c.9.1,1.8.1,2.7.2l2.7.3a178.67,178.67,0,0,1,22.4,4c3.7,1,7.6,2,11.3,3.3s7.5,2.6,11.3,4.1a165.35,165.35,0,0,1,21.9,10.9,22.61,22.61,0,0,1,2.6,1.6l2.6,1.7,2.6,1.7c.9.6,1.7,1.2,2.5,1.8,1.7,1.2,3.4,2.4,5,3.6l4.9,3.9c1.7,1.2,3.2,2.7,4.7,4s3.1,2.7,4.6,4.2,2.9,2.9,4.4,4.3l4.2,4.5,2.1,2.3,1.9,2.4c1.3,1.6,2.6,3.1,3.8,4.8,2.4,3.3,4.8,6.5,6.9,9.9,1.1,1.7,2.2,3.3,3.2,5s2,3.4,2.9,5.1,1.8,3.5,2.7,5.2,1.7,3.5,2.5,5.2"/><path class="cls-2" d="M356.6,118.29l2.4,6.6c.7,2.2,1.4,4.5,2.1,6.8s1.3,4.6,1.9,6.9l.9,3.5.7,3.5.7,3.6.4,1.8.3,1.8c.3,2.4.7,4.8,1,7.3s.4,4.9.6,7.4.2,5,.3,7.4a162.68,162.68,0,0,1-10.1,59.5,165.52,165.52,0,0,1-31.1,51.7,173.21,173.21,0,0,1-45,36.2c-2,1.1-4.1,2.2-6.1,3.3s-4.2,2-6.2,3c-1,.5-2.1,1-3.1,1.4l-3.2,1.4c-1.1.4-2.1.9-3.2,1.3l-3.2,1.2c-4.2,1.7-8.6,3.1-12.9,4.5-2.2.6-4.3,1.2-6.5,1.9-1.1.3-2.2.6-3.3.8l-3.3.8a198.88,198.88,0,0,1-26.4,4.3,216.35,216.35,0,0,1-26.7.5,172.38,172.38,0,0,1-26.7-3.3,174.4,174.4,0,0,1-26.3-7.4A164,164,0,0,1,17.5,181.79a168.9,168.9,0,0,1,4.2-36.2,160.64,160.64,0,0,1,12-33.7,164.39,164.39,0,0,1,68.6-72.6,194.48,194.48,0,0,1,28.8-13,217.53,217.53,0,0,1,30.2-8.5,210.66,210.66,0,0,1,32.5-4.1,184.23,184.23,0,0,1,22.2.4c1,.1,1.9.1,2.9.2l2.9.3c1.9.2,3.9.5,5.8.7,3.9.7,7.8,1.2,11.7,2.2,3.9.8,7.8,1.9,11.8,3,2,.6,3.9,1.3,5.9,1.9a24.69,24.69,0,0,1,2.9,1l2.9,1.1a157.25,157.25,0,0,1,22.8,10.7l2.8,1.6,1.4.8,1.3.9,5.4,3.4c1.8,1.2,3.5,2.5,5.2,3.7.9.6,1.7,1.2,2.6,1.9l2.5,2,2.5,2,1.2,1,1.2,1.1c1.6,1.4,3.2,2.8,4.7,4.3l4.5,4.5c.7.8,1.5,1.5,2.2,2.3l2.1,2.4a161.82,161.82,0,0,1,15.4,19.8,165.31,165.31,0,0,1,11.9,21.2"/><path class="cls-2" d="M356.7,118.49c.8,2.2,1.6,4.3,2.4,6.5s1.4,4.4,2.1,6.7,1.2,4.5,1.8,6.8l.9,3.4c.3,1.2.5,2.3.7,3.5l.7,3.5c.2,1.2.5,2.3.6,3.5.3,2.4.7,4.8,1,7.2s.4,4.8.6,7.3c.1,1.2.2,2.4.2,3.7l.1,3.7a173.83,173.83,0,0,1-1.9,29.6c-.4,2.5-.9,4.9-1.3,7.4-.6,2.4-1.1,4.9-1.7,7.3-1.3,4.8-2.7,9.7-4.4,14.4a165.55,165.55,0,0,1-50.2,71.8l-2.8,2.3a30.13,30.13,0,0,1-2.8,2.2l-5.7,4.2c-1.9,1.3-3.9,2.6-5.8,3.9s-3.9,2.4-5.9,3.6a179.19,179.19,0,0,1-24.4,12.2,193.64,193.64,0,0,1-25.4,8.4,187.7,187.7,0,0,1-52.2,5.9,178,178,0,0,1-52.2-9.2c-2.1-.8-4.2-1.5-6.4-2.3s-4.2-1.7-6.3-2.6a29.17,29.17,0,0,1-3.1-1.4l-3.1-1.4c-2.1-.9-4.1-2-6.1-3.1a157,157,0,0,1-23.3-15.1,168.11,168.11,0,0,1-57.2-87,161.63,161.63,0,0,1,7.1-105.9A166.49,166.49,0,0,1,70.7,64,161.13,161.13,0,0,1,97,43.49a187.36,187.36,0,0,1,28.2-14.4,207.13,207.13,0,0,1,62.3-15.4c3.7-.2,7.5-.6,11.3-.6,3.8-.2,7.7,0,11.7.1a171.71,171.71,0,0,1,48.5,9.5,178.11,178.11,0,0,1,23.7,10.5,165.33,165.33,0,0,1,21.9,14.4l5.1,4.1c1.7,1.4,3.3,2.9,4.9,4.4.8.7,1.6,1.5,2.4,2.2l2.3,2.3,2.3,2.3,1.2,1.2,1.1,1.2c1.5,1.6,2.9,3.2,4.3,4.9s2.7,3.4,4.1,5c.7.8,1.4,1.7,2,2.5l1.9,2.6,1.9,2.6c.6.9,1.2,1.7,1.8,2.6a164.47,164.47,0,0,1,12.3,21.9"/><path class="cls-2" d="M356.7,118.69c.8,2.1,1.6,4.3,2.3,6.4s1.4,4.4,2,6.6,1.2,4.5,1.8,6.7l.9,3.4c.3,1.1.5,2.3.7,3.4l.7,3.5c.2,1.2.5,2.3.6,3.5.3,2.3.7,4.7,1,7a135.53,135.53,0,0,1,1,14.3,167.65,167.65,0,0,1-1.6,29.1,175.26,175.26,0,0,1-6.9,28.6l-1.2,3.5c-.4,1.2-.9,2.3-1.3,3.4l-1.4,3.4-.7,1.7-.8,1.7c-1,2.2-2,4.5-3.1,6.7l-3.4,6.5a181.84,181.84,0,0,1-16.3,24.1c-1.5,1.9-3,3.8-4.6,5.5l-2.4,2.7-1.2,1.3-1.3,1.3c-1.7,1.7-3.3,3.4-5,5s-3.5,3.2-5.2,4.8a181.21,181.21,0,0,1-45.9,29.1l-3,1.3-1.5.7-1.5.6c-2.1.8-4.1,1.6-6.2,2.4s-4.2,1.4-6.2,2.1-4.2,1.3-6.3,1.9c-4.2,1.3-8.4,2.2-12.6,3.2l-6.4,1.2-1.6.3-1.6.2-3.2.5a170.34,170.34,0,0,1-25.8,1.8,186.63,186.63,0,0,1-25.8-1.9,174,174,0,0,1-25.5-5.8,161.62,161.62,0,0,1-24.6-9.8,156.18,156.18,0,0,1-23.1-14,166,166,0,0,1-67.6-119.3,163.39,163.39,0,0,1,9.1-70,165.55,165.55,0,0,1,34.8-57.2,155.13,155.13,0,0,1,25.1-21.9,189.16,189.16,0,0,1,27.4-15.9A213.83,213.83,0,0,1,148.8,21a191.26,191.26,0,0,1,32.2-6.8,169.43,169.43,0,0,1,48.6.9c2.1.4,4.2.7,6.3,1.1s4.2,1,6.3,1.4c1.1.2,2.1.5,3.2.8l3.2.9,3.2.9,3.1,1c4.2,1.3,8.3,3,12.4,4.6,2,.9,4.1,1.8,6.1,2.8l1.5.7,1.5.8,3,1.5,3,1.5,2.9,1.7,2.9,1.7,1.5.9,1.4.9,5.7,3.7,5.5,4a172.12,172.12,0,0,1,20.1,18,183.25,183.25,0,0,1,16.7,20.8,181.38,181.38,0,0,1,12.8,22.6"/><path class="cls-2" d="M356.8,118.89c.8,2.1,1.6,4.2,2.3,6.3s1.3,4.3,2,6.5,1.2,4.4,1.8,6.6l.8,3.3c.3,1.1.5,2.3.7,3.4.4,2.3,1,4.5,1.3,6.8s.7,4.6,1,6.9c.5,4.7,1,9.4,1.1,14.1l.1,3.6v7.2c0,1.2,0,2.4-.1,3.6-.2,2.4-.3,4.8-.5,7.2l-.9,7.2a171.65,171.65,0,0,1-6.4,28.2c-.8,2.3-1.5,4.6-2.4,6.8l-2.6,6.7-3,6.6c-.5,1.1-1.1,2.2-1.6,3.2l-1.7,3.2a166.76,166.76,0,0,1-15.5,24c-1.5,1.8-3,3.7-4.4,5.5l-4.7,5.3c-.8.9-1.6,1.7-2.4,2.5l-2.4,2.5c-.8.8-1.6,1.7-2.5,2.5l-2.6,2.3a169.86,169.86,0,0,1-21.4,16.8,180.5,180.5,0,0,1-23,13,189.71,189.71,0,0,1-49,15.2,214.41,214.41,0,0,1-25.3,2.4,194,194,0,0,1-25.3-1.3,168.91,168.91,0,0,1-25.1-5c-2.1-.6-4.1-1.1-6.2-1.8s-4.1-1.4-6.1-2.1c-4-1.6-8.1-3.1-12-5a152.35,152.35,0,0,1-22.9-12.9,166.05,166.05,0,0,1-47.6-49.3,168.85,168.85,0,0,1-24.2-66.4,163.9,163.9,0,0,1,5.6-69.8,166.6,166.6,0,0,1,31.5-58.8A162.49,162.49,0,0,1,87,52.69a181.35,181.35,0,0,1,26.6-17.4,201.84,201.84,0,0,1,61.1-20.9c1-.2,2-.3,3-.5s2-.2,3-.4c2-.2,4-.5,6.1-.7s4.1-.3,6.2-.4c1-.1,2.1-.1,3.1-.1s2.1,0,3.1-.1a160.3,160.3,0,0,1,25.7,1.5,174.18,174.18,0,0,1,26.1,5.7,172.71,172.71,0,0,1,25.4,10.2l6.1,3.2,6,3.5c1,.6,2,1.2,2.9,1.8l2.9,1.9a29,29,0,0,1,2.9,1.9L300,44c1.9,1.4,3.8,2.7,5.5,4.2s3.6,2.9,5.4,4.4,3.4,3.1,5.1,4.7,3.3,3.3,4.9,4.9,3.2,3.4,4.7,5.1,3.1,3.4,4.5,5.2,2.9,3.6,4.2,5.4,2.6,3.7,4,5.6a174.51,174.51,0,0,1,13.3,23.3"/><path class="cls-2" d="M356.9,119.09a179,179,0,0,1,7.6,25.8,166.3,166.3,0,0,1-3.6,83.3,162.86,162.86,0,0,1-10.7,26.3,176,176,0,0,1-14.7,23.9,170.93,170.93,0,0,1-18.1,20.7,182.1,182.1,0,0,1-20.6,17,168.21,168.21,0,0,1-22.3,13.3,185,185,0,0,1-23.5,9.8,180.62,180.62,0,0,1-49,9.3l-6.2.2-6.2-.1c-2.1,0-4.1-.2-6.2-.3l-3.1-.2-3.1-.3a158.1,158.1,0,0,1-24.6-4.2c-4.1-.9-8.1-2.2-12.1-3.5l-6-2.1-1.5-.5-1.5-.6-2.9-1.2-2.9-1.2-2.9-1.4-2.9-1.4-1.4-.7-1.6-1c-1.9-1-3.8-2-5.6-3.1s-3.7-2.2-5.5-3.4A167.75,167.75,0,0,1,43.5,110a179.47,179.47,0,0,1,16.8-28.2,159.1,159.1,0,0,1,22.4-24.4,170.7,170.7,0,0,1,25.7-18.8,189.29,189.29,0,0,1,28.5-14.2,196.1,196.1,0,0,1,31.8-9.6,180.93,180.93,0,0,1,25.1-3.3,164.25,164.25,0,0,1,53.4,6.1,152.76,152.76,0,0,1,26.3,10A173.33,173.33,0,0,1,298,42.09a153.51,153.51,0,0,1,21.6,18.6,166.39,166.39,0,0,1,31.8,45.7"/><path class="cls-2" d="M357,119.29a162.06,162.06,0,0,1,7.5,25.4,159.66,159.66,0,0,1,3.5,26.9l.2,3.4c.1,1.1.1,2.3.1,3.4,0,2.3,0,4.6-.1,6.9s-.3,4.6-.4,6.9l-.1,1.7-.2,1.7-.4,3.5a169.28,169.28,0,0,1-5.5,27.3,180.09,180.09,0,0,1-10,25.9c-1,2.1-2.1,4.1-3.1,6.2s-2.3,4-3.4,6l-.9,1.5-.9,1.5-1.9,2.9c-.6,1-1.2,1.9-1.9,2.9l-2,2.8c-2.6,3.8-5.5,7.3-8.3,10.8-1.5,1.7-3,3.4-4.4,5.1s-3.1,3.2-4.6,4.8c-.8.8-1.5,1.6-2.3,2.4l-2.4,2.3c-1.6,1.5-3.2,3-4.9,4.4s-3.3,2.8-5,4.2-3.4,2.6-5.2,3.9-3.5,2.5-5.3,3.7l-2.6,1.8c-.9.6-1.8,1.1-2.7,1.7-1.8,1.1-3.6,2.3-5.4,3.3s-3.7,2-5.5,3.1l-1.4.8-1.4.7-2.8,1.4c-1.9.9-3.7,1.9-5.7,2.7s-3.8,1.6-5.7,2.5c-1.9.7-3.9,1.5-5.8,2.2-1,.4-1.9.8-2.9,1.1l-3,.9c-2,.6-3.9,1.3-5.9,1.8l-6,1.6c-1,.3-2,.5-3,.7l-3,.7-3,.7c-1,.2-2,.3-3,.5l-6,1c-4.1.5-8.1,1.1-12.1,1.3-4,.4-8.1.4-12.2.5-4.1-.1-8.1-.1-12.2-.5-4.1-.2-8.1-.8-12.1-1.3-4-.7-8.1-1.3-12-2.2l-3-.7c-1-.2-2-.5-3-.8-2-.6-4-1-5.9-1.6s-3.9-1.3-5.9-1.9a57.7,57.7,0,0,1-5.8-2.2c-1-.4-1.9-.7-2.9-1.1l-2.8-1.2-2.8-1.2-1.4-.6-1.4-.7c-1.9-.9-3.7-1.9-5.6-2.8s-3.6-2.1-5.4-3.1a168,168,0,0,1-50.5-45.4,168.89,168.89,0,0,1-5.5-193,155,155,0,0,1,21-25.6,176.49,176.49,0,0,1,24.7-20.3,189.84,189.84,0,0,1,27.9-15.6,184.73,184.73,0,0,1,31.4-11,164.86,164.86,0,0,1,53-4.3,168.25,168.25,0,0,1,27.8,4.7,166.91,166.91,0,0,1,93.7,65.3l2.1,2.9,1.9,3,1.9,3,1,1.5.9,1.6c1.2,2.1,2.3,4.1,3.5,6.2,1,2.1,2.1,4.2,3.1,6.3"/><path class="cls-2" d="M357,119.49A172,172,0,0,1,368,171a153.45,153.45,0,0,1-.7,27.1c-.4,4.5-1.2,9-2,13.5l-1.4,6.7c-.5,2.2-1.1,4.4-1.7,6.6l-.9,3.3-1.1,3.3c-.7,2.2-1.4,4.3-2.2,6.5s-1.6,4.3-2.5,6.4-1.8,4.2-2.7,6.2a169.24,169.24,0,0,1-13.3,23.5A167.46,167.46,0,0,1,303.9,312a170.56,170.56,0,0,1-43,24.4c-3.8,1.4-7.6,2.9-11.5,4-3.8,1.3-7.8,2.2-11.6,3.3-1.9.5-3.9.8-5.9,1.3l-2.9.6c-1,.2-2,.3-3,.5-2,.3-3.9.7-5.9.9l-6,.7a167.53,167.53,0,0,1-47.6-2.2,147.64,147.64,0,0,1-23.2-6.3c-.9-.3-1.9-.6-2.8-1l-2.8-1.1-2.8-1.1c-.9-.4-1.9-.8-2.8-1.2-1.8-.8-3.7-1.7-5.5-2.5s-3.6-1.9-5.4-2.8l-1.8-1-1.8-1.1-3.6-2.1c-1.2-.7-2.4-1.5-3.6-2.3s-2.4-1.5-3.5-2.3c-2.3-1.6-4.6-3.3-6.9-4.9-2.2-1.8-4.5-3.5-6.6-5.3A173.14,173.14,0,0,1,69.5,286,170.26,170.26,0,0,1,33.9,157a173.17,173.17,0,0,1,21.2-62.2,154.76,154.76,0,0,1,19.4-26.7,173.05,173.05,0,0,1,23.6-21.7,181.08,181.08,0,0,1,27.3-17,189.11,189.11,0,0,1,31-12.4l3.2-.9c1.1-.3,2.1-.6,3.2-.8l6.5-1.5c4.4-.8,8.9-1.7,13.4-2.1a163.4,163.4,0,0,1,28.1-.9,165.28,165.28,0,0,1,106.3,47.3,169.72,169.72,0,0,1,34.1,48"/><path class="cls-2" d="M357.1,119.69a173.68,173.68,0,0,1,10.9,50.7l.3,6.6v6.7c0,2.2-.2,4.4-.3,6.7l-.2,3.3-.3,3.3a158.82,158.82,0,0,1-4.7,26.4c-1.1,4.3-2.5,8.6-3.9,12.8l-2.4,6.3c-.4,1-.8,2.1-1.3,3.1l-1.3,3.1a148.09,148.09,0,0,1-12.6,23.2,64.52,64.52,0,0,1-3.7,5.4c-1.3,1.8-2.5,3.6-3.9,5.2s-2.6,3.4-4,5.1-2.8,3.2-4.2,4.9c-.7.8-1.4,1.6-2.2,2.4l-2.2,2.3-2.2,2.3c-.8.7-1.5,1.5-2.3,2.2-1.5,1.4-3,2.9-4.6,4.3s-3.2,2.7-4.8,4l-1.2,1-1.2.9-2.5,1.9c-1.6,1.2-3.3,2.5-5,3.6s-3.4,2.3-5.1,3.5-3.5,2.1-5.2,3.2a55.41,55.41,0,0,1-5.3,3c-1.8.9-3.5,2-5.3,2.8s-3.6,1.7-5.4,2.6l-1.4.7-1.4.6-2.8,1.2a171.14,171.14,0,0,1-45.6,12.2c-3.9.3-7.8.9-11.7,1l-2.9.1a28.1,28.1,0,0,1-2.9.1h-5.8c-1.9,0-3.9-.2-5.8-.2l-2.9-.1a28.5,28.5,0,0,1-2.9-.3l-5.8-.6-5.8-.9a57.24,57.24,0,0,1-5.7-1.1c-1.9-.4-3.8-.7-5.7-1.3l-5.7-1.5c-1.9-.6-3.7-1.2-5.6-1.7a146.66,146.66,0,0,1-21.8-8.9,169.81,169.81,0,0,1-28.4-18,176.33,176.33,0,0,1-24.6-23.5,164.94,164.94,0,0,1-19.5-28c-1.4-2.5-2.6-5.1-4-7.6l-3.6-7.8c-1-2.7-2.2-5.3-3.2-7.9l-1.4-4c-.5-1.3-1-2.7-1.4-4a171.77,171.77,0,0,1,10-129.8,162.23,162.23,0,0,1,40.2-50.8A175.6,175.6,0,0,1,150,18.19a155.52,155.52,0,0,1,26.9-6.6,161,161,0,0,1,28.8-1.7,165.1,165.1,0,0,1,29.5,3.6,180.63,180.63,0,0,1,29,9.2,168.59,168.59,0,0,1,71.2,56.9l2.2,3.1c.7,1,1.5,2.1,2.1,3.1,1.3,2.1,2.7,4.3,4,6.4s2.5,4.4,3.7,6.6c.6,1.1,1.2,2.2,1.7,3.3a35.39,35.39,0,0,1,1.6,3.4"/><path class="cls-2" d="M357.2,119.89a175.75,175.75,0,0,1,10.9,49.8c.1,2.2.2,4.3.3,6.5s0,4.4,0,6.5V186l-.2,3.3-.2,3.3-.1,1.6-.2,1.6-.7,6.5c-.3,2.2-.7,4.3-1,6.5s-.8,4.3-1.2,6.5-.8,4.3-1.4,6.4l-1.7,6.3-2,6.3-.5,1.6-.6,1.5-1.1,3.1-1.1,3.1c-.4,1-.8,2-1.3,3a161.37,161.37,0,0,1-11.9,23l-1.7,2.7c-.6.9-1.1,1.8-1.8,2.7-1.2,1.7-2.4,3.5-3.7,5.2s-2.6,3.4-3.9,5c-.7.8-1.3,1.7-2,2.5l-2.1,2.4-2.1,2.4c-.7.8-1.4,1.6-2.1,2.3-1.4,1.5-2.9,3-4.3,4.5s-3,2.8-4.5,4.3l-2.2,2.1-2.3,2A163,163,0,0,1,291.2,322c-1.7,1-3.4,2.1-5.1,3.1s-3.5,1.9-5.2,2.9c-3.4,2-7,3.5-10.5,5.2-1.8.8-3.6,1.5-5.4,2.3l-2.7,1.1c-.9.4-1.8.7-2.7,1l-5.5,2c-1.8.6-3.7,1.1-5.6,1.7-3.7,1.2-7.5,2-11.2,2.9-1.9.4-3.8.7-5.7,1.1l-2.8.5a27,27,0,0,1-2.8.4l-5.7.8-5.7.5-2.8.2-2.9.1c-1.9.1-3.8.1-5.7.2-3.8-.1-7.6,0-11.4-.4l-2.8-.2a26.6,26.6,0,0,1-2.8-.3c-1.9-.2-3.8-.5-5.7-.7a153.07,153.07,0,0,1-43.8-12.8c-5.1-2.3-10-5-14.9-7.8-2.4-1.4-4.8-3-7.2-4.4l-6.9-4.8a173.76,173.76,0,0,1-45.6-49.5,171.32,171.32,0,0,1-14.7-30.5,174.76,174.76,0,0,1-10.8-65.7,177,177,0,0,1,14.1-63.5,157.73,157.73,0,0,1,37.2-53,169.76,169.76,0,0,1,55.8-35.1,162.91,162.91,0,0,1,27.4-7.7c2.4-.4,4.8-.9,7.2-1.2l7.3-.9c2.5-.2,5-.3,7.4-.5s5-.1,7.5-.1a163.66,163.66,0,0,1,60.3,12,166.62,166.62,0,0,1,52.8,34,170.5,170.5,0,0,1,36.6,50.2"/><path class="cls-2" d="M357.3,120.09a173.35,173.35,0,0,1,7.1,23.9c.4,2.1.9,4.1,1.3,6.2s.7,4.2,1,6.3l.5,3.1.3,3.2c.2,2.1.5,4.2.6,6.3a172.94,172.94,0,0,1-4,51,186.83,186.83,0,0,1-7.7,24.4,177.24,177.24,0,0,1-11.2,22.7,185.12,185.12,0,0,1-14.2,20.4c-2.7,3.1-5.3,6.2-8.1,9.1l-2.1,2.2c-.7.7-1.4,1.5-2.1,2.1l-4.4,4.1a160.38,160.38,0,0,1-18.6,14.5l-2.4,1.6c-.8.5-1.7,1-2.5,1.5-1.7,1-3.3,2-5,3l-5.1,2.7-2.5,1.4-2.6,1.2-5.2,2.4-5.3,2.2-2.6,1.1c-.9.3-1.8.6-2.7,1l-5.4,1.9a170.65,170.65,0,0,1-21.9,5.4,158.92,158.92,0,0,1-44.6,1.5,152.58,152.58,0,0,1-43-11.3,175.77,175.77,0,0,1-29.5-16.1,178,178,0,0,1-25.8-21.6,169,169,0,0,1-21.1-26A181.19,181.19,0,0,1,52.8,242a175.84,175.84,0,0,1-13.7-64.4,178.09,178.09,0,0,1,10.5-63.8c1-2.6,2-5.2,3-7.7s2.3-5,3.4-7.5c1.3-2.4,2.4-4.9,3.8-7.3.7-1.2,1.4-2.4,2-3.5a40.5,40.5,0,0,1,2.1-3.5A164.36,164.36,0,0,1,138,20.69a149.17,149.17,0,0,1,27.9-9,158.9,158.9,0,0,1,30.3-3.6,163.62,163.62,0,0,1,62.1,11,170,170,0,0,1,54.6,34.2,173.32,173.32,0,0,1,21.4,24,176.38,176.38,0,0,1,16.4,27.3"/><path class="cls-2" d="M357.4,120.29a187.05,187.05,0,0,1,7,23.5c.4,2,.8,4,1.3,6.1s.7,4.1,1,6.1l.5,3.1c.2,1,.2,2.1.3,3.1.2,2.1.4,4.1.6,6.2a170.45,170.45,0,0,1-3.5,50c-.4,2.1-1,4.1-1.5,6.1l-.8,3-.9,3c-.6,2-1.2,4-1.9,6s-1.4,3.9-2.1,5.9-1.6,3.8-2.3,5.8-1.6,3.8-2.5,5.7-1.8,3.7-2.7,5.6l-3,5.4a165.18,165.18,0,0,1-13.5,20.2l-1.8,2.4c-.6.8-1.3,1.5-1.9,2.3l-3.9,4.5c-1.4,1.4-2.7,2.8-4.1,4.3-.7.7-1.3,1.4-2,2.1l-2.1,2a165.29,165.29,0,0,1-17.8,14.7c-3.2,2.1-6.2,4.3-9.5,6.2-1.6,1-3.2,2-4.9,2.9l-5,2.6c-.8.4-1.6.9-2.5,1.3l-2.6,1.2-5.1,2.3L265,336l-2.6,1c-.9.3-1.8.6-2.6.9l-5.3,1.8c-1.8.6-3.6,1-5.3,1.5-3.5,1.1-7.2,1.8-10.7,2.6-1.8.4-3.6.6-5.4,1s-3.6.6-5.4.8c-3.6.4-7.2.9-10.9,1a158.47,158.47,0,0,1-21.8-.2c-3.6-.4-7.2-.7-10.8-1.3-1.8-.3-3.6-.5-5.4-.9s-3.5-.7-5.3-1.1a155.78,155.78,0,0,1-20.8-6.4c-2.6-.9-5.2-2.1-7.7-3.2l-1.9-.8c-.6-.3-1.3-.6-1.9-.9-1.3-.6-2.5-1.2-3.8-1.9s-2.5-1.3-3.7-2-2.5-1.3-3.7-2c-2.4-1.4-4.8-2.9-7.2-4.3a175.71,175.71,0,0,1-26.4-20.7,172.12,172.12,0,0,1-21.8-25l-2.3-3.4a40.47,40.47,0,0,1-2.3-3.4c-1.4-2.4-3-4.6-4.3-7l-2.1-3.6c-.7-1.2-1.3-2.4-1.9-3.7s-1.3-2.4-1.9-3.7l-1.7-3.7a178.87,178.87,0,0,1-9.6-126.9,160,160,0,0,1,30.9-57.1,155.23,155.23,0,0,1,23.7-22.8,160.52,160.52,0,0,1,29-18,153.77,153.77,0,0,1,28.3-10.4,158.81,158.81,0,0,1,31-4.6,164.23,164.23,0,0,1,63.9,10A170.17,170.17,0,0,1,311.6,52a172.86,172.86,0,0,1,39,52.4"/><path class="cls-2" d="M357.4,120.49a182.28,182.28,0,0,1,6.9,23.2l1.2,6c.2,1,.4,2,.5,3l.5,3c.7,4,1,8.1,1.5,12.2.2,2,.2,4.1.4,6.1l.2,3.1v3.1c0,2.1.1,4.1,0,6.2l-.3,6.2a166.26,166.26,0,0,1-3.2,24.4l-.6,3-.7,3c-.5,2-1,4-1.5,5.9-1.2,3.9-2.3,7.8-3.8,11.6-1.3,3.9-3,7.5-4.5,11.3-.8,1.8-1.7,3.6-2.6,5.5l-1.3,2.7-1.4,2.6a157.63,157.63,0,0,1-12.7,20c-1.2,1.5-2.4,3.1-3.6,4.6s-2.5,3-3.7,4.4c-2.5,3-5.2,5.7-7.8,8.4a149.05,149.05,0,0,1-17.1,14.7c-2.9,2.3-6.1,4.3-9.1,6.4-1.5,1.1-3.2,1.9-4.7,2.9s-3.1,1.9-4.8,2.8a160.13,160.13,0,0,1-40.6,15.4l-5.3,1.1a23.81,23.81,0,0,1-2.6.5l-2.7.4-5.3.8-5.3.5-2.7.2a24.37,24.37,0,0,1-2.7.1c-1.8.1-3.5.1-5.3.2s-3.6,0-5.3,0a47,47,0,0,1-5.3-.2c-1.8-.1-3.5-.3-5.3-.4a20.61,20.61,0,0,1-2.6-.3l-2.6-.3c-3.5-.4-7-1.1-10.5-1.7a143.12,143.12,0,0,1-20.4-5.6c-1.3-.5-2.7-.9-3.9-1.4s-2.6-1-3.9-1.6c-2.6-1-5.1-2.2-7.7-3.4-.6-.3-1.3-.6-1.9-.9l-1.9-1c-1.2-.6-2.5-1.3-3.7-1.9-2.5-1.3-4.9-2.7-7.3-4.1a181,181,0,0,1-26.9-19.8c-1-.9-2.1-1.8-3.1-2.8l-3-2.9-1.5-1.4a19.2,19.2,0,0,1-1.4-1.5l-2.9-3c-1.9-2-3.7-4.1-5.5-6.1s-3.5-4.2-5.1-6.4c-3.3-4.4-6.5-8.8-9.4-13.4-.7-1.2-1.5-2.3-2.2-3.4s-1.4-2.4-2-3.5-1.4-2.3-2-3.5l-1.9-3.6a152.68,152.68,0,0,1-6.8-14.8c-.6-1.2-1-2.5-1.5-3.8l-1.5-3.8c-.9-2.5-1.7-5.1-2.6-7.7-.7-2.6-1.5-5.2-2.2-7.8l-.9-3.9c-.3-1.3-.7-2.6-.9-3.9-1.1-5.3-2.1-10.5-2.7-15.8a177.22,177.22,0,0,1,3.3-63.7,160,160,0,0,1,27.5-58.9,153.5,153.5,0,0,1,79.6-55.3,150.55,150.55,0,0,1,31.6-5.7,163.3,163.3,0,0,1,65.7,9,172.59,172.59,0,0,1,58.1,34.6,175.92,175.92,0,0,1,40.3,53.5"/><path class="cls-2" d="M357.5,120.69l1,2.8.5,1.4.4,1.4,1.8,5.7c.6,1.9,1,3.8,1.6,5.7l.8,2.9c.3,1,.5,1.9.7,2.9.4,2,.8,3.9,1.2,5.9l.3,1.5.2,1.5.5,3c.7,3.9,1.1,7.9,1.5,11.9.2,2,.3,4,.4,6s.3,4,.2,6l.1,6c0,2-.2,4-.2,6l-.1,3-.3,3c-.2,2-.3,4-.6,6-.6,4-1,8-1.9,11.9A167.06,167.06,0,0,1,350.3,260a161.26,161.26,0,0,1-26.4,37.2c-1.3,1.3-2.6,2.7-3.9,4s-2.7,2.5-4,3.8l-2,1.9-2.1,1.8c-1.4,1.2-2.8,2.3-4.2,3.5a176.64,176.64,0,0,1-17.9,12.2,154.34,154.34,0,0,1-19.1,9.5c-1.7.7-3.3,1.3-5,1.9s-3.3,1.3-5,1.8c-3.4,1-6.7,2.2-10.1,3a145.12,145.12,0,0,1-41.4,4.7c-1.7-.1-3.4-.1-5.2-.2s-3.4-.3-5.2-.5c-3.4-.2-6.9-.9-10.2-1.3a135.75,135.75,0,0,1-20-4.9c-1.3-.4-2.7-.8-4-1.3s-2.6-1-4-1.4c-2.6-.9-5.2-2.1-7.8-3.1l-1.9-.8-1.9-.9c-1.3-.6-2.5-1.2-3.8-1.8-2.5-1.2-5-2.6-7.4-3.9a177.4,177.4,0,0,1-50.5-42L84.8,280l-1.3-1.6-1.2-1.6-2.4-3.2c-.8-1.1-1.5-2.2-2.3-3.3L75.3,267c-.7-1.1-1.4-2.3-2.1-3.4l-1.1-1.7-.5-.8-.5-.9-2-3.5c-2.7-4.6-5-9.4-7.3-14.3-1.1-2.4-2.1-4.9-3.2-7.4-.9-2.5-2-5-2.9-7.5-1.7-5-3.4-10.1-4.8-15.2-.7-2.6-1.4-5.1-1.9-7.7l-.9-3.9c-.3-1.3-.5-2.6-.7-3.9s-.5-2.6-.7-3.9l-.5-3.9c-.4-2.6-.6-5.3-.9-7.9l-.2-2-.1-2c-.1-1.3-.2-2.7-.2-4-.2-2.7-.1-5.3-.2-8,.1-2.6.1-5.3.2-8,.1-1.3.1-2.7.2-4s.1-2.7.3-4,.3-2.6.4-4l.2-2,.3-2c.4-2.6.6-5.3,1.2-7.9a159.59,159.59,0,0,1,23.9-60.5,148.37,148.37,0,0,1,21.4-25.6,156.36,156.36,0,0,1,27.6-20.9,151.26,151.26,0,0,1,61.2-19.8,162.4,162.4,0,0,1,67.5,7.8,173.24,173.24,0,0,1,59.9,34.7,177.81,177.81,0,0,1,41.6,54.6"/><path class="cls-2" d="M357.6,120.89c1.4,3.6,2.5,7.4,3.7,11.1.6,1.8,1,3.8,1.6,5.6s1.1,3.8,1.4,5.7c.8,3.8,1.7,7.7,2.2,11.5.3,1.9.7,3.9.9,5.8l.6,5.9a58.45,58.45,0,0,1,.4,5.9l.2,2.9c.1,1,.1,2,.1,2.9l.1,5.9v1.5l-.1,1.5-.1,2.9c-.1,3.9-.5,7.8-.8,11.7-.2,2-.5,3.9-.8,5.8s-.5,3.9-.9,5.8a162.68,162.68,0,0,1-39.1,80.8,155.61,155.61,0,0,1-32.6,27.2A150.45,150.45,0,0,1,256.5,338l-2.5.7-2.5.6-5,1.2c-1.6.4-3.4.6-5,1l-5,.9a153.88,153.88,0,0,1-20.3,1.4h-5.1l-5-.3-2.5-.1-2.5-.3-5-.6a146.58,146.58,0,0,1-19.7-4.1c-1.4-.4-2.7-.7-4-1.1s-2.7-.9-4-1.3c-2.7-.8-5.3-1.9-7.9-2.9l-2-.7-1.9-.8-3.8-1.7c-1.3-.5-2.5-1.2-3.8-1.8l-3.8-1.8a179.17,179.17,0,0,1-27.9-17.9,182.65,182.65,0,0,1-42.7-47.8,186.12,186.12,0,0,1-14.4-28.1l-1.5-3.7c-.2-.6-.5-1.2-.7-1.8l-.6-1.9-1.3-3.7c-.5-1.2-.8-2.5-1.2-3.7L53.7,214l-1-3.8c-.3-1.3-.7-2.5-1-3.8s-.6-2.6-.9-3.8c-1.3-5.1-2.2-10.3-3-15.5-.4-2.6-.6-5.2-1-7.8-.2-2.6-.4-5.3-.6-7.9-.1-1.3-.1-2.6-.2-4a26.39,26.39,0,0,1-.1-4c0-2.6-.1-5.3,0-7.9s.1-5.3.4-7.9c.1-1.3.2-2.7.3-4s.3-2.6.4-4a155.94,155.94,0,0,1,20.3-61.9,146.86,146.86,0,0,1,47-49.2,142.31,142.31,0,0,1,29.2-14.6A149.12,149.12,0,0,1,176.4,6a162.84,162.84,0,0,1,69.4,6.6,175.82,175.82,0,0,1,61.7,34.9,177.94,177.94,0,0,1,42.8,55.7"/><path class="cls-2" d="M357.7,121.09c1.4,3.6,2.5,7.2,3.7,10.9.6,1.8,1,3.7,1.5,5.6s1,3.7,1.4,5.6c.8,3.8,1.7,7.5,2.2,11.3.3,1.9.7,3.8.9,5.7l.6,5.7c.1,1,.2,1.9.3,2.9l.2,2.9c.1,1.9.3,3.8.3,5.8l.1,5.8v2.9l-.1,2.9a175.73,175.73,0,0,1-2.2,22.9c-5,30.1-18.1,58.3-36.7,79.5A148.21,148.21,0,0,1,262.4,336a146.27,146.27,0,0,1-39.1,6.6,161.46,161.46,0,0,1-19.7-.6,155.78,155.78,0,0,1-19.3-3.4,175.46,175.46,0,0,1-31.7-11.2,179.34,179.34,0,0,1-28.4-17,185.77,185.77,0,0,1-44-45.9,190.28,190.28,0,0,1-15.3-27.1l-1.6-3.6c-.6-1.2-1-2.4-1.5-3.6l-1.5-3.6-1.3-3.7c-.4-1.2-1-2.4-1.4-3.7s-.8-2.5-1.2-3.7c-.9-2.4-1.5-4.9-2.3-7.4-.2-.6-.4-1.2-.6-1.9l-.5-1.9c-.3-1.3-.6-2.5-1-3.8-.6-2.5-1.1-5.1-1.7-7.6s-.9-5.1-1.4-7.7l-.6-3.9c-.2-1.3-.4-2.6-.5-3.9a184.88,184.88,0,0,1-1-31.6,159.7,159.7,0,0,1,4.9-32.2c.8-2.6,1.4-5.3,2.3-7.9l1.3-3.9c.5-1.3.9-2.6,1.4-3.9,2-5.1,4.2-10.2,6.7-15.2a143.72,143.72,0,0,1,44.7-52,146.11,146.11,0,0,1,62.8-25.2,161.28,161.28,0,0,1,71.2,5.4,174.81,174.81,0,0,1,63.6,35,181.11,181.11,0,0,1,44.1,56.8"/><path class="cls-2" d="M357.7,121.29a179.58,179.58,0,0,1,9.3,88.8c-.1.9-.3,1.8-.4,2.8l-.5,2.7c-.4,1.8-.6,3.7-1.1,5.4-.9,3.6-1.6,7.2-2.7,10.7a156,156,0,0,1-7.4,20.5,165.12,165.12,0,0,1-22,36,147.41,147.41,0,0,1-29.6,27.4c-2.7,2-5.6,3.6-8.3,5.4-1.4.9-2.9,1.7-4.3,2.5l-4.3,2.4c-3,1.4-5.9,2.8-8.9,4.1l-4.6,1.8c-1.5.6-3,1.2-4.6,1.7a145.68,145.68,0,0,1-38,7.6l-2.4.2h-2.4c-1.6,0-3.2.1-4.8.1h-2.4l-2.4-.1c-1.6-.1-3.2-.1-4.8-.2a152.44,152.44,0,0,1-19-2.7,169,169,0,0,1-32.1-10.2,179,179,0,0,1-28.8-16.1A189.66,189.66,0,0,1,86,268a207.5,207.5,0,0,1-16.2-26.2,221.45,221.45,0,0,1-12.2-28.3,188.53,188.53,0,0,1-7.7-30,190.74,190.74,0,0,1-2.9-31.3c-.1-1.4,0-2.7,0-4.1s.1-2.7.1-4.1c.2-2.7.3-5.4.5-8.1s.6-5.4,1-8.1c.2-1.3.4-2.7.6-4s.4-2.7.7-4l.8-4,.4-2,.5-2c.7-2.7,1.3-5.4,2.2-8l1.3-4c.4-1.3,1-2.6,1.4-3.9L58,92c.5-1.3,1.1-2.6,1.7-3.8A140.54,140.54,0,0,1,102,33.49a147.15,147.15,0,0,1,63.5-28,160.59,160.59,0,0,1,73.1,4,179.68,179.68,0,0,1,110.9,93.1"/><path class="cls-2" d="M357.8,121.49c1.4,3.5,2.4,7,3.5,10.6.6,1.8,1,3.6,1.5,5.4s1,3.6,1.4,5.4l1.2,5.4.6,2.7.4,2.7.9,5.5c.2,1.8.4,3.7.7,5.5.5,3.7.6,7.3.9,11a25.28,25.28,0,0,1,.1,2.8l.1,2.8c0,1.8.1,3.7,0,5.5-.1,3.7-.1,7.3-.5,10.9l-.4,5.4-.7,5.4a161.83,161.83,0,0,1-11.2,41.2c-1.3,3.3-2.9,6.4-4.3,9.5-.7,1.6-1.6,3.1-2.4,4.6s-1.6,3-2.5,4.5a141.49,141.49,0,0,1-11.4,16.8,145.72,145.72,0,0,1-28,27.5A140.54,140.54,0,0,1,200,337.89a154.27,154.27,0,0,1-32.4-9.2c-2.6-1-5.1-2.2-7.7-3.3l-3.7-1.8c-1.2-.6-2.5-1.2-3.7-1.8-2.4-1.3-4.9-2.5-7.2-4-1.2-.7-2.3-1.4-3.5-2.1s-2.3-1.5-3.4-2.2-2.3-1.4-3.4-2.2l-3.3-2.3-1.7-1.1-1.6-1.2-3.2-2.4c-2.1-1.6-4.1-3.4-6.2-5l-3-2.6c-1-.9-2-1.7-2.9-2.6a203.19,203.19,0,0,1-21-22.7c-1.5-2.1-3.1-4-4.6-6.1l-2.2-3.1-1.1-1.5-1-1.6c-.7-1.1-1.4-2.1-2.1-3.1s-1.3-2.1-2-3.2l-2-3.2L74.9,246c-2.6-4.3-4.9-8.8-7.1-13.4-.6-1.1-1.1-2.3-1.6-3.4l-1.6-3.5c-1-2.3-2-4.7-3-7a201.83,201.83,0,0,1-13.9-60.2,157.93,157.93,0,0,1,8.9-64.9A140.67,140.67,0,0,1,72.3,63a131.59,131.59,0,0,1,24.1-26.7,143.48,143.48,0,0,1,64-30.9,161.57,161.57,0,0,1,75,2.6,179.75,179.75,0,0,1,67.5,35.2,189.9,189.9,0,0,1,26.6,27.2,185.71,185.71,0,0,1,20.2,31.8"/><path class="cls-2" d="M357.9,121.69c1.4,3.4,2.3,6.9,3.5,10.4.6,1.7,1,3.5,1.5,5.3s1,3.5,1.4,5.3l1.1,5.3.6,2.7a25.12,25.12,0,0,1,.4,2.7l.9,5.4c.3,1.8.4,3.6.7,5.4s.5,3.6.6,5.4l.4,5.4a48.74,48.74,0,0,1,.2,5.4l.1,5.4a187.1,187.1,0,0,1-1.4,21.2,159.75,159.75,0,0,1-29.5,75.1,139.7,139.7,0,0,1-58.7,46.1,142.14,142.14,0,0,1-35.5,9.4,143.79,143.79,0,0,1-36.5-.2,157.37,157.37,0,0,1-32.8-8.1A166.1,166.1,0,0,1,145.2,315c-1.1-.7-2.3-1.4-3.5-2.1l-3.4-2.2-1.7-1.1c-.6-.4-1.1-.8-1.6-1.2-1.1-.8-2.2-1.6-3.3-2.3s-2.1-1.6-3.2-2.4-2.1-1.6-3.1-2.4l-3-2.5-1.5-1.2c-.5-.4-1-.9-1.5-1.3-2-1.7-3.9-3.4-5.8-5.2l-2.8-2.7-2.7-2.7c-1.9-1.7-3.5-3.7-5.3-5.5l-5.1-5.7c-3.2-3.9-6.4-7.8-9.3-11.8l-2.2-3-2.1-3.1a33.68,33.68,0,0,1-2.1-3.1l-2-3.1c-2.7-4.2-5.1-8.5-7.6-12.9-1.2-2.2-2.3-4.5-3.5-6.7l-1.6-3.4a35.39,35.39,0,0,1-1.6-3.4l-1.5-3.5-.8-1.7-.7-1.8c-1-2.3-2-4.7-2.8-7l-1.3-3.6-1.2-3.6c-.4-1.2-.9-2.4-1.2-3.6L54.9,195c-.8-2.5-1.3-4.9-2-7.4-.4-1.2-.6-2.5-.9-3.8l-.9-3.8c-.5-2.5-.9-5.1-1.5-7.7l-1.2-7.8c-2.6-21.3-1.6-43.7,4.9-65.5a134.05,134.05,0,0,1,37.1-59.9c17.2-16,39.7-28,64.4-33.8a160.2,160.2,0,0,1,76.9,1.1,179.32,179.32,0,0,1,69.4,35.3,188.77,188.77,0,0,1,27.4,27.7,178.78,178.78,0,0,1,20.7,32.5"/><path class="cls-2" d="M358,121.89l.9,2.5a19.75,19.75,0,0,1,.8,2.6c.5,1.7,1.1,3.4,1.6,5.1s.9,3.5,1.4,5.2.9,3.4,1.4,5.2a186.65,186.65,0,0,1,3.7,20.9c.2,1.8.4,3.5.6,5.2l.4,5.2c.3,3.5.3,7,.4,10.5v2.6l-.1,2.6c-.1,1.7-.1,3.5-.2,5.2l-.4,5.2a44,44,0,0,1-.5,5.1,170.71,170.71,0,0,1-9.3,39.3,152.44,152.44,0,0,1-18,34.2,135.93,135.93,0,0,1-55.7,46.3,139.17,139.17,0,0,1-70,11.1,159.59,159.59,0,0,1-33.1-6.9c-1.3-.4-2.6-.9-4-1.4l-3.9-1.4c-2.6-1.1-5.1-2.1-7.7-3.2-5-2.3-9.9-4.7-14.6-7.4-1.2-.7-2.4-1.3-3.5-2l-3.4-2.1-1.7-1a16.29,16.29,0,0,1-1.7-1.1l-3.3-2.2c-2.2-1.5-4.3-3.1-6.4-4.6l-3.1-2.4c-1-.8-2.1-1.6-3.1-2.4-2-1.7-4-3.3-5.9-5-1-.9-1.9-1.7-2.9-2.5l-2.8-2.7c-1.9-1.7-3.6-3.6-5.4-5.3-.9-.8-1.7-1.8-2.6-2.7s-1.7-1.8-2.6-2.7a229.83,229.83,0,0,1-33.8-48.6L67.8,225c-.6-1.1-1.1-2.3-1.6-3.4l-1.6-3.4c-.5-1.2-1-2.3-1.5-3.5s-1.1-2.3-1.5-3.5l-1.4-3.5c-1-2.3-1.7-4.7-2.7-7.1a183.9,183.9,0,0,1-8.1-30,164.81,164.81,0,0,1-3-32.4,142.48,142.48,0,0,1,3.9-33.5,140.67,140.67,0,0,1,12.4-32.8,131,131,0,0,1,51-52,144,144,0,0,1,35.5-14.5c25.2-6.7,52.7-6.7,78.8-.5a173.81,173.81,0,0,1,37.7,13.8c1.5.8,3,1.5,4.5,2.3l4.4,2.4c3,1.6,5.7,3.4,8.6,5.2,1.4.8,2.8,1.8,4.2,2.8l4.1,2.8c2.7,2,5.4,4,7.9,6.1a187.29,187.29,0,0,1,28.1,28.2l1.6,1.9,1.5,2,3,4c1,1.3,1.9,2.7,2.8,4.1l2.8,4.1c1.7,2.8,3.5,5.6,5.1,8.4l2.3,4.3c.8,1.4,1.6,2.9,2.3,4.3"/><path class="cls-2" d="M357.9,121.79c1.3,3.4,2.3,6.9,3.4,10.3.6,1.7,1,3.5,1.5,5.2s.9,3.5,1.4,5.2a192.52,192.52,0,0,1,3.7,21c.2,1.8.4,3.5.6,5.3l.4,5.3.2,2.6c.1.9,0,1.8.1,2.6l.1,5.2c.1,1.7-.1,3.5-.1,5.2s-.1,3.5-.2,5.2l-.4,5.2-.2,2.6c-.1.9-.2,1.7-.3,2.6a169.61,169.61,0,0,1-9.4,39.3,157.38,157.38,0,0,1-18,34.3,138,138,0,0,1-55.8,46.9,140.79,140.79,0,0,1-70.7,12l-3.7-.3-3.7-.5-3.6-.5-3.6-.7a161.11,161.11,0,0,1-55.4-21.9,195,195,0,0,1-42.5-36.2l-2.5-2.9c-.4-.5-.9-.9-1.3-1.4l-1.2-1.5L94.3,269c-.8-1-1.5-2-2.3-3-3.2-3.9-5.9-8.1-8.8-12.2-.7-1-1.3-2.1-2-3.2s-1.4-2.1-2-3.2l-1.9-3.3c-.6-1.1-1.4-2.1-1.9-3.2-1.2-2.2-2.6-4.3-3.7-6.6L69.9,231c-.6-1.1-1.1-2.3-1.7-3.4a213.94,213.94,0,0,1-11.6-28.4,189.68,189.68,0,0,1-7.3-30.6,174.67,174.67,0,0,1-2.2-32.5c.2-2.7.3-5.5.5-8.3s.5-5.6.9-8.4a159,159,0,0,1,3.3-16.7,137.36,137.36,0,0,1,13.1-32.6,131.63,131.63,0,0,1,22.3-29.2,140.22,140.22,0,0,1,17.7-14.6,143.55,143.55,0,0,1,32.6-16.8,151.49,151.49,0,0,1,36.8-8.4,159.34,159.34,0,0,1,38.4.8,168.44,168.44,0,0,1,37.5,9.8,182.46,182.46,0,0,1,58.3,36.2A186.08,186.08,0,0,1,349.2,102"/><path class="cls-2" d="M357.8,121.59c1.4,3.4,2.3,6.9,3.5,10.3.6,1.7,1,3.5,1.5,5.2s.9,3.5,1.4,5.2a194.27,194.27,0,0,1,3.7,21.1c.2,1.8.4,3.5.6,5.3s.2,3.5.3,5.3l.2,2.6a21.75,21.75,0,0,0,.1,2.6c0,1.8.1,3.5.1,5.3s-.1,3.5-.1,5.2-.1,3.5-.2,5.2-.3,3.5-.4,5.2l-.2,2.6-.3,2.6a165.61,165.61,0,0,1-9.5,39.4,160.47,160.47,0,0,1-18,34.4,143.79,143.79,0,0,1-25,27.7,138.12,138.12,0,0,1-30.9,19.9,142.77,142.77,0,0,1-71.5,12.9l-1.9-.1-1.9-.2-3.7-.4c-2.5-.2-5-.8-7.4-1.2a159.56,159.56,0,0,1-56.3-22.2,174.47,174.47,0,0,1-23.1-17.4l-2.6-2.4a29.56,29.56,0,0,1-2.6-2.4l-2.5-2.5-1.3-1.2-1.2-1.3c-1.6-1.7-3.3-3.3-4.8-5s-3.1-3.4-4.5-5.2l-2.5-2.9-2.4-3c-1.7-2-3.1-4.1-4.7-6.1-.8-1-1.5-2.1-2.2-3.1l-2.2-3.1c-.7-1.1-1.4-2.2-2.1-3.2s-1.5-2.1-2.1-3.2a239.61,239.61,0,0,1-14.5-26.9l-.8-1.7a13.36,13.36,0,0,1-.7-1.8l-1.5-3.5c-.6-1.2-.9-2.4-1.4-3.6l-1.4-3.6c-.9-2.4-1.7-4.9-2.6-7.3-.4-1.2-.7-2.5-1.2-3.7s-.9-2.5-1.2-3.7c-.7-2.5-1.5-5-2.1-7.6-.3-1.3-.6-2.5-1-3.8s-.5-2.6-.8-3.9-.6-2.6-.8-3.9l-.7-3.9c-.5-2.6-.8-5.3-1.2-7.9-.2-1.3-.3-2.7-.5-4l-.4-4-.6-8.1-.1-4.1c0-1.4-.1-2.8,0-4.1l.1-4.1v-2.1l.1-2.1a154.39,154.39,0,0,1,5.5-33.3,138.5,138.5,0,0,1,13.8-32.3A129.63,129.63,0,0,1,90,39.79L94.2,36c1.4-1.3,2.9-2.4,4.4-3.6a105.61,105.61,0,0,1,9.3-6.8,148.05,148.05,0,0,1,69.3-24.2,166.94,166.94,0,0,1,75.1,11.2,179.35,179.35,0,0,1,57.4,36.3,187.69,187.69,0,0,1,40.1,53.8"/><path class="cls-2" d="M357.8,121.39c1.4,3.4,2.4,6.9,3.5,10.4.6,1.7,1,3.5,1.5,5.3s.9,3.5,1.4,5.3a196,196,0,0,1,3.7,21.2c.2,1.8.4,3.5.6,5.3s.2,3.5.3,5.3l.2,2.6.1,2.6c0,1.8.1,3.5.1,5.3s-.1,3.5-.1,5.3-.1,3.5-.2,5.2-.3,3.5-.4,5.2l-.2,2.6-.3,2.6a178,178,0,0,1-9.5,39.5,162,162,0,0,1-18,34.6,148,148,0,0,1-25,27.9,140.42,140.42,0,0,1-31,20.3,144.24,144.24,0,0,1-72.4,13.8c-2.5-.2-5.1-.5-7.6-.7s-5-.8-7.5-1.1a157,157,0,0,1-57.2-22.6A186.47,186.47,0,0,1,97,278.89c-1.7-2-3.3-4.1-4.9-6.2-.8-1-1.5-2.1-2.3-3.2l-2.3-3.1-2.2-3.2c-.7-1.1-1.5-2.1-2.2-3.2l-2.1-3.3a15.26,15.26,0,0,0-1.1-1.6l-1-1.7-2-3.3c-.7-1.1-1.2-2.3-1.9-3.4l-1.9-3.4-1.8-3.4c-2.4-4.6-4.5-9.3-6.6-14.1-.6-1.2-1-2.4-1.5-3.6l-1.5-3.6c-.8-2.5-1.9-4.8-2.7-7.3l-1.2-3.7c-.2-.6-.4-1.2-.6-1.9l-.5-1.9c-.3-1.3-.7-2.5-1.1-3.8s-.7-2.5-1-3.8l-1-3.8-.8-3.9c-.7-2.6-1.1-5.2-1.6-7.8-.3-1.3-.5-2.6-.7-3.9l-.6-4c-.2-1.3-.3-2.7-.5-4s-.4-2.7-.5-4c-.5-5.3-.9-10.7-1-16.2v-6.2l.1-2.1.1-4.1.3-4.1a156.3,156.3,0,0,1,6.3-33.3c.9-2.7,1.8-5.5,2.8-8.2s2.2-5.4,3.4-8.1l1.9-4c.6-1.3,1.3-2.7,2-4l2.2-3.9,1.1-2,1.2-1.9a133,133,0,0,1,23.4-28.3c2.7-2.6,5.7-4.9,8.6-7.3,1.5-1.2,3.1-2.3,4.6-3.4s3.1-2.3,4.8-3.3a145.32,145.32,0,0,1,32.7-15.8,154.61,154.61,0,0,1,36.5-7.4c25-2,50.7,2.3,74.3,11.7a180.65,180.65,0,0,1,56.6,36.4,187.2,187.2,0,0,1,39.4,53.5"/><path class="cls-2" d="M357.7,121.29c1.4,3.4,2.4,7,3.5,10.5.6,1.7,1,3.5,1.5,5.3s.9,3.5,1.4,5.3a197.8,197.8,0,0,1,3.7,21.3c.2,1.8.4,3.5.6,5.3s.2,3.6.3,5.3l.2,2.7v2.7c0,1.8.1,3.5.1,5.3s-.1,3.5-.1,5.3-.1,3.5-.2,5.2-.3,3.5-.4,5.2c-.1.9-.1,1.7-.2,2.6l-.3,2.6a172.79,172.79,0,0,1-9.6,39.5,165.19,165.19,0,0,1-18,34.7,155.8,155.8,0,0,1-24.9,28.2,148.17,148.17,0,0,1-31.1,20.8,145.13,145.13,0,0,1-73.2,14.7c-2.6-.2-5.2-.4-7.7-.7s-5.1-.7-7.7-1.1a153.69,153.69,0,0,1-58.1-23,183.32,183.32,0,0,1-43-39.5,38.12,38.12,0,0,1-2.4-3.2l-2.4-3.2c-1.4-2.2-3.1-4.3-4.5-6.5s-3-4.3-4.2-6.6l-2.1-3.3c-.7-1.1-1.3-2.3-1.9-3.4a37.18,37.18,0,0,1-1.9-3.4l-1.8-3.5-.9-1.7-.9-1.8-1.7-3.5a39.21,39.21,0,0,1-1.6-3.6l-1.6-3.6c-1-2.4-2-4.8-3-7.3l-1.4-3.7-.7-1.8c-.2-.6-.4-1.2-.6-1.9-.8-2.5-1.8-4.9-2.5-7.4l-1.2-3.8-1-3.8c-.3-1.3-.8-2.5-1.1-3.8l-.9-3.9-.5-1.9-.4-1.9c-.3-1.3-.5-2.6-.8-3.9s-.5-2.6-.7-3.9l-.7-4c-.3-2.6-.8-5.3-1.1-8l-.4-4a15,15,0,0,1-.2-2l-.1-2a179,179,0,0,1,.4-32.7,148.3,148.3,0,0,1,7.1-33.1A140.36,140.36,0,0,1,72,65.59a133.46,133.46,0,0,1,23.8-27.9,143.79,143.79,0,0,1,51-28.9A147.65,147.65,0,0,1,183,1.89a162.67,162.67,0,0,1,73.4,12.4,180.14,180.14,0,0,1,55.7,36.4,186.22,186.22,0,0,1,38.7,53.2"/><path class="cls-2" d="M357.7,121.09c1.4,3.5,2.4,7,3.5,10.6.6,1.8,1,3.5,1.5,5.3s.9,3.6,1.4,5.3a199.58,199.58,0,0,1,3.7,21.4c.2,1.8.4,3.6.6,5.3s.2,3.6.3,5.3l.2,2.7v2.7c0,1.8.1,3.5.1,5.3s-.1,3.5-.2,5.3l-.1,2.6v1.3l-.1,1.3c-.3,3.5-.5,7-1,10.4a168.69,168.69,0,0,1-9.7,39.6,166,166,0,0,1-18,34.8,150.14,150.14,0,0,1-24.9,28.4,146.83,146.83,0,0,1-67,33.8,18.92,18.92,0,0,1-2.3.5l-2.4.4c-1.6.3-3.2.5-4.7.8l-1.2.2-1.2.1-2.4.3c-1.6.2-3.2.3-4.8.5s-3.2.2-4.8.2-3.2.2-4.8.2h-7.2l-2.4-.2c-5.3-.3-10.5-.9-15.7-1.7a153.92,153.92,0,0,1-59-23.4A180,180,0,0,1,92,279.79c-3.2-4.4-6.4-8.7-9.2-13.2l-2.2-3.4c-.7-1.2-1.3-2.3-2-3.5-1.4-2.2-2.6-4.6-3.9-6.9-.3-.6-.7-1.1-1-1.7l-.9-1.8c-.6-1.2-1.2-2.4-1.8-3.5s-1.1-2.4-1.7-3.6-1.2-2.4-1.7-3.6l-1.5-3.7c-.5-1.2-1.1-2.4-1.5-3.7l-1.5-3.7c-.2-.6-.5-1.2-.7-1.8l-.6-1.9-1.3-3.7c-.5-1.2-.8-2.5-1.2-3.8l-1.3-3.8-1.1-3.8c-1.5-5.1-2.7-10.3-3.9-15.5A201.07,201.07,0,0,1,48.9,161c-.3-5.4-.3-10.8-.2-16.3.1-2.7.3-5.5.4-8.2.3-2.7.5-5.5.9-8.3.8-5.5,1.7-11.1,3-16.6l1-4.1c.3-1.4.8-2.7,1.2-4.1l1.2-4.1,1.4-4.1a143,143,0,0,1,15.8-31.5A131.47,131.47,0,0,1,98,36.29l4.3-3.6c1.5-1.2,3-2.3,4.5-3.4,3-2.3,6.3-4.3,9.5-6.4a149,149,0,0,1,68.9-21.3,163.63,163.63,0,0,1,72.6,13,179.8,179.8,0,0,1,54.9,36.5,182.51,182.51,0,0,1,38,52.9"/><path class="cls-2" d="M357.6,121a185.91,185.91,0,0,1,6.5,21.3,179,179,0,0,1,3.7,21.5c.2,1.8.4,3.6.5,5.4l.3,5.4c.1.9.1,1.8.2,2.7V180c0,1.8,0,3.5.1,5.3s-.1,3.5-.2,5.3-.1,3.5-.3,5.3c-.3,3.5-.5,7-1,10.4-.2,1.7-.5,3.4-.7,5.2l-.9,5.1c-.5,3.4-1.4,6.7-2.2,10-.4,1.7-.9,3.3-1.3,4.9s-.9,3.3-1.4,4.9-1.1,3.2-1.6,4.8-1,3.2-1.7,4.7a165.59,165.59,0,0,1-18.1,35,151,151,0,0,1-92.4,63.5c-3.2.7-6.4,1.2-9.6,1.8-3.2.4-6.5.9-9.7,1.1a160.32,160.32,0,0,1-19.6.4c-1.3-.1-2.7-.1-4-.2s-2.7-.3-4-.4-2.7-.3-4-.4l-4-.6a150.31,150.31,0,0,1-60-23.9c-1.1-.7-2.2-1.5-3.2-2.2l-3.2-2.3c-2.1-1.5-4.1-3.2-6.1-4.8s-3.9-3.4-5.8-5l-5.5-5.2c-1.7-1.8-3.5-3.6-5.2-5.4l-2.5-2.8c-.8-.9-1.7-1.8-2.5-2.8-3.2-3.8-6.3-7.6-9.1-11.5l-2.4-3.3c-.8-1.1-1.5-2.3-2.3-3.4l-2.3-3.4-2.1-3.5c-2.9-4.6-5.4-9.4-7.9-14.1a214.05,214.05,0,0,1-12.4-29.7,216.76,216.76,0,0,1-11.4-63.6c-.1-2.7,0-5.4-.1-8.1.1-2.7.2-5.4.4-8.2.4-5.5.9-11,1.8-16.5A162.9,162.9,0,0,1,59,93.49c.5-1.4,1.1-2.7,1.6-4l1.7-4c1.2-2.6,2.5-5.3,3.9-7.9s2.8-5.2,4.4-7.7l2.4-3.8,1.2-1.9c.4-.6.9-1.2,1.3-1.8a140.32,140.32,0,0,1,24.8-27c2.8-2.5,5.9-4.6,8.9-6.9.8-.6,1.5-1.1,2.3-1.6l2.4-1.5c1.6-1,3.2-2.1,4.8-3A146.69,146.69,0,0,1,187.6,2a162.54,162.54,0,0,1,71.7,13.6,177.85,177.85,0,0,1,54,36.6l2.9,2.9c1,1,1.9,1.9,2.8,2.9,1.8,2,3.7,4,5.4,6.1s3.5,4.2,5.1,6.3,3.2,4.3,4.8,6.5,3,4.5,4.5,6.7,2.8,4.6,4.2,6.9a39.72,39.72,0,0,1,2,3.5l1.9,3.5c1.3,2.3,2.4,4.8,3.6,7.2"/><path class="cls-2" d="M357.5,120.79a189,189,0,0,1,6.5,21.5,180.62,180.62,0,0,1,3.7,21.6,172.41,172.41,0,0,1,1.1,21.4c0,1.8-.1,3.5-.2,5.3s-.1,3.5-.3,5.3c-.3,3.5-.5,7-1,10.4a173.08,173.08,0,0,1-27.9,74.8,155.28,155.28,0,0,1-56.3,51,148.47,148.47,0,0,1-76,17.4,75.37,75.37,0,0,1-8.2-.6c-2.7-.2-5.4-.6-8.1-1a147.57,147.57,0,0,1-60.9-24.4,173.43,173.43,0,0,1-43.2-43.1c-12.9-18.2-22.1-38.1-28.6-58.7a210.08,210.08,0,0,1-7.3-31.6c-.2-1.3-.4-2.7-.6-4l-.5-4.1c-.4-2.7-.5-5.4-.8-8.2a14.92,14.92,0,0,0-.2-2.1l-.1-2.1-.2-4.1c-.1-1.4,0-2.8-.1-4.2s-.1-2.8,0-4.2c0-5.4.2-10.9.7-16.3l.3-4.1.5-4.1c.2-1.4.3-2.8.6-4.1l.7-4.1a161.93,161.93,0,0,1,9.4-32.7,149.56,149.56,0,0,1,17.2-30.9A138.15,138.15,0,0,1,103,34.19c1.4-1.2,3-2.3,4.5-3.4s3-2.3,4.6-3.3c3.2-2.1,6.3-4.2,9.7-6a146.64,146.64,0,0,1,68.5-19.3,162.07,162.07,0,0,1,70.9,14.1A175.91,175.91,0,0,1,314.3,53c1.9,1.9,3.8,3.8,5.6,5.8l2.7,3c.4.5.9,1,1.3,1.5l1.3,1.6,2.6,3.1a39.19,39.19,0,0,1,2.5,3.2c1.6,2.2,3.2,4.3,4.8,6.5a181.58,181.58,0,0,1,16,27.6"/><path class="cls-2" d="M357.5,120.59a190.59,190.59,0,0,1,6.5,21.6,166.41,166.41,0,0,1,3.6,21.7,194.75,194.75,0,0,1,1.1,21.5c-.1,1.8-.1,3.5-.2,5.3s-.1,3.5-.3,5.3c-.3,3.5-.5,7-1.1,10.4a175.41,175.41,0,0,1-28,75.1,160.26,160.26,0,0,1-56.4,51.7,150.83,150.83,0,0,1-77,18.3c-1.4,0-2.8-.1-4.2-.2l-4.2-.3c-1.4-.1-2.8-.3-4.2-.5l-4.1-.6a139.27,139.27,0,0,1-32.9-9.1,152.8,152.8,0,0,1-29-15.8,171.52,171.52,0,0,1-43.3-44.3,191,191,0,0,1-16.4-29.2c-.6-1.3-1.1-2.5-1.7-3.8s-1-2.6-1.6-3.8-1.1-2.5-1.6-3.8l-1.4-3.9c-1-2.6-1.8-5.2-2.7-7.8-.5-1.3-.8-2.6-1.2-3.9l-1.2-3.9-2.1-7.9-.9-4-.5-2a14.16,14.16,0,0,0-.4-2c-.2-1.3-.5-2.7-.8-4l-.2-1-.2-1-.3-2-.7-4.1-.5-4.1a192.94,192.94,0,0,1-1.6-33.2,193.85,193.85,0,0,1,3.7-32.8,170.65,170.65,0,0,1,10.2-32.6,147.78,147.78,0,0,1,17.8-30.6,132.81,132.81,0,0,1,25.8-26.1l4.5-3.4a18.82,18.82,0,0,1,2.3-1.6l2.4-1.6c1.6-1,3.1-2.1,4.8-3.1l4.9-2.8a148.39,148.39,0,0,1,68.4-18.4A158.88,158.88,0,0,1,262.7,17,175.39,175.39,0,0,1,315,53.69l2.8,2.8,2.7,3,2.7,3c.9,1,1.7,2.1,2.5,3.1,1.7,2.1,3.4,4.1,5,6.2l2.4,3.2c.8,1.1,1.6,2.1,2.3,3.2,1.4,2.2,3,4.4,4.4,6.6s2.7,4.5,4.1,6.8,2.5,4.6,3.8,7,2.3,4.7,3.5,7.1"/><path class="cls-2" d="M357.4,120.49a179.4,179.4,0,0,1,6.6,21.7,167.88,167.88,0,0,1,3.6,21.8,173.52,173.52,0,0,1,1,21.6,183.77,183.77,0,0,1-1.6,21.1A179.89,179.89,0,0,1,339,282a163.83,163.83,0,0,1-56.5,52.5,153.21,153.21,0,0,1-78.1,19.3c-2.8-.2-5.6-.3-8.5-.5s-5.6-.7-8.5-1a146.91,146.91,0,0,1-62.9-25.5,168.41,168.41,0,0,1-43.4-45.5c-.8-1.2-1.5-2.5-2.3-3.6s-1.5-2.4-2.3-3.6l-2.1-3.7-1.1-1.8a17.38,17.38,0,0,0-1-1.9c-.6-1.3-1.3-2.5-2-3.8s-1.2-2.5-1.9-3.8l-1.8-3.8-1.6-3.9c-2.3-5.1-4.2-10.4-6-15.6-.9-2.6-1.7-5.3-2.6-7.9l-1.1-4c-.3-1.3-.8-2.6-1.1-4s-.6-2.7-1-4l-.5-2-.4-2-.9-4c-.3-1.3-.5-2.7-.7-4.1s-.5-2.7-.7-4.1l-.6-4.1-.3-2.1c-.1-.7-.1-1.4-.2-2.1-.1-1.4-.3-2.8-.5-4.1s-.2-2.8-.4-4.1-.3-2.8-.3-4.2l-.2-4.2c-.1-1.4-.2-2.8-.2-4.2l-.1-4.2a29.46,29.46,0,0,1,.1-4.2c0-1.4,0-2.8.1-4.2l.2-4.2c0-2.7.4-5.4.6-8.2.1-1.4.3-2.7.4-4.1l.5-4.1c.4-2.7.8-5.5,1.3-8.2l.8-4.1c.3-1.4.5-2.8.9-4.1a165.16,165.16,0,0,1,11-32.4,144.58,144.58,0,0,1,44.7-55.9c2.9-2.3,6.1-4.3,9.2-6.4,1.6-1.1,3.2-2,4.8-2.9s3.3-1.9,4.9-2.8a145.83,145.83,0,0,1,68.7-17.8,159.18,159.18,0,0,1,69.2,15.3,178.29,178.29,0,0,1,27.4,16l6.3,4.8c2.1,1.6,4.1,3.4,6.1,5,4,3.5,7.9,7.1,11.5,10.9,1.9,1.8,3.6,3.8,5.4,5.8a37.27,37.27,0,0,1,2.6,3l2.5,3.1,2.5,3c.8,1,1.6,2.1,2.4,3.2,1.6,2.1,3.2,4.2,4.6,6.4a178.31,178.31,0,0,1,15.5,27.2"/><path class="cls-2" d="M357.3,120.29a180.85,180.85,0,0,1,6.6,21.8,166.57,166.57,0,0,1,3.6,21.9,197.44,197.44,0,0,1,1,21.6,182.19,182.19,0,0,1-29.7,96.7,167.79,167.79,0,0,1-56.5,53.2,159.47,159.47,0,0,1-37.7,15.3c-1.7.4-3.3.9-5,1.3s-3.4.7-5.1,1l-2.6.5-1.3.2-1.3.2c-1.7.2-3.4.5-5.2.7l-2.6.3-2.6.2c-1.7.1-3.5.3-5.2.4s-3.5.1-5.3.1-3.5.1-5.3,0c-1.4-.1-2.9-.1-4.3-.2s-2.9-.1-4.3-.3-2.9-.3-4.3-.4-2.9-.3-4.3-.5a143.27,143.27,0,0,1-34.1-9.4,154,154,0,0,1-29.8-16.6l-1.7-1.2-1.7-1.3-3.3-2.6c-1.1-.8-2.1-1.7-3.2-2.6l-3.1-2.7c-1-.9-2-1.9-3-2.8l-2.9-2.8c-1.9-1.9-3.7-3.9-5.6-5.8s-3.5-4-5.2-6-3.3-4.1-4.9-6.2-3.1-4.2-4.6-6.3-2.9-4.3-4.2-6.5c-.7-1.3-1.5-2.5-2.3-3.7L75.2,276l-1-1.9-2.1-3.8c-.7-1.2-1.3-2.6-2-3.8s-1.3-2.5-2-3.8l-1.8-3.9c-1.3-2.5-2.2-5.3-3.4-7.8-.6-1.3-1.1-2.6-1.6-4l-1.5-4-2.7-8.1-1.2-4.1c-.4-1.3-.9-2.7-1.2-4.1-.7-2.7-1.5-5.4-2-8.2l-1-4.1c-.3-1.4-.5-2.7-.8-4.1s-.6-2.7-.8-4.1-.4-2.8-.6-4.1l-.4-2.1-.2-2.1-.5-4.2c-.2-1.4-.2-2.8-.4-4.2s-.3-2.8-.4-4.2a225.73,225.73,0,0,1,.1-33.9c.1-1.4.3-2.7.4-4.1s.2-2.7.4-4.1l.6-4.1c.2-1.4.3-2.8.6-4.1.5-2.7.9-5.5,1.5-8.2l.9-4.1c.3-1.4.7-2.7,1-4.1a168.17,168.17,0,0,1,11.7-32.2,152.94,152.94,0,0,1,19.1-29.9,145.33,145.33,0,0,1,26.6-25.3,18.82,18.82,0,0,1,2.3-1.6l2.3-1.6c1.6-1,3.1-2.1,4.7-3.1,3.2-1.9,6.4-3.9,9.8-5.5a148.39,148.39,0,0,1,68-16.5A159.07,159.07,0,0,1,266,18.69a175.08,175.08,0,0,1,50.6,36.7,189.48,189.48,0,0,1,19.6,24.3,179.44,179.44,0,0,1,15.2,27"/><path class="cls-2" d="M357.3,120.09a204.91,204.91,0,0,1,6.7,22,170.82,170.82,0,0,1,3.6,22,198.11,198.11,0,0,1,1,21.7,183.76,183.76,0,0,1-1.7,21.1,175.56,175.56,0,0,1-10.1,39.9,187.84,187.84,0,0,1-18.1,35.8,172.14,172.14,0,0,1-56.6,53.9,162.26,162.26,0,0,1-38.1,15.9,144.35,144.35,0,0,1-42.1,5.3c-2.9-.1-5.9-.1-8.8-.4-1.5-.1-2.9-.3-4.4-.4s-2.9-.4-4.4-.6a139.29,139.29,0,0,1-34.7-9.6,149.6,149.6,0,0,1-54.7-39.6c-3.6-4.1-7-8.3-10.1-12.6-1.5-2.2-3.1-4.2-4.5-6.5s-2.9-4.3-4.2-6.6l-2.3-3.8-2.1-3.9c-.7-1.3-1.4-2.5-2.1-3.9s-1.3-2.6-1.9-3.9l-1-1.9c-.3-.7-.6-1.3-.9-2L64,258c-1.2-2.6-2.1-5.4-3.3-8l-1.4-4.1-.7-2a15.87,15.87,0,0,1-.7-2l-1.3-4.1-.7-2-.6-2.1c-.8-2.8-1.6-5.5-2.2-8.3l-1-4.1c-.3-1.4-.5-2.8-.8-4.2a210.16,210.16,0,0,1-4.2-33.5,230.6,230.6,0,0,1,.9-34.2,209.11,209.11,0,0,1,6.2-32.7,163.18,163.18,0,0,1,12.5-32,154,154,0,0,1,19.7-29.6,145.87,145.87,0,0,1,27.1-24.8c3.1-2.1,6.1-4.2,9.4-6.1,1.6-.9,3.2-1.9,4.9-2.8l5-2.6a147.53,147.53,0,0,1,67.8-15.5,159.34,159.34,0,0,1,67.5,16.3,174.7,174.7,0,0,1,49.8,36.7,179,179,0,0,1,19.2,24.2,195.3,195.3,0,0,1,15,26.8"/><path class="cls-2" d="M357.2,120c.7,1.8,1.4,3.7,2,5.5s1.2,3.7,1.7,5.5a22.88,22.88,0,0,1,.8,2.8c.2.9.5,1.9.7,2.8.5,1.9.9,3.7,1.4,5.5a172.3,172.3,0,0,1,3.6,22.1,198.91,198.91,0,0,1,.9,21.7,211.38,211.38,0,0,1-1.7,21.2,193.59,193.59,0,0,1-4,20.4c-.4,1.7-.9,3.3-1.4,5s-.9,3.3-1.4,4.9-1.1,3.2-1.6,4.9c-.3.8-.5,1.6-.8,2.4l-.9,2.4a181.54,181.54,0,0,1-18.2,36,179,179,0,0,1-24.7,30,169,169,0,0,1-32,24.6,165,165,0,0,1-38.5,16.5l-2.6.7-2.6.6-5.2,1.2c-1.7.4-3.5.7-5.3,1s-3.6.6-5.3.9a144.21,144.21,0,0,1-21.8,1.3c-1.5,0-3,0-4.5-.1l-4.5-.3c-1.5-.1-3-.2-4.5-.4l-4.5-.6a141.1,141.1,0,0,1-65.8-27.3,154.59,154.59,0,0,1-24.6-23.1,170.14,170.14,0,0,1-18.6-26.3c-12.1-20.6-19.5-43.1-23.7-65.6a215.24,215.24,0,0,1-3.4-34c-.2-5.7,0-11.4.2-17.2.4-5.7.8-11.5,1.6-17.3a197.61,197.61,0,0,1,7-32.6,178.12,178.12,0,0,1,13.2-31.8A159.94,159.94,0,0,1,88.5,54a146.16,146.16,0,0,1,27.6-24.3,155.82,155.82,0,0,1,19.4-11.3,148,148,0,0,1,67.6-14.6,156.11,156.11,0,0,1,66.7,16.9,178.07,178.07,0,0,1,67.8,60.8A202.3,202.3,0,0,1,352.3,108"/><path class="cls-2" d="M357.2,119.79c.7,1.9,1.4,3.7,2,5.5s1.2,3.7,1.7,5.6c.3.9.6,1.8.9,2.8s.5,1.9.7,2.8c.5,1.9.9,3.7,1.4,5.6a171,171,0,0,1,3.6,22.2c.4,3.7.6,7.3.8,11,.1,1.8.1,3.6.1,5.4v5.4c-.1,1.8-.2,3.6-.2,5.4l-.1,2.7-.2,2.7c-.2,1.8-.3,3.5-.5,5.3s-.5,3.5-.7,5.2a195.46,195.46,0,0,1-4,20.5c-.5,1.7-.9,3.3-1.4,5s-.9,3.3-1.5,4.9c-1.1,3.2-2.1,6.5-3.4,9.7a182.35,182.35,0,0,1-18.2,36.1,189.76,189.76,0,0,1-24.6,30.3,168.45,168.45,0,0,1-71.1,42.2,150.63,150.63,0,0,1-43.6,6.1,140.74,140.74,0,0,1-18.3-1.3,135.2,135.2,0,0,1-36-10,145.69,145.69,0,0,1-30.9-18.1A154.46,154.46,0,0,1,89,309.09a174.92,174.92,0,0,1-18.5-27,187.2,187.2,0,0,1-14.3-32.9,228.9,228.9,0,0,1-8.3-34.1l-.6-4.3a29.75,29.75,0,0,1-.5-4.3c-.2-2.9-.7-5.7-.8-8.6l-.3-4.3-.1-4.3c-.2-2.9-.1-5.8-.2-8.6a242.12,242.12,0,0,1,2.7-34.8,196.93,196.93,0,0,1,7.8-32.5,184,184,0,0,1,13.9-31.6,161.2,161.2,0,0,1,21-28.9,153.7,153.7,0,0,1,28-23.9c1.5-1.1,3.1-2,4.7-3s3.2-2,4.8-2.9l5-2.6,2.5-1.3,2.6-1.2a147.09,147.09,0,0,1,67.4-13.6,156.34,156.34,0,0,1,65.8,17.4,164,164,0,0,1,25.7,16.3,181.59,181.59,0,0,1,22.4,20.5l2.5,2.8c.8.9,1.7,1.9,2.5,2.9,1.6,2,3.2,3.9,4.8,5.9s3,4.1,4.5,6.1,2.8,4.2,4.2,6.2,2.7,4.2,4,6.4l1.9,3.2,1.8,3.3c2.4,4.4,4.6,8.9,6.7,13.4"/><path class="cls-2" d="M357.1,119.59c.7,1.9,1.4,3.7,2,5.6s1.2,3.7,1.7,5.6c.3.9.6,1.9.9,2.8s.5,1.9.7,2.8c.5,1.9.9,3.7,1.4,5.6a175.28,175.28,0,0,1,3.6,22.3c.4,3.7.6,7.4.8,11,.1,1.8.1,3.6.1,5.5v5.4c-.1,1.8-.2,3.6-.2,5.4l-.1,2.7-.2,2.7c-.2,1.8-.3,3.5-.5,5.3s-.5,3.5-.7,5.2a195.46,195.46,0,0,1-4,20.5c-.5,1.7-.9,3.3-1.4,5s-.9,3.3-1.5,4.9c-1.1,3.2-2.1,6.5-3.4,9.7l-1.8,4.8c-.7,1.6-1.4,3.1-2,4.7-1.3,3.1-2.8,6.2-4.3,9.2a49.15,49.15,0,0,1-2.4,4.5l-2.4,4.5-2.6,4.4c-.9,1.4-1.7,2.9-2.7,4.3a184.78,184.78,0,0,1-24.6,30.5l-1.8,1.8c-.6.6-1.2,1.2-1.8,1.7-1.2,1.1-2.5,2.3-3.7,3.5s-2.6,2.2-3.9,3.3-2.6,2.2-4,3.3-2.7,2.1-4.1,3.1-2.7,2.1-4.2,3.1-2.9,1.9-4.4,2.9l-2.2,1.5-2.3,1.4a168.54,168.54,0,0,1-39.3,17.7,155.66,155.66,0,0,1-44.3,6.5c-3.1,0-6.2-.2-9.4-.3s-6.2-.6-9.3-.9a141.12,141.12,0,0,1-67.9-28.8A154.37,154.37,0,0,1,86.1,310a167.91,167.91,0,0,1-18.3-27.7A198.07,198.07,0,0,1,54,248.69c-1.8-5.7-3.2-11.5-4.6-17.3-.4-1.4-.6-2.9-.9-4.4l-.8-4.3c-.2-1.5-.4-2.9-.7-4.4s-.5-2.9-.6-4.3c-.3-2.9-.8-5.8-.9-8.7-.1-1.5-.3-2.9-.4-4.4l-.2-4.4c-.4-5.8-.3-11.6-.3-17.5a245.81,245.81,0,0,1,3.6-35c.6-2.7,1-5.4,1.7-8.1l1-4.1.5-2,.6-2,1.1-4.1c.3-1.4.8-2.7,1.2-4s.8-2.7,1.3-4.1l1.4-4a165.9,165.9,0,0,1,6.5-15.9c.6-1.3,1.3-2.6,1.9-3.9s1.3-2.6,2-3.9l2.1-3.8c.7-1.3,1.4-2.6,2.2-3.8a159.16,159.16,0,0,1,21.6-28.6,149.37,149.37,0,0,1,28.4-23.4c3.2-1.9,6.3-4,9.7-5.6l5-2.6,5.1-2.3a147.54,147.54,0,0,1,67.2-12.7,155.94,155.94,0,0,1,65,17.9A167.84,167.84,0,0,1,299,39.29a193.31,193.31,0,0,1,22,20.4,173.43,173.43,0,0,1,18.2,23.7,34.47,34.47,0,0,1,2,3.2l1.9,3.2c.6,1.1,1.3,2.1,1.9,3.2l1.8,3.3,1.8,3.3c.6,1.1,1.1,2.2,1.6,3.3l1.6,3.3c.5,1.1,1.1,2.2,1.6,3.4"/><path class="cls-2" d="M357,119.49c.7,1.9,1.4,3.7,2,5.6s1.2,3.8,1.8,5.6c.3.9.6,1.9.9,2.8s.5,1.9.7,2.8c.5,1.9.9,3.8,1.4,5.6a176.78,176.78,0,0,1,3.6,22.4c.4,3.7.5,7.4.7,11,.1,1.8.1,3.7.1,5.5v5.4l-.3,5.4-.1,2.7-.3,2.7c-.2,1.8-.3,3.5-.5,5.3s-.5,3.5-.7,5.2a195.62,195.62,0,0,1-4.1,20.5,186.48,186.48,0,0,1-6.3,19.6,191.3,191.3,0,0,1-18.2,36.5,194.74,194.74,0,0,1-24.5,30.8l-1.8,1.8-1.9,1.8c-1.2,1.2-2.5,2.3-3.7,3.5s-2.6,2.3-3.9,3.4-2.6,2.3-4,3.4-2.8,2.1-4.1,3.2-2.8,2.2-4.2,3.1c-2.9,2-5.8,4.1-8.9,5.9a167.86,167.86,0,0,1-39.8,18.3,157.38,157.38,0,0,1-45.1,6.9c-3.2-.1-6.4-.1-9.5-.3-1.6-.1-3.2-.3-4.8-.4s-3.2-.3-4.8-.5a144,144,0,0,1-37.3-10.4,149.71,149.71,0,0,1-31.7-19c-2.4-1.9-4.6-3.9-6.9-5.8s-4.3-4.1-6.4-6.1c-2-2.2-4-4.3-6-6.4s-3.8-4.4-5.6-6.7-3.5-4.5-5.1-6.9l-2.4-3.5c-.8-1.2-1.6-2.3-2.3-3.5l-2.2-3.6c-.7-1.2-1.5-2.4-2.1-3.6l-2-3.6c-.7-1.2-1.3-2.4-1.9-3.7-1.4-2.8-2.8-5.5-4-8.4l-1.9-4.2c-.6-1.4-1.1-2.9-1.7-4.3s-1.2-2.8-1.6-4.3l-1.5-4.4-.8-2.2a18.66,18.66,0,0,0-.7-2.2l-1.3-4.4c-.5-1.4-.8-2.9-1.2-4.4L49,239c-.3-1.5-.6-3-1-4.4s-.7-2.9-.9-4.4l-.8-4.4-.4-2.2c-.1-.7-.2-1.5-.3-2.2-.4-3-.9-5.9-1.1-8.8a219.56,219.56,0,0,1-1-35.3l.3-4.4c.1-1.5.3-2.9.4-4.4s.2-2.9.4-4.4l.5-4.4c.1-1.5.4-2.9.6-4.4l.6-4.4.8-4.4.4-2.2a17.42,17.42,0,0,1,.5-2.2,223.75,223.75,0,0,1,9.4-32.3,183.5,183.5,0,0,1,15.4-31.1c.8-1.2,1.5-2.5,2.4-3.7l2.5-3.7,1.3-1.8c.4-.6.9-1.2,1.3-1.8l2.7-3.6c.9-1.2,1.9-2.3,2.8-3.5l2.9-3.5c2-2.2,4.1-4.5,6.2-6.7a156.77,156.77,0,0,1,28.8-22.9c1.6-1,3.2-2,4.8-2.9l4.9-2.6,2.5-1.3,2.5-1.2,5.1-2.3a146.57,146.57,0,0,1,67-11.7,155.11,155.11,0,0,1,64.1,18.4,171.09,171.09,0,0,1,24.8,16.3c1.9,1.6,3.8,3.1,5.7,4.7s3.7,3.3,5.5,5a146.92,146.92,0,0,1,10.3,10.6A184.46,184.46,0,0,1,338.8,84c2.6,4.2,5.2,8.4,7.4,12.7l1.8,3.2,1.6,3.3,1.6,3.3.8,1.7.7,1.7"/><path class="cls-2" d="M357,119.29c.7,1.9,1.4,3.8,2.1,5.6l1.8,5.7c.3.9.6,1.9.9,2.8s.5,1.9.7,2.8c.5,1.9.9,3.8,1.4,5.6a161.48,161.48,0,0,1,3.5,22.5c.4,3.7.5,7.4.7,11.1.1,1.8,0,3.7.1,5.5v5.4l-.3,5.4c0,.9-.1,1.8-.1,2.7l-.3,2.7c-.2,1.8-.3,3.5-.5,5.3s-.5,3.5-.7,5.3c-.4,3.5-1.2,6.9-1.8,10.4-.3,1.7-.7,3.4-1.1,5.1l-1.2,5.1a179.25,179.25,0,0,1-6.3,19.6,192.14,192.14,0,0,1-18.2,36.6,196.79,196.79,0,0,1-24.5,31.1,178.33,178.33,0,0,1-32.6,26.6c-1.5,1-3.1,2-4.6,2.9l-4.8,2.7c-3.2,1.9-6.5,3.4-9.8,5.1-1.7.9-3.4,1.5-5.1,2.3s-3.5,1.5-5.2,2.2-3.5,1.3-5.3,1.9-3.6,1.3-5.4,1.8c-3.7,1.1-7.3,2.3-11.1,3.1-1.9.4-3.8.9-5.6,1.3s-3.8.7-5.7,1l-2.9.5-2.9.3-5.8.6c-2,.2-3.9.2-5.9.3s-3.9.2-5.9.2c-1.6,0-3.2,0-4.9-.1a19.27,19.27,0,0,1-2.4-.1l-2.4-.2a79.74,79.74,0,0,1-9.7-1,140.89,140.89,0,0,1-70-30.3A154.73,154.73,0,0,1,80.3,311a167.07,167.07,0,0,1-17.8-29.1l-2.1-4.2-1.9-4.3c-1.3-2.8-2.4-5.8-3.5-8.7a14.27,14.27,0,0,1-.8-2.2l-.7-2.2-1.5-4.4c-.5-1.4-.9-3-1.3-4.4l-1.3-4.4-1.1-4.5c-.3-1.5-.8-3-1-4.5l-.9-4.5-.5-2.2-.4-2.3-.7-4.5c-.3-1.5-.4-3-.6-4.5l-.6-4.5-.4-4.5c-.4-3-.3-6-.6-9-.1-1.5-.1-3-.1-4.5l-.1-4.5c.1-6,.1-11.9.7-17.8.4-5.9,1.2-11.9,2-17.8,1-5.9,2-11.8,3.5-17.7a197.48,197.48,0,0,1,26.3-63.1c.8-1.3,1.7-2.4,2.5-3.7l2.5-3.7c1.8-2.3,3.6-4.8,5.5-7.1a153.67,153.67,0,0,1,12.2-13.4,157.59,157.59,0,0,1,29.2-22.5c.8-.5,1.6-1,2.4-1.4l2.5-1.3,4.9-2.6,5.1-2.4,2.5-1.2c.9-.4,1.7-.7,2.6-1.1a147.91,147.91,0,0,1,66.7-10.8,154.61,154.61,0,0,1,63.3,18.8,167.85,167.85,0,0,1,24.4,16.4A156.58,156.58,0,0,1,322.4,61c1.7,1.8,3.2,3.7,4.7,5.6l2.3,2.8c.7,1,1.5,2,2.2,2.9,3,3.9,5.6,8,8.3,12,1.3,2.1,2.5,4.2,3.8,6.2.6,1,1.2,2.1,1.8,3.2l1.7,3.2c.6,1.1,1.2,2.1,1.7,3.2l1.6,3.3c1,2.2,2.1,4.3,3,6.6"/><path class="cls-2" d="M356.9,119.19l2.1,5.7,1.8,5.7c.3.9.6,1.9.9,2.8s.5,1.9.7,2.9c.5,1.9.9,3.8,1.4,5.7a162.86,162.86,0,0,1,3.5,22.6A174,174,0,0,1,366,208c-.4,3.5-1.2,6.9-1.8,10.4-.3,1.7-.8,3.4-1.1,5.1l-1.2,5.1c-1.9,6.7-3.8,13.3-6.3,19.7a201.62,201.62,0,0,1-42.7,68.1,182,182,0,0,1-32.8,27.1A168.1,168.1,0,0,1,239.4,363a157,157,0,0,1-46.7,7.7h-5c-1.7,0-3.3-.2-5-.3l-5-.3-5-.6a139.71,139.71,0,0,1-38.6-10.9A145.21,145.21,0,0,1,76.8,312a161.87,161.87,0,0,1-17.6-29.8c-1.4-2.8-2.5-5.9-3.8-8.8-.6-1.4-1.2-3-1.7-4.4l-1.6-4.4c-.5-1.5-1-3-1.4-4.5s-1-3-1.4-4.5l-1.2-4.5c-.4-1.5-.9-3-1.2-4.5a217.93,217.93,0,0,1-5.5-36.4,232.71,232.71,0,0,1,7.1-71.9c.3-1.4.7-2.7,1.1-4l1.1-4c.9-2.7,1.7-5.4,2.6-8l1.4-4,.7-2,.8-2,1.6-4c.5-1.3,1.1-2.6,1.7-3.9s1.1-2.6,1.7-4l1.9-3.9c1.2-2.7,2.6-5.1,4-7.7.7-1.3,1.4-2.5,2.2-3.8l2.2-3.8,2.4-3.7c.8-1.2,1.6-2.5,2.4-3.7a173.18,173.18,0,0,1,23.3-27.5,152.73,152.73,0,0,1,29.6-22l4.9-2.6,2.5-1.3,2.5-1.2,5.1-2.4c1.7-.7,3.4-1.4,5.2-2.1a147,147,0,0,1,66.5-9.9,154.25,154.25,0,0,1,62.5,19.3,164.07,164.07,0,0,1,24,16.4l2.8,2.3,2.7,2.4,2.7,2.4,1.3,1.2,1.3,1.3,5.1,5.1c1.6,1.8,3.2,3.6,4.9,5.4a31.12,31.12,0,0,1,2.3,2.8l2.3,2.8c1.6,1.8,3,3.8,4.4,5.7l2.1,2.9c.7,1,1.3,2,2,3,1.3,2,2.7,4,4,6s2.5,4.1,3.7,6.2,2.3,4.2,3.4,6.3,2.2,4.3,3.2,6.4l1.6,3.2c.5,1.1.9,2.2,1.4,3.3"/><path class="cls-2" d="M356.9,119l2.1,5.7,1.8,5.7c.3,1,.6,1.9.9,2.8s.5,1.9.7,2.9c.5,1.9,1,3.8,1.4,5.7a164.24,164.24,0,0,1,3.5,22.7,179.47,179.47,0,0,1-1.4,43.5c-.4,3.5-1.2,6.9-1.8,10.4-.3,1.7-.8,3.4-1.2,5.1l-1.2,5.1c-.5,1.7-.9,3.3-1.4,5l-.7,2.5-.8,2.5c-.5,1.6-1.1,3.3-1.6,4.9l-1.8,4.8a185.92,185.92,0,0,1-8.2,18.9c-.8,1.5-1.6,3-2.4,4.6s-1.5,3.1-2.4,4.6c-1.8,3-3.4,6-5.3,8.9a207.54,207.54,0,0,1-24.4,31.6,185.75,185.75,0,0,1-32.9,27.6c-3,2.1-6.3,3.9-9.6,5.9-1.6,1-3.3,1.8-5,2.7l-5.1,2.7c-1.7.8-3.5,1.6-5.2,2.4s-3.5,1.6-5.3,2.3c-3.6,1.4-7.2,2.9-11,4.1-1.9.6-3.7,1.3-5.6,1.8s-3.8,1-5.8,1.5l-2.9.7-2.9.6-5.9,1.2a163.8,163.8,0,0,1-24.3,2.2c-1.7,0-3.4.1-5.1,0s-3.4-.2-5.1-.2c-3.4-.1-6.8-.6-10.1-1a138.12,138.12,0,0,1-39.3-11.2,141.68,141.68,0,0,1-32.8-20.8,148.18,148.18,0,0,1-25-27.1,172.1,172.1,0,0,1-17.4-30.5,193.57,193.57,0,0,1-11.9-36.4,213.08,213.08,0,0,1-4.8-37c-.1-6.2-.3-12.3.1-18.3.2-6.1.8-12.1,1.5-18.2s1.7-12.1,3-18c1.1-6,2.7-11.9,4.3-17.9,1.6-5.4,3.3-10.8,5.3-16.1l1.5-4,1.6-4c1-2.7,2.3-5.3,3.4-7.9a185.23,185.23,0,0,1,17.5-30.4A161.77,161.77,0,0,1,131.8,25l4.9-2.7,5-2.4,2.5-1.2c.8-.4,1.7-.7,2.6-1.1l5.2-2.1a147.86,147.86,0,0,1,33-8.3,142.82,142.82,0,0,1,33.3-.6,153.45,153.45,0,0,1,61.6,19.8l3.1,1.8,1.6.9,1.5,1c2,1.3,4,2.6,6,4l5.8,4.3c1.9,1.4,3.7,3,5.6,4.5A184.46,184.46,0,0,1,323.9,63c1.5,1.8,3,3.7,4.5,5.5.8.9,1.5,1.9,2.2,2.8l2.1,2.9c.7,1,1.4,1.9,2.1,2.9l2,3c1.3,2,2.7,3.9,3.9,6s2.5,4.1,3.7,6.1,2.2,4.2,3.4,6.3a31.82,31.82,0,0,1,1.6,3.2l1.5,3.2c.5,1.1,1,2.1,1.5,3.2l1.4,3.3"/><path class="cls-2" d="M356.8,118.79l2.1,5.7c.6,1.9,1.2,3.9,1.8,5.8.3,1,.6,1.9.9,2.9s.5,1.9.8,2.9c.5,1.9,1,3.8,1.4,5.7a165.63,165.63,0,0,1,3.5,22.8,180.22,180.22,0,0,1-1.5,43.6,200.75,200.75,0,0,1-10.6,40.3c-2.4,6.5-5.2,12.7-8.2,19l-2.4,4.6c-.8,1.5-1.6,3.1-2.4,4.6-1.7,3-3.4,6.1-5.3,9a203.35,203.35,0,0,1-24.4,31.9,195.08,195.08,0,0,1-33.1,28.2,174.56,174.56,0,0,1-41.7,20.7c-3.8,1.4-7.7,2.4-11.6,3.5-2,.6-4,.9-5.9,1.4s-4,.9-6,1.2c-4.1.6-8.1,1.4-12.3,1.7-2.1.2-4.1.4-6.2.5s-4.2.1-6.3.2h-2.6l-2.6-.1c-1.7-.1-3.4-.1-5.2-.2s-3.4-.3-5.2-.4-3.4-.4-5.2-.5a139.12,139.12,0,0,1-40-11.6,144.36,144.36,0,0,1-33.1-21.3,152,152,0,0,1-25-27.8,167.31,167.31,0,0,1-17.1-31.2,191.84,191.84,0,0,1-11.3-37.2,209,209,0,0,1-4.1-37.6,231.74,231.74,0,0,1,10.6-73,243.69,243.69,0,0,1,12.5-31.8,202.56,202.56,0,0,1,18.2-30.1l1.3-1.8,1.4-1.7,2.8-3.5c.9-1.2,2-2.3,2.9-3.4s2-2.3,3-3.4l3.1-3.3c1.1-1.1,2.1-2.2,3.2-3.3l3.3-3.1c.6-.5,1.1-1.1,1.7-1.6l1.7-1.5a161.61,161.61,0,0,1,30.4-21.1l2.5-1.3,2.5-1.2,5-2.4,5.1-2.1c1.7-.7,3.4-1.4,5.2-2a148.53,148.53,0,0,1,66.1-8,150.6,150.6,0,0,1,60.7,20.3,163.54,163.54,0,0,1,23.1,16.4,180.74,180.74,0,0,1,20,20.1,177.35,177.35,0,0,1,16.5,22.9,184.07,184.07,0,0,1,12.8,25"/><path class="cls-2" d="M356.7,118.69c.7,1.9,1.4,3.9,2.1,5.8s1.2,3.9,1.8,5.8c1.3,3.8,2.1,7.7,3.1,11.6a167,167,0,0,1,3.5,22.9,175.85,175.85,0,0,1-1.6,43.7,201.88,201.88,0,0,1-10.7,40.4c-1.1,3.3-2.6,6.4-3.9,9.6-.6,1.6-1.4,3.1-2.1,4.7l-2.2,4.7c-3.1,6.2-6.4,12.3-10.1,18.2a221.18,221.18,0,0,1-24.3,32.2A202.24,202.24,0,0,1,279.1,347c-1.5,1.1-3.2,2.1-4.8,3.1s-3.3,2.1-4.9,3.1-3.4,1.9-5.1,2.9-3.4,1.9-5.2,2.8c-3.5,1.7-7.1,3.6-10.8,5.1-1.9.8-3.7,1.6-5.6,2.3l-5.7,2.1-2.9,1-2.9.9c-2,.6-4,1.2-5.9,1.7s-4,1-6.1,1.4l-3.1.7-3.1.6c-2.1.3-4.1.7-6.2,1s-4.2.5-6.3.7c-4.2.5-8.5.6-12.7.8-3.5,0-7-.1-10.5-.2-1.8-.1-3.5-.3-5.3-.4s-3.5-.3-5.3-.6a140.43,140.43,0,0,1-74.2-33.8,146.25,146.25,0,0,1-25-28.6,171.16,171.16,0,0,1-16.8-31.9,200.78,200.78,0,0,1-14.1-75.9,211.15,211.15,0,0,1,3.3-37.3c.3-1.5.5-3.1.8-4.6l1-4.6c.2-.8.3-1.5.5-2.3l.5-2.3,1-4.6,1.2-4.5.6-2.3c.2-.8.5-1.5.7-2.2l1.3-4.5,1.5-4.5a216.3,216.3,0,0,1,13.3-31.6,196.42,196.42,0,0,1,18.9-29.8,177.69,177.69,0,0,1,25.1-26.3,157.68,157.68,0,0,1,30.8-20.6,152.46,152.46,0,0,1,20.4-8.7,146.74,146.74,0,0,1,33-7.3,143.77,143.77,0,0,1,32.8.2,150.64,150.64,0,0,1,59.9,20.7,174.59,174.59,0,0,1,22.7,16.4,168.33,168.33,0,0,1,19.6,20,180.11,180.11,0,0,1,16.2,22.7c2.5,3.9,4.5,8.1,6.8,12.2l3,6.3.8,1.6c.2.5.5,1.1.7,1.6l1.3,3.2"/><path class="cls-2" d="M356.7,118.49c.7,1.9,1.4,3.9,2.1,5.8s1.2,3.9,1.8,5.8c1.3,3.8,2.1,7.8,3.1,11.6a170.8,170.8,0,0,1,3.5,23,176.58,176.58,0,0,1-1.7,43.8,193.9,193.9,0,0,1-10.8,40.4c-1.1,3.3-2.6,6.4-3.9,9.6-.6,1.6-1.4,3.1-2.1,4.7s-1.4,3.2-2.2,4.7l-2.4,4.6-1.2,2.3-1.3,2.3-2.6,4.6c-.8,1.5-1.8,3-2.7,4.5s-1.7,2.8-2.6,4.1-1.8,2.7-2.7,4.1c-1.8,2.8-3.8,5.4-5.8,8.2-1,1.4-2,2.7-3.1,4s-2.1,2.7-3.2,4.1-2.3,2.6-3.4,4-2.3,2.7-3.5,4A203.16,203.16,0,0,1,278.6,348a186.94,186.94,0,0,1-42.7,22c-1.9.8-3.9,1.3-5.9,2s-4,1.3-6,1.8c-4.1,1-8.2,2.1-12.4,2.8a156.61,156.61,0,0,1-25.7,2.7,141.82,141.82,0,0,1-21.5-1.3,138.94,138.94,0,0,1-75.2-34.8,153,153,0,0,1-25-29.3,166.52,166.52,0,0,1-16.5-32.6,195.75,195.75,0,0,1-10.3-38.5l-.7-4.9c-.2-1.6-.5-3.2-.6-4.8l-.5-4.9a19.42,19.42,0,0,1-.2-2.4l-.1-2.4-.3-4.8c-.1-1.6-.1-3.2-.1-4.8s-.1-3.2-.1-4.8l.1-4.8a224.17,224.17,0,0,1,4.1-37.6,231.19,231.19,0,0,1,10.1-36.4c.2-.7.5-1.3.7-2l.8-2,1.5-4,1.7-3.9c.6-1.3,1.1-2.7,1.7-3.9,1.2-2.6,2.3-5.3,3.7-7.8l1.9-3.9,2.1-3.8c2.7-5.2,5.9-10.1,9-15.1.8-1.2,1.7-2.4,2.5-3.6s1.6-2.5,2.6-3.6L80,73l1.3-1.8,1.4-1.7a178.93,178.93,0,0,1,25.6-25.9,161.4,161.4,0,0,1,31.2-20.1l5-2.4c1.7-.8,3.4-1.4,5.1-2.2,3.4-1.5,6.9-2.6,10.4-3.9a147.24,147.24,0,0,1,65.5-6.1,151.28,151.28,0,0,1,59,21.1A167.77,167.77,0,0,1,326,66.39c3,3.5,5.7,7.3,8.4,11l3.8,5.7,1,1.4.9,1.5,1.8,3a181,181,0,0,1,12.3,24.5"/><path class="cls-2" d="M356.6,118.29c.7,2,1.4,3.9,2.1,5.9s1.2,3.9,1.8,5.9c1.3,3.9,2.1,7.8,3.1,11.7a172.21,172.21,0,0,1,3.5,23.1,177.11,177.11,0,0,1-1.8,43.9,210,210,0,0,1-10.8,40.5,220.21,220.21,0,0,1-18.3,37.5c-.9,1.4-1.6,2.8-2.6,4.2s-1.8,2.7-2.7,4.1l-1.4,2.1c-.5.7-1,1.4-1.5,2-1,1.4-2,2.7-3,4.1s-2.1,2.7-3.1,4.1l-3.2,4.1-3.4,4c-1.2,1.3-2.3,2.7-3.5,4a206.33,206.33,0,0,1-33.5,29.8,186.18,186.18,0,0,1-43.2,22.6,167.52,167.52,0,0,1-24.8,6.7c-4.3.9-8.6,1.4-13,2-2.2.3-4.4.4-6.6.5l-3.3.2c-1.1.1-2.2,0-3.3.1-3.6,0-7.3.1-11-.2-1.8-.1-3.7-.2-5.5-.4s-3.6-.4-5.5-.7a135.56,135.56,0,0,1-42.1-12.6,139.85,139.85,0,0,1-34.1-23.3,146,146,0,0,1-24.9-30,170.38,170.38,0,0,1-16.2-33.3l-.9-2.4-.8-2.4-1.5-4.9c-1-3.2-1.8-6.6-2.7-9.8-.7-3.3-1.5-6.6-2.1-9.9l-.9-4.9-.4-2.5c-.1-.8-.2-1.7-.3-2.5a215.77,215.77,0,0,1-1.8-39.2,239.46,239.46,0,0,1,5-38,252.43,252.43,0,0,1,11.1-36.6,246.11,246.11,0,0,1,14.8-31.2,203.67,203.67,0,0,1,20.3-29.2c1.9-2.4,4-4.5,6-6.8,1-1.2,2.1-2.2,3.1-3.3L96.9,54c1.1-1.1,2.2-2.1,3.3-3.1s2.2-2.1,3.4-3.1l3.5-3c1.2-1,2.3-2,3.6-2.9a167.64,167.64,0,0,1,31.5-19.6l2.5-1.2c.8-.4,1.7-.7,2.6-1.1l5.1-2.1c1.7-.7,3.5-1.3,5.2-1.9s3.5-1.3,5.2-1.8a147.63,147.63,0,0,1,65.3-5.3,149.92,149.92,0,0,1,58.1,21.6c1.9,1.2,3.9,2.4,5.7,3.7l5.5,4c1.9,1.3,3.6,2.8,5.4,4.2a27.46,27.46,0,0,1,2.6,2.2l2.5,2.3c3.4,3,6.6,6.3,9.9,9.5l4.6,5.1,1.1,1.3,1.1,1.3,2.2,2.6a171.79,171.79,0,0,1,15.5,22.4,203.64,203.64,0,0,1,12.1,24.3"/><path class="cls-2" d="M356.6,118.19c.7,2,1.4,3.9,2.1,5.9s1.2,3.9,1.9,5.9c1.3,3.9,2.1,7.9,3.1,11.7a156.47,156.47,0,0,1,3.4,23.2c.2,1.9.3,3.8.4,5.7s.1,3.8.2,5.6v5.6a49.64,49.64,0,0,1-.2,5.5c-.1,1.8-.2,3.7-.3,5.5l-.1,1.4-.1,1.4-.3,2.7c-.2,1.8-.3,3.6-.6,5.4s-.5,3.5-.8,5.3a20.24,20.24,0,0,1-.4,2.6l-.5,2.6c-.3,1.7-.7,3.5-1,5.2l-1.2,5.1c-.4,1.7-.8,3.4-1.3,5.1l-1.4,5c-.4,1.7-1.1,3.3-1.6,5s-1,3.3-1.6,5l-1.8,4.9a225.77,225.77,0,0,1-18.3,37.7,218,218,0,0,1-24.3,33,211.75,211.75,0,0,1-33.7,30.4,183.63,183.63,0,0,1-43.7,23.2,127.63,127.63,0,0,1-12.4,3.9c-2.1.6-4.2,1.2-6.4,1.7s-4.3.9-6.5,1.4-4.4.8-6.6,1.1-4.4.7-6.6.9c-4.5.4-9,.8-13.5.8-1.9,0-3.7.1-5.6.1l-5.6-.3c-3.7-.1-7.5-.6-11.2-1a136.78,136.78,0,0,1-42.8-13,142.25,142.25,0,0,1-34.5-23.9,147.63,147.63,0,0,1-24.9-30.8,168.31,168.31,0,0,1-15.8-34,193.17,193.17,0,0,1-9-39.9l-.6-5-.4-5c-.3-3.3-.4-6.7-.5-10,0-.8-.1-1.6-.1-2.5v-7.4c0-1.6.2-3.3.2-4.9l.1-2.4c0-.8.1-1.6.1-2.4a233,233,0,0,1,5.9-38.3c.8-3.1,1.5-6.2,2.5-9.3.5-1.5.8-3.1,1.3-4.6l1.5-4.6c.4-1.5,1-3,1.6-4.6s1-3.1,1.6-4.6c1.2-3,2.3-6.1,3.6-9a224.82,224.82,0,0,1,15.6-31,213.86,213.86,0,0,1,20.9-28.9,181.89,181.89,0,0,1,26.7-25.1A168.9,168.9,0,0,1,145,22a144.59,144.59,0,0,1,20.8-7.7,147.57,147.57,0,0,1,65-4.4A151.8,151.8,0,0,1,260.9,18a158.68,158.68,0,0,1,48.6,30.3A172.49,172.49,0,0,1,328,68c1.5,1.7,2.8,3.5,4.1,5.3s2.7,3.6,3.9,5.5l3.7,5.6,3.5,5.8c1.2,1.9,2.2,3.9,3.2,5.9s2.2,3.9,3.1,6l2.9,6,2.6,6.2"/><path class="cls-2" d="M356.5,118c.7,2,1.4,4,2.2,5.9s1.2,4,1.9,5.9c1.3,3.9,2.2,7.9,3.1,11.8a159.72,159.72,0,0,1,3.4,23.3l.2,2.9a27.15,27.15,0,0,1,.1,2.9c.1,1.9.1,3.8.2,5.7s0,3.7-.1,5.6a49.64,49.64,0,0,1-.2,5.5c-.1,1.8-.2,3.7-.3,5.5a24.52,24.52,0,0,1-.2,2.7l-.3,2.7c-.2,1.8-.3,3.6-.6,5.4s-.5,3.5-.8,5.3-.6,3.5-.9,5.3l-1,5.2-1.2,5.1-.6,2.6c-.2.9-.5,1.7-.7,2.5l-1.4,5c-.5,1.7-1.1,3.3-1.6,5s-1,3.3-1.6,5l-1.8,4.9a230.55,230.55,0,0,1-18.3,37.8,223.19,223.19,0,0,1-24.3,33.3c-1.2,1.4-2.4,2.7-3.7,4.1s-2.6,2.7-3.9,4-2.6,2.7-4,4l-4.2,3.9c-.7.6-1.4,1.3-2.1,2l-2.2,1.9-4.5,3.8c-1.5,1.2-3.1,2.4-4.7,3.7s-3.1,2.5-4.8,3.6c-3.3,2.3-6.6,4.7-10.1,6.8-1.7,1.1-3.5,2.2-5.3,3.3l-5.5,3.1-2.8,1.5-2.8,1.4-5.8,2.8c-1.9.9-3.9,1.7-5.9,2.6s-4,1.7-6.1,2.4-4.1,1.5-6.2,2.2-4.2,1.3-6.4,1.9c-4.3,1.3-8.6,2.2-13.1,3.2a154.08,154.08,0,0,1-27.2,3,145.33,145.33,0,0,1-22.8-1.3,141.26,141.26,0,0,1-43.6-13.4,132.43,132.43,0,0,1-18.6-11.1c-1.5-1-2.9-2.1-4.3-3.2l-4.1-3.3c-2.7-2.3-5.2-4.6-7.8-7s-4.8-4.9-7.2-7.4c-2.2-2.6-4.4-5.2-6.5-7.8s-4-5.3-5.9-8.1-3.6-5.5-5.3-8.3a166.52,166.52,0,0,1-15.4-34.7,199.45,199.45,0,0,1-8.4-40.6c-.4-3.4-.5-6.8-.8-10.1-.1-1.7-.1-3.4-.2-5.1l-.1-5c0-1.7.1-3.4.1-5v-3.7l.1-1.3c.3-3.3.3-6.6.7-9.9l.4-4.9.7-4.9c.3-3.3,1-6.5,1.5-9.7l.2-1.2.3-1.2.5-2.4c.3-1.6.6-3.2,1-4.8.8-3.2,1.4-6.3,2.3-9.5l1.3-4.7,1.4-4.7.7-2.3.8-2.3,1.5-4.6c.6-1.5,1.1-3,1.7-4.6l.8-2.3.9-2.3,1.8-4.5c.7-1.5,1.3-3,2-4.5l.8-2c.3-.7.6-1.3.9-2l1.8-3.9c.6-1.3,1.3-2.6,2-3.9l2-3.9c2.8-5.1,5.6-10.2,8.8-15.2l2.4-3.7L71.3,86c1.6-2.5,3.5-4.8,5.2-7.3.9-1.2,1.8-2.4,2.8-3.5l2.8-3.5,3-3.4c1-1.1,1.9-2.3,3-3.4a188.36,188.36,0,0,1,27.2-24.7,167.19,167.19,0,0,1,32.3-18.6l5.1-2.2c1.7-.7,3.5-1.3,5.2-1.9,3.5-1.3,7-2.3,10.5-3.4a145.74,145.74,0,0,1,64.7-3.4A149,149,0,0,1,289.5,33c1.9,1.2,3.7,2.5,5.5,3.8s3.6,2.6,5.3,4,3.5,2.8,5.2,4.2l5,4.5a176.62,176.62,0,0,1,18.1,19.6c1.4,1.7,2.7,3.5,4,5.3l2,2.7,1.8,2.8c1.2,1.9,2.5,3.6,3.7,5.5l3.4,5.7a201,201,0,0,1,11.6,23.8"/><path class="cls-2" d="M356.4,117.89c.7,2,1.4,4,2.2,6s1.3,4,1.9,6a122.34,122.34,0,0,1,3.1,11.9,161,161,0,0,1,3.4,23.4l.2,2.9a28.1,28.1,0,0,1,.1,2.9c.1,1.9.1,3.8.2,5.7s-.1,3.8-.1,5.6a52.4,52.4,0,0,1-.2,5.6c-.1,1.8-.2,3.7-.3,5.5s-.4,3.6-.6,5.4l-.3,2.7-.1,1.3-.2,1.3-.8,5.3A211.56,211.56,0,0,1,353.8,250c-.6,1.7-1.3,3.2-1.9,4.9l-2,4.8-2.2,4.8c-.7,1.6-1.4,3.2-2.2,4.8l-2.3,4.7c-.4.8-.8,1.6-1.2,2.3l-1.3,2.3c-.9,1.5-1.6,3.1-2.5,4.7l-2.7,4.6-1.2,2.1-1.3,2.1-2.7,4.2c-.9,1.4-1.9,2.8-2.8,4.2s-1.9,2.8-2.9,4.2-2.1,2.8-3.1,4.2-2.1,2.9-3.2,4.2c-2.3,2.7-4.5,5.6-6.9,8.3a207.45,207.45,0,0,1-34.1,31.5l-5,3.6c-1.7,1.2-3.5,2.3-5.2,3.4l-2.6,1.7-1.3.9-1.4.8-5.5,3.2c-1.8,1.1-3.8,2-5.7,3s-3.9,2-5.8,2.9l-6,2.6c-1,.4-2,.9-3.1,1.3l-3.1,1.2c-2.1.8-4.2,1.5-6.3,2.3l-6.5,2c-1.1.3-2.2.7-3.3,1l-3.3.8c-2.2.5-4.4,1.1-6.7,1.5l-6.8,1.2c-1.1.2-2.3.4-3.4.5l-3.5.4c-2.3.2-4.6.5-7,.6l-7,.3c-1.9.1-3.9,0-5.8,0s-3.9-.1-5.8-.2-3.9-.3-5.8-.5a57.33,57.33,0,0,1-5.8-.7,142.46,142.46,0,0,1-44.3-13.8,135.25,135.25,0,0,1-35.1-25.3,147.55,147.55,0,0,1-24.7-32.3,167.57,167.57,0,0,1-15.1-35.4,203.57,203.57,0,0,1-7.8-41.2,212.44,212.44,0,0,1,.6-40.7c.7-6.7,1.8-13.2,3-19.7l1.1-4.8.5-2.4.6-2.4,1.2-4.8,1.4-4.7.7-2.4c.2-.8.5-1.6.7-2.3l1.5-4.7c.5-1.6,1.1-3.1,1.6-4.6s1.1-3.1,1.7-4.6L45,136c.6-1.5,1.3-3,1.9-4.5a44.26,44.26,0,0,1,2-4.5l2-4.5A242.76,242.76,0,0,1,68,91.89a198.7,198.7,0,0,1,22.3-28.2c1.1-1.1,2.1-2.3,3.1-3.3l3.3-3.2,1.6-1.6c.6-.5,1.1-1,1.7-1.5l3.4-3.1c1.1-1.1,2.4-2,3.5-3l3.6-3,3.7-2.8c1.2-.9,2.4-1.9,3.7-2.8a170.32,170.32,0,0,1,32.6-18.1c3.4-1.5,6.9-2.7,10.4-4,1.7-.6,3.5-1.1,5.3-1.6s3.5-1.1,5.3-1.5a147.1,147.1,0,0,1,64.4-2.6,150.88,150.88,0,0,1,55.6,22.7,162.89,162.89,0,0,1,20.6,16.4c3.1,3.1,6.3,6.1,9.2,9.4a51.45,51.45,0,0,1,4.3,5l4.2,5.1c2.6,3.5,5.3,7,7.6,10.7,2.5,3.6,4.7,7.4,6.9,11.1a212.56,212.56,0,0,1,11.3,23.6"/><path class="cls-2" d="M356.4,117.69c.7,2,1.5,4,2.2,6,.4,1,.7,2,1,3l.9,3c1.3,4,2.2,8,3.1,11.9a164.36,164.36,0,0,1,3.4,23.5l.2,2.9a28.1,28.1,0,0,1,.1,2.9c.1,1.9.1,3.8.2,5.7s-.1,3.8-.1,5.6a52.4,52.4,0,0,1-.2,5.6l-.3,5.5c-.1,1.8-.4,3.6-.6,5.5-.3,3.6-1,7.2-1.5,10.7a228.22,228.22,0,0,1-11.1,40.7c-.6,1.7-1.3,3.2-1.9,4.9l-2,4.9-2.2,4.8-1.1,2.4-1.2,2.4-2.3,4.7c-.8,1.6-1.7,3.1-2.5,4.7s-1.6,3.2-2.5,4.7l-2.7,4.7c-.9,1.6-1.9,3.1-2.8,4.7s-2,3.1-2.9,4.7c-1.1,1.5-2.1,3.1-3.2,4.7l-1.6,2.4-1.7,2.3c-1.2,1.6-2.3,3.1-3.5,4.7s-2.5,3.1-3.7,4.6l-1.9,2.4c-.6.8-1.3,1.5-2,2.3-1.3,1.5-2.7,3.1-4,4.7l-4.3,4.6-2.2,2.3a23.91,23.91,0,0,1-2.3,2.2l-4.6,4.5-4.9,4.4-2.5,2.2-2.6,2.1c-1.7,1.4-3.5,2.8-5.2,4.2l-5.5,4a28.32,28.32,0,0,1-2.8,2l-2.9,1.9a182.84,182.84,0,0,1-53,24.5,161.78,161.78,0,0,1-30.6,5.3c-2.6.2-5.3.3-7.9.4s-5.3,0-7.9-.1-5.3-.3-8-.5l-4-.3c-1.3-.1-2.6-.4-4-.5-2-.3-4-.6-6.1-1s-4-.8-5.9-1.3a102,102,0,0,1-11.5-3.2l-2.8-.9-2.8-1c-1.8-.7-3.7-1.4-5.5-2.1-3.6-1.5-7-3.2-10.5-4.8a144,144,0,0,1-35.4-26,148.17,148.17,0,0,1-24.6-33.1A171.21,171.21,0,0,1,33,279.59a202,202,0,0,1-7.1-41.8,216.77,216.77,0,0,1,1.4-41.2c.2-1.7.5-3.4.7-5l.8-5,1-5,.5-2.5.6-2.5,1.1-4.9c.4-1.6.9-3.2,1.3-4.8.8-3.2,1.8-6.4,2.8-9.6.4-1.6,1.1-3.2,1.6-4.7s1-3.2,1.6-4.7l1.7-4.7.4-1.2.5-1.2.9-2.3c2.4-6.2,5.2-12.2,8.1-18.2.8-1.5,1.5-3,2.3-4.5.4-.8.8-1.5,1.2-2.2l1.2-2.2c1.5-3,3.3-5.8,5-8.8l2.7-4.3,1.3-2.2L66,94l2.8-4.3,3-4.2,1.5-2.1,1.6-2c1.1-1.4,2.1-2.8,3.2-4.1,2.2-2.6,4.3-5.4,6.7-7.9l1.7-2,.9-1,.9-.9,3.6-3.8a17,17,0,0,1,1.9-1.9L95.7,58c1.3-1.2,2.5-2.5,3.8-3.6l4-3.5c1.3-1.2,2.7-2.2,4.1-3.4,2.7-2.3,5.6-4.4,8.5-6.5,1.4-1.1,2.9-2,4.4-3s2.9-2.1,4.5-3c3.1-1.9,6.1-3.8,9.3-5.5A155.7,155.7,0,0,1,174,13.89a146.77,146.77,0,0,1,64.1-1.7,144.83,144.83,0,0,1,28.9,8.9,160.79,160.79,0,0,1,25.8,14.1A159,159,0,0,1,313,51.59a175.37,175.37,0,0,1,17.3,19.3l3.9,5.2c1.3,1.7,2.4,3.6,3.6,5.4l1.8,2.7,1.7,2.8c1.1,1.9,2.3,3.7,3.3,5.6a206.78,206.78,0,0,1,11.1,23.3"/></g></g></g></g></svg>